<svg width="22" height="22" viewBox="0 0 22 22" fill="none" xmlns="http://www.w3.org/2000/svg">
<g id="vuesax/outline/arrow-right">
<g id="arrow-right">
<path id="Vector" d="M8.16763 18.9474C7.99346 18.9474 7.8193 18.8832 7.6818 18.7457C7.41596 18.4799 7.41596 18.0399 7.6818 17.7741L13.6585 11.7974C14.0985 11.3574 14.0985 10.6424 13.6585 10.2024L7.6818 4.22573C7.41596 3.9599 7.41596 3.5199 7.6818 3.25406C7.94763 2.98823 8.38763 2.98823 8.65346 3.25406L14.6301 9.23073C15.0976 9.69823 15.3635 10.3307 15.3635 10.9999C15.3635 11.6691 15.1068 12.3016 14.6301 12.7691L8.65346 18.7457C8.51596 18.8741 8.3418 18.9474 8.16763 18.9474Z" fill="#1375B7"/>
</g>
</g>
</svg>
