<svg width="17" height="16" viewBox="0 0 17 16" fill="none" xmlns="http://www.w3.org/2000/svg">
<g id="vuesax/outline/arrow-up">
<g id="arrow-up">
<path id="Vector" d="M12.5467 6.87996C12.4201 6.87996 12.2934 6.83329 12.1934 6.73329L8.50008 3.03996L4.80674 6.73329C4.61341 6.92663 4.29341 6.92663 4.10008 6.73329C3.90674 6.53996 3.90674 6.21996 4.10008 6.02663L8.14675 1.97996C8.34008 1.78663 8.66008 1.78663 8.85341 1.97996L12.9001 6.02663C13.0934 6.21996 13.0934 6.53996 12.9001 6.73329C12.8067 6.83329 12.6734 6.87996 12.5467 6.87996Z" fill="#3DB72D"/>
<path id="Vector_2" d="M8.5 14.1667C8.22667 14.1667 8 13.94 8 13.6667V2.44666C8 2.17332 8.22667 1.94666 8.5 1.94666C8.77333 1.94666 9 2.17332 9 2.44666V13.6667C9 13.94 8.77333 14.1667 8.5 14.1667Z" fill="#3DB72D"/>
</g>
</g>
</svg>
