<svg width="109" height="45" viewBox="0 0 109 45" fill="none" xmlns="http://www.w3.org/2000/svg">
<g id="Layer 1">
<g id="Group">
<path id="Vector" d="M36.9717 37.6243V19.7118H41.5159V37.6234H36.9717V37.6243Z" fill="#024E82"/>
<path id="Vector_2" d="M57.0485 28.3518V37.6153H55.177C54.8771 37.026 54.5772 36.4359 54.2782 35.8466C53.7859 36.4034 53.1862 36.8377 52.4798 37.1486C51.7735 37.4594 51.059 37.6153 50.3373 37.6153C48.0873 37.6153 46.3964 36.7927 45.2638 35.1456C44.2377 33.6391 43.7246 31.509 43.7246 28.7573C43.7246 26.0055 44.197 23.7322 45.1409 22.0861C46.3233 20.0218 48.1912 18.9901 50.7447 18.9901C52.8953 18.9901 54.5257 19.6127 55.634 20.8579C56.6764 22.0293 57.1984 23.6547 57.1984 25.7352H52.814C52.814 24.5639 52.6948 23.7331 52.4573 23.2412C52.1538 22.6186 51.6154 22.3077 50.844 22.3077C49.9733 22.3077 49.3699 22.8898 49.0339 24.0521C48.763 24.9693 48.6275 26.3867 48.6275 28.3032C48.6275 30.4494 48.7422 31.9073 48.9725 32.6768C49.2932 33.7499 49.9498 34.286 50.9434 34.286C51.6326 34.286 52.1791 33.9418 52.581 33.2543C52.9342 32.6732 53.1103 32.046 53.1103 31.3748H50.844V28.3527H57.0512L57.0485 28.3518Z" fill="#024E82"/>
<path id="Vector_3" d="M59.2646 37.609V19.6974H65.6199L67.5908 29.7096L69.9059 19.6974H76.113V37.609H71.5805V24.3773L68.4029 37.609H65.6687L62.7991 23.9232L62.7503 37.609H59.2646Z" fill="#024E82"/>
<path id="Vector_4" d="M78.3193 37.609L82.5556 19.6974H88.5044L92.3342 37.609H87.7403L87.0384 33.985H82.9006L82.1004 37.609H78.3193ZM83.504 30.8152H86.4351L85.1172 23.5178L83.504 30.8152Z" fill="#024E82"/>
<path id="Vector_5" d="M99.481 28.7023L95.0967 19.6974H100.036L101.957 24.3782L104.322 19.6974H108.411L103.866 27.8427L108.559 37.6099H103.669L101.292 32.2289L98.7178 37.6099H94.543L99.482 28.7032L99.481 28.7023Z" fill="#024E82"/>
<g id="Group_2">
<path id="Vector_6" d="M35.4186 6.67394L26.8946 9.67888V13.4209C24.2842 11.6368 21.1219 10.5925 17.7166 10.5925C14.3113 10.5925 11.1527 11.6368 8.53865 13.4209V10.1889C10.1681 9.68879 15.4052 8.85534 18.2558 8.83371C18.2558 8.83371 12.4579 8.3021 8.25864 9.57976L3.70986 7.97593V14.4805C3.9718 14.676 4.13981 14.9868 4.13981 15.3382C4.13981 15.7113 3.95012 16.041 3.66018 16.2303C3.75321 16.3916 3.81554 16.56 3.8598 16.6592C4.10548 17.2809 4.03413 17.8647 3.96277 18.1909L3.56985 18.4423V17.1277C3.56985 17.0808 3.52921 17.0403 3.47682 17.0403C3.42443 17.0403 3.38017 17.0808 3.38017 17.1277V18.5666L3.06855 18.7658L2.71628 18.545V17.1277C2.71628 17.0808 2.67292 17.0403 2.61963 17.0403C2.57628 17.0403 2.53202 17.0808 2.53202 17.1277V18.427L2.1671 18.1909C2.09574 17.8674 2.01174 17.2457 2.30711 16.6087C2.34143 16.5402 2.40646 16.3943 2.5004 16.2483C2.1951 16.0618 1.98645 15.723 1.98645 15.3373C1.98645 14.9148 2.23214 14.5507 2.58802 14.3741V7.58218L0.0146484 6.67394L17.7166 0.437012L35.4186 6.67394Z" fill="#F29100"/>
<path id="Vector_7" d="M18.1869 25.7523H16.3271V20.9354H18.3089C19.0748 20.9354 19.6764 21.0814 20.11 21.3733C20.6862 21.7554 20.9726 22.414 20.9726 23.3502C20.9726 24.0467 20.7422 24.6179 20.278 25.0721C19.8137 25.5262 19.1155 25.7523 18.1878 25.7523H18.1869Z" fill="#F29100"/>
<path id="Vector_8" d="M20.427 30.1908C20.913 30.6756 21.1559 31.3378 21.1559 32.183C21.1559 33.2021 20.8479 33.9454 20.231 34.4175C19.7577 34.7906 19.1372 34.9771 18.3712 34.9771H16.3271V29.4673H18.3712C19.2591 29.4673 19.9447 29.7097 20.427 30.1917V30.1908Z" fill="#F29100"/>
<path id="Vector_9" d="M26.942 14.7976C24.3279 13.0135 21.1657 11.9692 17.764 11.9692C14.3624 11.9692 11.1964 13.0135 8.58243 14.7976C4.29921 17.7223 1.48828 22.6356 1.48828 28.2013C1.48828 37.1674 8.77573 44.4361 17.7631 44.4361C26.7505 44.4361 34.0352 37.1674 34.0352 28.2013C34.0352 22.6356 31.2252 17.7223 26.9411 14.7976H26.942ZM24.9702 37.4161C23.6677 38.5073 21.9235 39.0542 19.7331 39.0542H10.7412V17.0384H20.0501C22.0283 17.0384 23.6081 17.5232 24.7886 18.49C25.9692 19.4568 26.5581 20.7245 26.5581 22.2941C26.5581 23.6114 26.1652 24.7395 25.3775 25.6757C24.589 26.6146 23.5954 27.2174 22.3959 27.4877C23.8474 27.8607 24.9665 28.5104 25.7479 29.4366C26.5301 30.3629 26.9221 31.5495 26.9221 33.0011C26.9221 34.8536 26.2708 36.3232 24.9684 37.417L24.9702 37.4161Z" fill="#F29100"/>
<path id="Vector_10" d="M20.4269 30.1908C19.9437 29.7088 19.259 29.4664 18.3711 29.4664H16.3271V34.9762H18.3711C19.1371 34.9762 19.7576 34.7897 20.2309 34.4166C20.8479 33.9445 21.1559 33.2011 21.1559 32.1821C21.1559 31.3369 20.9129 30.6747 20.4269 30.1899V30.1908ZM20.109 21.3742C19.6763 21.0823 19.0748 20.9363 18.3079 20.9363H16.3262V25.7532H18.186C19.1145 25.7532 19.8118 25.5262 20.2761 25.073C20.7404 24.6188 20.9707 24.0476 20.9707 23.3511C20.9707 22.4158 20.6844 21.7572 20.1081 21.3742H20.109ZM20.4269 30.1908C19.9437 29.7088 19.259 29.4664 18.3711 29.4664H16.3271V34.9762H18.3711C19.1371 34.9762 19.7576 34.7897 20.2309 34.4166C20.8479 33.9445 21.1559 33.2011 21.1559 32.1821C21.1559 31.3369 20.9129 30.6747 20.4269 30.1899V30.1908ZM20.277 25.0721C20.7413 24.6179 20.9716 24.0467 20.9716 23.3502C20.9716 22.4149 20.6853 21.7563 20.109 21.3733C19.6763 21.0814 19.0748 20.9354 18.3079 20.9354H16.3262V25.7523H18.186C19.1145 25.7523 19.8118 25.5253 20.2761 25.0721H20.277Z" fill="#F29100"/>
</g>
<g id="Group_3">
<g id="Group_4">
<path id="Vector_11" d="M82.8144 16.7564L83.8549 12.3594H85.3146L86.2549 16.7564H85.1267L84.9542 15.8671H83.938L83.742 16.7564H82.8135H82.8144ZM84.0871 15.0886H84.807L84.4836 13.2973L84.0871 15.0886Z" fill="black"/>
<path id="Vector_12" d="M89.6505 13.8921H88.6109C88.6109 13.6893 88.582 13.5181 88.5233 13.3794C88.4411 13.1848 88.3128 13.0866 88.1394 13.0866C87.9253 13.0866 87.7772 13.2298 87.695 13.5145C87.6291 13.7398 87.5956 14.0876 87.5956 14.5579C87.5956 15.0841 87.6236 15.4427 87.6805 15.6311C87.7591 15.8942 87.9208 16.0266 88.1647 16.0266C88.358 16.0266 88.4962 15.9491 88.5784 15.7941C88.6488 15.6572 88.6841 15.4382 88.6841 15.1364L89.6514 15.2238C89.6514 15.714 89.5151 16.1068 89.2414 16.4014C88.9686 16.6961 88.5928 16.8429 88.115 16.8429C87.4963 16.8429 87.0401 16.6042 86.7457 16.1257C86.5099 15.7392 86.3916 15.2166 86.3916 14.557C86.3916 13.8975 86.5072 13.4109 86.7394 13.019C87.0374 12.5198 87.4963 12.2711 88.115 12.2711C88.6226 12.2711 89.011 12.4279 89.2793 12.7415C89.5268 13.0289 89.6505 13.4118 89.6505 13.8903V13.8921Z" fill="black"/>
<path id="Vector_13" d="M89.7265 16.7564L90.767 12.3594H92.2267L93.167 16.7564H92.0388L91.8663 15.8671H90.8501L90.6541 16.7564H89.7256H89.7265ZM90.9992 15.0886H91.7191L91.3957 13.2973L90.9992 15.0886Z" fill="black"/>
<path id="Vector_14" d="M93.5264 16.7564V12.3594H94.7421C95.4006 12.3594 95.9037 12.5522 96.2506 12.9387C96.5812 13.3109 96.7465 13.8254 96.7465 14.4831C96.7465 15.1409 96.6046 15.6986 96.3201 16.0905C95.9977 16.5347 95.5171 16.7573 94.8776 16.7573H93.5264V16.7564ZM94.6419 13.137V15.9779H94.7656C95.1043 15.9779 95.3311 15.7968 95.4458 15.4355C95.5126 15.2247 95.546 14.8949 95.546 14.4462C95.546 14.0839 95.5045 13.8046 95.4223 13.6082C95.2931 13.2946 95.0664 13.1379 94.7421 13.1379H94.6419V13.137Z" fill="black"/>
<path id="Vector_15" d="M97.3145 16.7564V12.3594H100.09V13.2099H98.43V14.0993H99.5428V14.9525H98.43V15.8662H100.09V16.7555H97.3145V16.7564Z" fill="black"/>
<path id="Vector_16" d="M100.77 16.7564V12.3594H102.33L102.814 14.8174L103.383 12.3594H104.906V16.7564H103.794V13.5082L103.013 16.7564H102.342L101.638 13.3965L101.625 16.7564H100.77H100.77Z" fill="black"/>
<path id="Vector_17" d="M106.23 16.7564V15.04L105.117 12.3585H106.293L106.874 14.0867L107.57 12.3585H108.559L107.346 14.976V16.7555H106.231L106.23 16.7564Z" fill="black"/>
</g>
<g id="Group_5">
<path id="Vector_18" d="M82.8144 16.7564L83.8549 12.3594H85.3146L86.2549 16.7564H85.1267L84.9542 15.8671H83.938L83.742 16.7564H82.8135H82.8144ZM84.0871 15.0886H84.807L84.4836 13.2973L84.0871 15.0886Z" fill="#F29100"/>
<path id="Vector_19" d="M89.6505 13.8921H88.6109C88.6109 13.6893 88.582 13.5181 88.5233 13.3794C88.4411 13.1848 88.3128 13.0866 88.1394 13.0866C87.9253 13.0866 87.7772 13.2298 87.695 13.5145C87.6291 13.7398 87.5956 14.0876 87.5956 14.5579C87.5956 15.0841 87.6236 15.4427 87.6805 15.6311C87.7591 15.8942 87.9208 16.0266 88.1647 16.0266C88.358 16.0266 88.4962 15.9491 88.5784 15.7941C88.6488 15.6572 88.6841 15.4382 88.6841 15.1364L89.6514 15.2238C89.6514 15.714 89.5151 16.1068 89.2414 16.4014C88.9686 16.6961 88.5928 16.8429 88.115 16.8429C87.4963 16.8429 87.0401 16.6042 86.7457 16.1257C86.5099 15.7392 86.3916 15.2166 86.3916 14.557C86.3916 13.8975 86.5072 13.4109 86.7394 13.019C87.0374 12.5198 87.4963 12.2711 88.115 12.2711C88.6226 12.2711 89.011 12.4279 89.2793 12.7415C89.5268 13.0289 89.6505 13.4118 89.6505 13.8903V13.8921Z" fill="#F29100"/>
<path id="Vector_20" d="M89.7265 16.7564L90.767 12.3594H92.2267L93.167 16.7564H92.0388L91.8663 15.8671H90.8501L90.6541 16.7564H89.7256H89.7265ZM90.9992 15.0886H91.7191L91.3957 13.2973L90.9992 15.0886Z" fill="#F29100"/>
<path id="Vector_21" d="M93.5264 16.7564V12.3594H94.7421C95.4006 12.3594 95.9037 12.5522 96.2506 12.9387C96.5812 13.3109 96.7465 13.8254 96.7465 14.4831C96.7465 15.1409 96.6046 15.6986 96.3201 16.0905C95.9977 16.5347 95.5171 16.7573 94.8776 16.7573H93.5264V16.7564ZM94.6419 13.137V15.9779H94.7656C95.1043 15.9779 95.3311 15.7968 95.4458 15.4355C95.5126 15.2247 95.546 14.8949 95.546 14.4462C95.546 14.0839 95.5045 13.8046 95.4223 13.6082C95.2931 13.2946 95.0664 13.1379 94.7421 13.1379H94.6419V13.137Z" fill="#F29100"/>
<path id="Vector_22" d="M97.3145 16.7564V12.3594H100.09V13.2099H98.43V14.0993H99.5428V14.9525H98.43V15.8662H100.09V16.7555H97.3145V16.7564Z" fill="#F29100"/>
<path id="Vector_23" d="M100.77 16.7564V12.3594H102.33L102.814 14.8174L103.383 12.3594H104.906V16.7564H103.794V13.5082L103.013 16.7564H102.342L101.638 13.3965L101.625 16.7564H100.77H100.77Z" fill="#F29100"/>
<path id="Vector_24" d="M106.23 16.7564V15.04L105.117 12.3585H106.293L106.874 14.0867L107.57 12.3585H108.559L107.346 14.976V16.7555H106.231L106.23 16.7564Z" fill="#F29100"/>
</g>
</g>
<g id="Group_6">
<g id="Group_7">
<path id="Vector_25" d="M37.1289 41.8627V39.9453H37.4333V41.5987H38.4052V41.8627H37.1298H37.1289Z" fill="black"/>
<path id="Vector_26" d="M38.9599 41.8627V39.9453H40.2145V40.2093H39.2634V40.7562H40.0944V41.0184H39.2634V41.5987H40.2272V41.8627H38.959H38.9599Z" fill="black"/>
<path id="Vector_27" d="M40.6904 41.8627L41.3606 39.9453H41.7499L42.4228 41.8627H42.103L41.9549 41.4329H41.1573L41.0092 41.8627H40.6895H40.6904ZM41.2486 41.1626H41.8646L41.5584 40.2688L41.2495 41.1626H41.2486Z" fill="black"/>
<path id="Vector_28" d="M42.9189 41.8627V39.9453H43.6334C43.7698 39.9453 43.8854 39.9714 43.9803 40.0246C44.0751 40.0778 44.1465 40.1462 44.1943 40.2318C44.2431 40.3174 44.2675 40.4102 44.2675 40.5103C44.2675 40.631 44.2332 40.7409 44.1645 40.8391C44.0959 40.9373 43.9965 41.0067 43.8647 41.0464L44.3271 41.8627H43.9866L43.5503 41.0797H43.2233V41.8627H42.9189ZM43.628 40.2093H43.2224V40.8256H43.628C43.7373 40.8256 43.8195 40.7941 43.8746 40.731C43.9297 40.6679 43.9577 40.5968 43.9577 40.5175C43.9577 40.4382 43.9297 40.367 43.8746 40.3039C43.8195 40.2408 43.7364 40.2093 43.628 40.2093Z" fill="black"/>
<path id="Vector_29" d="M44.8877 41.8627V39.9453H45.1632L46.1062 41.3239V39.9453H46.4106V41.8627H46.1324L45.1894 40.4967V41.8627H44.8877Z" fill="black"/>
<path id="Vector_30" d="M48.6495 41.8879C48.4951 41.8879 48.3605 41.86 48.2458 41.8041C48.1311 41.7483 48.0344 41.6726 47.9576 41.5789C47.8809 41.4852 47.8222 41.3789 47.7833 41.2626C47.7445 41.1455 47.7246 41.0266 47.7246 40.904C47.7246 40.7815 47.7436 40.6616 47.7833 40.5436C47.8222 40.4265 47.88 40.3201 47.9576 40.2264C48.0353 40.1327 48.1311 40.0579 48.2458 40.0021C48.3614 39.9471 48.496 39.9192 48.6495 39.9192C48.776 39.9192 48.8844 39.9354 48.9756 39.9687C49.0668 40.0021 49.1427 40.0435 49.2041 40.0949C49.2656 40.1463 49.3152 40.1994 49.3523 40.2571C49.3893 40.3138 49.4173 40.3688 49.4354 40.4202C49.4534 40.4715 49.4697 40.5301 49.4832 40.5941H49.1788C49.1671 40.5409 49.1508 40.494 49.131 40.4544C49.1111 40.4148 49.0813 40.3751 49.0425 40.3364C49.0036 40.2976 48.9521 40.2643 48.8889 40.2382C48.8257 40.2111 48.7462 40.1976 48.6513 40.1976C48.5493 40.1976 48.4599 40.2174 48.3822 40.2571C48.3054 40.2967 48.2404 40.3508 48.1889 40.4175C48.1365 40.485 48.0986 40.5607 48.0733 40.6454C48.048 40.7301 48.0353 40.8166 48.0353 40.9049C48.0353 40.9932 48.048 41.0788 48.0733 41.1626C48.0986 41.2464 48.1365 41.3221 48.1889 41.3906C48.2404 41.459 48.3054 41.5131 48.3822 41.5528C48.459 41.5924 48.5493 41.6122 48.6513 41.6122C48.7462 41.6122 48.8257 41.5987 48.8889 41.5717C48.9521 41.5446 49.0036 41.5113 49.0425 41.4717C49.0813 41.432 49.1111 41.3924 49.131 41.3527C49.1508 41.3131 49.1671 41.2662 49.1788 41.2131H49.4832C49.4697 41.2788 49.4534 41.3374 49.4354 41.3879C49.4173 41.4383 49.3893 41.4933 49.3523 41.551C49.3152 41.6086 49.2656 41.6636 49.2041 41.714C49.1427 41.7654 49.0659 41.8068 48.9756 41.8393C48.8844 41.8717 48.776 41.8888 48.6495 41.8888V41.8879Z" fill="black"/>
<path id="Vector_31" d="M50.8814 41.888C50.7269 41.888 50.5915 41.8601 50.4731 41.8042C50.3557 41.7484 50.2563 41.6727 50.1769 41.579C50.0974 41.4853 50.0378 41.3789 49.9971 41.2618C49.9565 41.1447 49.9375 41.0239 49.9375 40.9014C49.9375 40.7788 49.9574 40.659 49.9971 40.5428C50.0369 40.4256 50.0965 40.3211 50.1769 40.2283C50.2572 40.1355 50.3548 40.0607 50.4731 40.004C50.5906 39.9481 50.7269 39.9202 50.8814 39.9202C51.0359 39.9202 51.1741 39.9481 51.2915 40.004C51.4089 40.0598 51.5083 40.1346 51.5877 40.2283C51.6672 40.322 51.7268 40.4265 51.7675 40.5428C51.8072 40.659 51.8271 40.7788 51.8271 40.9014C51.8271 41.0239 51.8072 41.1438 51.7675 41.2618C51.7277 41.3789 51.6681 41.4853 51.5877 41.579C51.5074 41.6727 51.4098 41.7484 51.2915 41.8042C51.1741 41.8601 51.0368 41.888 50.8814 41.888ZM50.8814 41.6105C51.0196 41.6105 51.1361 41.5763 51.2292 41.5078C51.3231 41.4393 51.3935 41.351 51.4423 41.2438C51.4911 41.1357 51.5146 41.0212 51.5146 40.9005C51.5146 40.8104 51.501 40.7239 51.473 40.6401C51.445 40.5563 51.4053 40.4806 51.352 40.413C51.2987 40.3455 51.2337 40.2923 51.1542 40.2535C51.0756 40.2148 50.9844 40.195 50.8805 40.195C50.7766 40.195 50.6881 40.2148 50.6086 40.2535C50.53 40.2923 50.4641 40.3455 50.4108 40.413C50.3584 40.4806 50.3178 40.5563 50.2898 40.6401C50.2618 40.7239 50.2482 40.8104 50.2482 40.9005C50.2482 41.0212 50.2726 41.1357 50.3214 41.2438C50.3702 41.3519 50.4406 41.4402 50.5345 41.5078C50.6285 41.5754 50.7432 41.6105 50.8805 41.6105H50.8814Z" fill="black"/>
<path id="Vector_32" d="M52.3486 41.8627V39.9453H52.6241L53.5671 41.3239V39.9453H53.8715V41.8627H53.5933L52.6503 40.4967V41.8627H52.3486Z" fill="black"/>
<path id="Vector_33" d="M54.973 41.8627V40.2093H54.375V39.9453H55.8717V40.2093H55.2746V41.8627H54.973Z" fill="black"/>
<path id="Vector_34" d="M56.375 41.8627V39.9453H56.6794V41.8627H56.375Z" fill="black"/>
<path id="Vector_35" d="M57.2695 41.8627V39.9453H57.545L58.488 41.3239V39.9453H58.7924V41.8627H58.5142L57.5712 40.4967V41.8627H57.2695Z" fill="black"/>
<path id="Vector_36" d="M60.1297 41.8879C59.9825 41.8879 59.8524 41.86 59.7404 41.8041C59.6284 41.7483 59.5399 41.6663 59.4767 41.5582C59.4134 41.45 59.3818 41.3176 59.3818 41.1608V39.9453H59.6862V41.1608C59.6862 41.2851 59.7224 41.3906 59.7955 41.4753C59.8678 41.5609 59.9798 41.6032 60.1306 41.6032C60.2815 41.6032 60.3953 41.56 60.4684 41.4753C60.5416 41.3897 60.5777 41.2851 60.5777 41.1608V39.9453H60.8821V41.1608C60.8821 41.3176 60.8505 41.4509 60.7873 41.5582C60.7241 41.6663 60.6356 41.7483 60.5226 41.8041C60.4097 41.86 60.2788 41.8879 60.1315 41.8879H60.1297Z" fill="black"/>
<path id="Vector_37" d="M62.3462 41.888C62.1918 41.888 62.0563 41.8601 61.938 41.8042C61.8205 41.7484 61.7212 41.6727 61.6417 41.579C61.5622 41.4853 61.5026 41.3789 61.462 41.2618C61.4213 41.1447 61.4023 41.0239 61.4023 40.9014C61.4023 40.7788 61.4222 40.659 61.462 40.5428C61.5017 40.4256 61.5613 40.3211 61.6417 40.2283C61.7221 40.1355 61.8196 40.0607 61.938 40.004C62.0554 39.9481 62.1918 39.9202 62.3462 39.9202C62.5007 39.9202 62.6389 39.9481 62.7563 40.004C62.8737 40.0598 62.9731 40.1346 63.0526 40.2283C63.1321 40.322 63.1917 40.4265 63.2323 40.5428C63.2721 40.659 63.2919 40.7788 63.2919 40.9014C63.2919 41.0239 63.2721 41.1438 63.2323 41.2618C63.1926 41.3789 63.133 41.4853 63.0526 41.579C62.9722 41.6727 62.8746 41.7484 62.7563 41.8042C62.6389 41.8601 62.5016 41.888 62.3462 41.888ZM62.3462 41.6105C62.4844 41.6105 62.601 41.5763 62.694 41.5078C62.787 41.4393 62.8584 41.351 62.9072 41.2438C62.9559 41.1357 62.9794 41.0212 62.9794 40.9005C62.9794 40.8104 62.9659 40.7239 62.9379 40.6401C62.9099 40.5563 62.8701 40.4806 62.8168 40.413C62.7635 40.3455 62.6985 40.2923 62.619 40.2535C62.5404 40.2148 62.4492 40.195 62.3453 40.195C62.2415 40.195 62.1529 40.2148 62.0735 40.2535C61.9949 40.2923 61.9289 40.3455 61.8756 40.413C61.8233 40.4806 61.7826 40.5563 61.7546 40.6401C61.7266 40.7239 61.7131 40.8104 61.7131 40.9005C61.7131 41.0212 61.7375 41.1357 61.7862 41.2438C61.835 41.3519 61.9055 41.4402 61.9994 41.5078C62.0933 41.5763 62.208 41.6105 62.3453 41.6105H62.3462Z" fill="black"/>
<path id="Vector_38" d="M64.5614 41.8879C64.4141 41.8879 64.2841 41.86 64.1721 41.8041C64.0592 41.7483 63.9715 41.6663 63.9083 41.5582C63.8451 41.45 63.8135 41.3176 63.8135 41.1608V39.9453H64.1179V41.1608C64.1179 41.2851 64.154 41.3906 64.2272 41.4753C64.2994 41.5609 64.4114 41.6032 64.5623 41.6032C64.7131 41.6032 64.8269 41.56 64.9001 41.4753C64.9733 41.3897 65.0094 41.2851 65.0094 41.1608V39.9453H65.3138V41.1608C65.3138 41.3176 65.2822 41.4509 65.2189 41.5582C65.1557 41.6663 65.0672 41.7483 64.9543 41.8041C64.8405 41.86 64.7104 41.8879 64.5632 41.8879H64.5614Z" fill="black"/>
<path id="Vector_39" d="M66.5691 41.888C66.4544 41.888 66.3559 41.8736 66.2746 41.8438C66.1924 41.8141 66.1247 41.7772 66.0705 41.7312C66.0163 41.6853 65.9738 41.6366 65.9422 41.5843C65.9106 41.533 65.8862 41.4834 65.8709 41.4384C65.8555 41.3924 65.8429 41.3402 65.832 41.2816H66.1409C66.1518 41.3284 66.1644 41.3681 66.1798 41.4023C66.1951 41.4357 66.2195 41.4699 66.2511 41.5032C66.2828 41.5375 66.3252 41.5654 66.3785 41.5888C66.4309 41.6123 66.4986 41.624 66.5799 41.624C66.701 41.624 66.7958 41.5952 66.8644 41.5384C66.9331 41.4816 66.9674 41.4086 66.9674 41.3203C66.9674 41.2447 66.9421 41.1852 66.8906 41.1428C66.8392 41.1005 66.7642 41.0681 66.6657 41.0455L66.411 40.9861C66.3162 40.9653 66.2277 40.9347 66.1473 40.8942C66.0669 40.8536 66.0018 40.7986 65.9522 40.7293C65.9025 40.6599 65.8781 40.5725 65.8781 40.4671C65.8781 40.3526 65.9061 40.2553 65.963 40.1733C66.019 40.0913 66.0976 40.0283 66.1969 39.9841C66.2963 39.94 66.4101 39.9183 66.5384 39.9183C66.6666 39.9183 66.766 39.9373 66.8473 39.9742C66.9286 40.0111 66.9936 40.0571 67.0424 40.1103C67.0912 40.1634 67.1264 40.2175 67.1499 40.2724C67.1734 40.3274 67.1923 40.3914 67.2059 40.4653H66.9096C66.8961 40.4085 66.8762 40.3607 66.8509 40.3229C66.8256 40.2851 66.7877 40.2517 66.7362 40.2229C66.6847 40.1941 66.6161 40.1805 66.5293 40.1805C66.4101 40.1805 66.3207 40.2085 66.262 40.2634C66.2033 40.3184 66.1735 40.3797 66.1735 40.4472C66.1735 40.5148 66.1988 40.5653 66.2493 40.604C66.2999 40.6428 66.3668 40.6716 66.4517 40.6905L66.7244 40.7554C66.8247 40.7779 66.9159 40.8113 66.9981 40.8563C67.0803 40.9014 67.1454 40.9608 67.1941 41.0338C67.2429 41.1068 67.2673 41.1969 67.2673 41.3023C67.2673 41.4077 67.2411 41.5078 67.1878 41.5961C67.1345 41.6844 67.0568 41.7555 66.953 41.8087C66.8491 41.8619 66.7208 41.888 66.5682 41.888H66.5691Z" fill="black"/>
<path id="Vector_40" d="M67.7725 41.8627V39.9453H68.0769V41.5987H69.0488V41.8627H67.7734H67.7725Z" fill="black"/>
<path id="Vector_41" d="M69.7471 41.8628V41.1888L69.0742 39.9445H69.4066L69.898 40.8797L70.3912 39.9445H70.7236L70.0479 41.1888V41.8628H69.7462H69.7471Z" fill="black"/>
<path id="Vector_42" d="M71.1885 42.1988L71.3863 41.8799C71.3375 41.8763 71.2978 41.8582 71.2653 41.824C71.2327 41.7898 71.2174 41.7483 71.2174 41.6978C71.2174 41.6429 71.2363 41.5978 71.2734 41.5645C71.3104 41.5303 71.3556 41.514 71.4071 41.514C71.4586 41.514 71.5064 41.5312 71.5435 41.5645C71.5805 41.5978 71.5995 41.6447 71.5995 41.7033C71.5995 41.7564 71.5805 41.8177 71.5407 41.8844C71.5019 41.9519 71.4378 42.0474 71.3475 42.1718L71.3294 42.1979H71.1894L71.1885 42.1988Z" fill="black"/>
<path id="Vector_43" d="M72.9893 41.8627V39.9453H73.6468C73.8013 39.9453 73.9359 39.9723 74.0524 40.0273C74.168 40.0814 74.2647 40.1544 74.3423 40.2463C74.4191 40.3382 74.4778 40.4409 74.5167 40.5544C74.5555 40.6688 74.5754 40.7851 74.5754 40.904C74.5754 41.0229 74.5555 41.1401 74.5167 41.2536C74.4778 41.368 74.42 41.4708 74.3423 41.5618C74.2647 41.6528 74.1689 41.7266 74.0524 41.7807C73.9368 41.8348 73.8013 41.8627 73.6468 41.8627H72.9893ZM73.6333 40.2093H73.2928V41.596H73.6333C73.7408 41.596 73.8338 41.5762 73.9142 41.5374C73.9937 41.4987 74.0596 41.4455 74.112 41.3789C74.1644 41.3122 74.2032 41.2383 74.2303 41.1563C74.2574 41.0743 74.271 40.9896 74.271 40.904C74.271 40.8184 74.2574 40.7328 74.2303 40.6499C74.2032 40.567 74.1644 40.4931 74.112 40.4274C74.0605 40.3616 73.9946 40.3093 73.9142 40.2688C73.8338 40.2282 73.7408 40.2093 73.6333 40.2093Z" fill="black"/>
<path id="Vector_44" d="M75.0956 41.8627V39.9453H76.3503V40.2093H75.3991V40.7562H76.2301V41.0184H75.3991V41.5987H76.3629V41.8627H75.0947H75.0956Z" fill="black"/>
<path id="Vector_45" d="M77.4603 41.8627L76.79 39.9453H77.1098L77.6581 41.5392L78.2036 39.9453H78.5234L77.8505 41.8627H77.4612H77.4603Z" fill="black"/>
<path id="Vector_46" d="M78.9823 41.8627V39.9453H80.237V40.2093H79.2858V40.7562H80.1168V41.0184H79.2858V41.5987H80.2496V41.8627H78.9814H78.9823Z" fill="black"/>
<path id="Vector_47" d="M80.8057 41.8627V39.9453H81.1101V41.5987H82.082V41.8627H80.8066H80.8057Z" fill="black"/>
<path id="Vector_48" d="M83.3521 41.888C83.1976 41.888 83.0622 41.8601 82.9438 41.8042C82.8264 41.7484 82.7271 41.6727 82.6476 41.579C82.5681 41.4853 82.5085 41.3789 82.4678 41.2618C82.4272 41.1447 82.4082 41.0239 82.4082 40.9014C82.4082 40.7788 82.4281 40.659 82.4678 40.5428C82.5076 40.4256 82.5672 40.3211 82.6476 40.2283C82.728 40.1355 82.8255 40.0607 82.9438 40.004C83.0613 39.9481 83.1976 39.9202 83.3521 39.9202C83.5066 39.9202 83.6448 39.9481 83.7622 40.004C83.8796 40.0598 83.979 40.1346 84.0584 40.2283C84.1379 40.322 84.1975 40.4265 84.2382 40.5428C84.2779 40.659 84.2978 40.7788 84.2978 40.9014C84.2978 41.0239 84.2779 41.1438 84.2382 41.2618C84.1985 41.3789 84.1388 41.4853 84.0584 41.579C83.979 41.6727 83.8805 41.7484 83.7622 41.8042C83.6439 41.8601 83.5075 41.888 83.3521 41.888ZM83.3521 41.6105C83.4903 41.6105 83.6068 41.5763 83.6999 41.5078C83.7929 41.4393 83.8642 41.351 83.913 41.2438C83.9618 41.1357 83.9853 41.0212 83.9853 40.9005C83.9853 40.8104 83.9717 40.7239 83.9437 40.6401C83.9157 40.5563 83.876 40.4806 83.8227 40.413C83.7694 40.3455 83.7044 40.2923 83.6249 40.2535C83.5463 40.2148 83.4551 40.195 83.3512 40.195C83.2473 40.195 83.1588 40.2148 83.0793 40.2535C83.0007 40.2923 82.9348 40.3455 82.8815 40.413C82.8291 40.4806 82.7885 40.5563 82.7605 40.6401C82.7325 40.7239 82.7189 40.8104 82.7189 40.9005C82.7189 41.0212 82.7433 41.1357 82.7921 41.2438C82.8409 41.3519 82.9113 41.4402 83.0053 41.5078C83.0992 41.5754 83.2139 41.6105 83.3512 41.6105H83.3521Z" fill="black"/>
<path id="Vector_49" d="M84.8193 41.8627V39.9453H85.5419C85.6928 39.9453 85.8183 39.9759 85.9186 40.0372C86.0189 40.0985 86.0947 40.1769 86.1444 40.2733C86.195 40.3697 86.2203 40.4697 86.2203 40.5751C86.2203 40.6806 86.195 40.7815 86.1444 40.8788C86.0938 40.9752 86.0189 41.0545 85.9186 41.1157C85.8183 41.177 85.6928 41.2077 85.5419 41.2077H85.1237V41.8636H84.8193V41.8627ZM85.5419 40.2093H85.1237V40.9428H85.5419C85.625 40.9428 85.6946 40.9247 85.7497 40.8896C85.8048 40.8545 85.8463 40.8085 85.8743 40.7517C85.9023 40.6959 85.9159 40.6373 85.9159 40.5769C85.9159 40.5166 85.9023 40.4553 85.8743 40.3994C85.8463 40.3436 85.8048 40.2976 85.7497 40.2625C85.6946 40.2273 85.625 40.2093 85.5419 40.2093Z" fill="black"/>
<path id="Vector_50" d="M87.5107 41.8627V39.9453H87.8151V40.7535H88.675V39.9453H88.9794V41.8627H88.675V41.0229H87.8151V41.8627H87.5107Z" fill="black"/>
<path id="Vector_51" d="M90.4439 41.888C90.2894 41.888 90.154 41.8601 90.0356 41.8042C89.9182 41.7484 89.8188 41.6727 89.7394 41.579C89.6599 41.4853 89.6003 41.3789 89.5596 41.2618C89.519 41.1447 89.5 41.0239 89.5 40.9014C89.5 40.7788 89.5199 40.659 89.5596 40.5428C89.5994 40.4256 89.659 40.3211 89.7394 40.2283C89.8197 40.1355 89.9173 40.0607 90.0356 40.004C90.1531 39.9481 90.2894 39.9202 90.4439 39.9202C90.5984 39.9202 90.7366 39.9481 90.854 40.004C90.9714 40.0598 91.0708 40.1346 91.1502 40.2283C91.2297 40.322 91.2893 40.4265 91.33 40.5428C91.3697 40.659 91.3896 40.7788 91.3896 40.9014C91.3896 41.0239 91.3697 41.1438 91.33 41.2618C91.2902 41.3789 91.2306 41.4853 91.1502 41.579C91.0699 41.6727 90.9723 41.7484 90.854 41.8042C90.7356 41.8601 90.5993 41.888 90.4439 41.888ZM90.4439 41.6105C90.5821 41.6105 90.6986 41.5763 90.7917 41.5078C90.8856 41.4393 90.956 41.351 91.0048 41.2438C91.0536 41.1357 91.0771 41.0212 91.0771 40.9005C91.0771 40.8104 91.0635 40.7239 91.0355 40.6401C91.0075 40.5563 90.9678 40.4806 90.9145 40.413C90.8612 40.3455 90.7962 40.2923 90.7167 40.2535C90.6381 40.2148 90.5469 40.195 90.443 40.195C90.3391 40.195 90.2506 40.2148 90.1711 40.2535C90.0925 40.2923 90.0266 40.3455 89.9733 40.413C89.9209 40.4806 89.8803 40.5563 89.8523 40.6401C89.8243 40.7239 89.8107 40.8104 89.8107 40.9005C89.8107 41.0212 89.8351 41.1357 89.8839 41.2438C89.9327 41.3519 90.0031 41.4402 90.097 41.5078C90.191 41.5754 90.3057 41.6105 90.443 41.6105H90.4439Z" fill="black"/>
<path id="Vector_52" d="M91.9111 41.8627V39.9453H92.2155V41.5987H93.1874V41.8627H91.912H91.9111Z" fill="black"/>
<path id="Vector_53" d="M93.7432 41.8627V39.9453H94.0476V41.8627H93.7432Z" fill="black"/>
<path id="Vector_54" d="M95.3035 41.888C95.1887 41.888 95.0903 41.8736 95.009 41.8438C94.9268 41.8141 94.8591 41.7772 94.8049 41.7312C94.7507 41.6853 94.7082 41.6366 94.6766 41.5843C94.645 41.533 94.6206 41.4834 94.6052 41.4384C94.5899 41.3924 94.5772 41.3402 94.5664 41.2816H94.8753C94.8862 41.3284 94.8988 41.3681 94.9142 41.4023C94.9295 41.4357 94.9539 41.4699 94.9855 41.5032C95.0171 41.5375 95.0596 41.5654 95.1129 41.5888C95.1653 41.6123 95.233 41.624 95.3143 41.624C95.4353 41.624 95.5302 41.5952 95.5988 41.5384C95.6675 41.4816 95.7018 41.4086 95.7018 41.3203C95.7018 41.2447 95.6765 41.1852 95.625 41.1428C95.5735 41.1005 95.4986 41.0681 95.4001 41.0455L95.1454 40.9861C95.0505 40.9653 94.962 40.9347 94.8816 40.8942C94.8013 40.8536 94.7362 40.7986 94.6865 40.7293C94.6369 40.6599 94.6125 40.5725 94.6125 40.4671C94.6125 40.3526 94.6405 40.2553 94.6974 40.1733C94.7534 40.0913 94.832 40.0283 94.9313 39.9841C95.0307 39.94 95.1445 39.9183 95.2727 39.9183C95.401 39.9183 95.5004 39.9373 95.5817 39.9742C95.663 40.0111 95.728 40.0571 95.7768 40.1103C95.8255 40.1634 95.8608 40.2175 95.8842 40.2724C95.9077 40.3274 95.9267 40.3914 95.9403 40.4653H95.644C95.6304 40.4085 95.6106 40.3607 95.5853 40.3229C95.56 40.2851 95.522 40.2517 95.4706 40.2229C95.4191 40.1941 95.3504 40.1805 95.2637 40.1805C95.1445 40.1805 95.0551 40.2085 94.9964 40.2634C94.9376 40.3184 94.9078 40.3797 94.9078 40.4472C94.9078 40.5148 94.9331 40.5653 94.9837 40.604C95.0343 40.6428 95.1011 40.6716 95.186 40.6905L95.4588 40.7554C95.5591 40.7779 95.6503 40.8113 95.7325 40.8563C95.8147 40.9014 95.8797 40.9608 95.9285 41.0338C95.9773 41.1068 96.0017 41.1969 96.0017 41.3023C96.0017 41.4077 95.9755 41.5078 95.9222 41.5961C95.8689 41.6844 95.7912 41.7555 95.6873 41.8087C95.5835 41.8619 95.4552 41.888 95.3025 41.888H95.3035Z" fill="black"/>
<path id="Vector_55" d="M96.9671 41.8627V40.2093H96.3691V39.9453H97.8658V40.2093H97.2688V41.8627H96.9671Z" fill="black"/>
<path id="Vector_56" d="M98.3691 41.8627V39.9453H98.6735V41.8627H98.3691Z" fill="black"/>
<path id="Vector_57" d="M100.121 41.8879C99.9668 41.8879 99.8322 41.86 99.7175 41.8041C99.6027 41.7483 99.5061 41.6726 99.4293 41.5789C99.3525 41.4852 99.2938 41.3789 99.255 41.2626C99.2162 41.1455 99.1963 41.0266 99.1963 40.904C99.1963 40.7815 99.2152 40.6616 99.255 40.5436C99.2938 40.4265 99.3516 40.3201 99.4293 40.2264C99.507 40.1327 99.6027 40.0579 99.7175 40.0021C99.8331 39.9471 99.9677 39.9192 100.121 39.9192C100.248 39.9192 100.356 39.9354 100.447 39.9687C100.539 40.0021 100.614 40.0435 100.676 40.0949C100.737 40.1463 100.787 40.1994 100.824 40.2571C100.861 40.3138 100.889 40.3688 100.907 40.4202C100.925 40.4715 100.941 40.5301 100.955 40.5941H100.651C100.639 40.5409 100.623 40.494 100.603 40.4544C100.583 40.4148 100.553 40.3751 100.514 40.3364C100.475 40.2976 100.424 40.2643 100.361 40.2382C100.297 40.2111 100.218 40.1976 100.123 40.1976C100.021 40.1976 99.9315 40.2174 99.8538 40.2571C99.7771 40.2967 99.712 40.3508 99.6606 40.4175C99.6082 40.485 99.5702 40.5607 99.5449 40.6454C99.5197 40.7301 99.507 40.8166 99.507 40.9049C99.507 40.9932 99.5197 41.0788 99.5449 41.1626C99.5702 41.2464 99.6082 41.3221 99.6606 41.3906C99.712 41.459 99.7771 41.5131 99.8538 41.5528C99.9306 41.5924 100.021 41.6122 100.123 41.6122C100.218 41.6122 100.297 41.5987 100.361 41.5717C100.424 41.5446 100.475 41.5113 100.514 41.4717C100.553 41.432 100.583 41.3924 100.603 41.3527C100.623 41.3131 100.639 41.2662 100.651 41.2131H100.955C100.941 41.2788 100.925 41.3374 100.907 41.3879C100.889 41.4383 100.861 41.4933 100.824 41.551C100.787 41.6086 100.737 41.6636 100.676 41.714C100.614 41.7654 100.538 41.8068 100.447 41.8393C100.356 41.8717 100.248 41.8888 100.121 41.8888V41.8879Z" fill="black"/>
<path id="Vector_58" d="M101.279 41.8627L101.949 39.9453H102.339L103.012 41.8627H102.692L102.544 41.4329H101.746L101.598 41.8627H101.278H101.279ZM101.837 41.1626H102.453L102.147 40.2688L101.838 41.1626H101.837Z" fill="black"/>
<path id="Vector_59" d="M103.508 41.8627V39.9453H103.812V41.5987H104.784V41.8627H103.509H103.508Z" fill="black"/>
<path id="Vector_60" d="M105.34 41.8627V39.9453H105.644V41.5987H106.616V41.8627H105.341H105.34Z" fill="black"/>
<path id="Vector_61" d="M107.314 41.8628V41.1888L106.641 39.9445H106.973L107.464 40.8797L107.958 39.9445H108.29L107.614 41.1888V41.8628H107.313H107.314Z" fill="black"/>
</g>
<g id="Group_8">
<path id="Vector_62" d="M37.1289 41.8627V39.9453H37.4333V41.5987H38.4052V41.8627H37.1298H37.1289Z" fill="#024E82"/>
<path id="Vector_63" d="M38.9599 41.8627V39.9453H40.2145V40.2093H39.2634V40.7562H40.0944V41.0184H39.2634V41.5987H40.2272V41.8627H38.959H38.9599Z" fill="#024E82"/>
<path id="Vector_64" d="M40.6904 41.8627L41.3606 39.9453H41.7499L42.4228 41.8627H42.103L41.9549 41.4329H41.1573L41.0092 41.8627H40.6895H40.6904ZM41.2486 41.1626H41.8646L41.5584 40.2688L41.2495 41.1626H41.2486Z" fill="#024E82"/>
<path id="Vector_65" d="M42.9189 41.8627V39.9453H43.6334C43.7698 39.9453 43.8854 39.9714 43.9803 40.0246C44.0751 40.0778 44.1465 40.1462 44.1943 40.2318C44.2431 40.3174 44.2675 40.4102 44.2675 40.5103C44.2675 40.631 44.2332 40.7409 44.1645 40.8391C44.0959 40.9373 43.9965 41.0067 43.8647 41.0464L44.3271 41.8627H43.9866L43.5503 41.0797H43.2233V41.8627H42.9189ZM43.628 40.2093H43.2224V40.8256H43.628C43.7373 40.8256 43.8195 40.7941 43.8746 40.731C43.9297 40.6679 43.9577 40.5968 43.9577 40.5175C43.9577 40.4382 43.9297 40.367 43.8746 40.3039C43.8195 40.2408 43.7364 40.2093 43.628 40.2093Z" fill="#024E82"/>
<path id="Vector_66" d="M44.8877 41.8627V39.9453H45.1632L46.1062 41.3239V39.9453H46.4106V41.8627H46.1324L45.1894 40.4967V41.8627H44.8877Z" fill="#024E82"/>
<path id="Vector_67" d="M48.6495 41.8879C48.4951 41.8879 48.3605 41.86 48.2458 41.8041C48.1311 41.7483 48.0344 41.6726 47.9576 41.5789C47.8809 41.4852 47.8222 41.3789 47.7833 41.2626C47.7445 41.1455 47.7246 41.0266 47.7246 40.904C47.7246 40.7815 47.7436 40.6616 47.7833 40.5436C47.8222 40.4265 47.88 40.3201 47.9576 40.2264C48.0353 40.1327 48.1311 40.0579 48.2458 40.0021C48.3614 39.9471 48.496 39.9192 48.6495 39.9192C48.776 39.9192 48.8844 39.9354 48.9756 39.9687C49.0668 40.0021 49.1427 40.0435 49.2041 40.0949C49.2656 40.1463 49.3152 40.1994 49.3523 40.2571C49.3893 40.3138 49.4173 40.3688 49.4354 40.4202C49.4534 40.4715 49.4697 40.5301 49.4832 40.5941H49.1788C49.1671 40.5409 49.1508 40.494 49.131 40.4544C49.1111 40.4148 49.0813 40.3751 49.0425 40.3364C49.0036 40.2976 48.9521 40.2643 48.8889 40.2382C48.8257 40.2111 48.7462 40.1976 48.6513 40.1976C48.5493 40.1976 48.4599 40.2174 48.3822 40.2571C48.3054 40.2967 48.2404 40.3508 48.1889 40.4175C48.1365 40.485 48.0986 40.5607 48.0733 40.6454C48.048 40.7301 48.0353 40.8166 48.0353 40.9049C48.0353 40.9932 48.048 41.0788 48.0733 41.1626C48.0986 41.2464 48.1365 41.3221 48.1889 41.3906C48.2404 41.459 48.3054 41.5131 48.3822 41.5528C48.459 41.5924 48.5493 41.6122 48.6513 41.6122C48.7462 41.6122 48.8257 41.5987 48.8889 41.5717C48.9521 41.5446 49.0036 41.5113 49.0425 41.4717C49.0813 41.432 49.1111 41.3924 49.131 41.3527C49.1508 41.3131 49.1671 41.2662 49.1788 41.2131H49.4832C49.4697 41.2788 49.4534 41.3374 49.4354 41.3879C49.4173 41.4383 49.3893 41.4933 49.3523 41.551C49.3152 41.6086 49.2656 41.6636 49.2041 41.714C49.1427 41.7654 49.0659 41.8068 48.9756 41.8393C48.8844 41.8717 48.776 41.8888 48.6495 41.8888V41.8879Z" fill="#024E82"/>
<path id="Vector_68" d="M50.8814 41.888C50.7269 41.888 50.5915 41.8601 50.4731 41.8042C50.3557 41.7484 50.2563 41.6727 50.1769 41.579C50.0974 41.4853 50.0378 41.3789 49.9971 41.2618C49.9565 41.1447 49.9375 41.0239 49.9375 40.9014C49.9375 40.7788 49.9574 40.659 49.9971 40.5428C50.0369 40.4256 50.0965 40.3211 50.1769 40.2283C50.2572 40.1355 50.3548 40.0607 50.4731 40.004C50.5906 39.9481 50.7269 39.9202 50.8814 39.9202C51.0359 39.9202 51.1741 39.9481 51.2915 40.004C51.4089 40.0598 51.5083 40.1346 51.5877 40.2283C51.6672 40.322 51.7268 40.4265 51.7675 40.5428C51.8072 40.659 51.8271 40.7788 51.8271 40.9014C51.8271 41.0239 51.8072 41.1438 51.7675 41.2618C51.7277 41.3789 51.6681 41.4853 51.5877 41.579C51.5074 41.6727 51.4098 41.7484 51.2915 41.8042C51.1741 41.8601 51.0368 41.888 50.8814 41.888ZM50.8814 41.6105C51.0196 41.6105 51.1361 41.5763 51.2292 41.5078C51.3231 41.4393 51.3935 41.351 51.4423 41.2438C51.4911 41.1357 51.5146 41.0212 51.5146 40.9005C51.5146 40.8104 51.501 40.7239 51.473 40.6401C51.445 40.5563 51.4053 40.4806 51.352 40.413C51.2987 40.3455 51.2337 40.2923 51.1542 40.2535C51.0756 40.2148 50.9844 40.195 50.8805 40.195C50.7766 40.195 50.6881 40.2148 50.6086 40.2535C50.53 40.2923 50.4641 40.3455 50.4108 40.413C50.3584 40.4806 50.3178 40.5563 50.2898 40.6401C50.2618 40.7239 50.2482 40.8104 50.2482 40.9005C50.2482 41.0212 50.2726 41.1357 50.3214 41.2438C50.3702 41.3519 50.4406 41.4402 50.5345 41.5078C50.6285 41.5754 50.7432 41.6105 50.8805 41.6105H50.8814Z" fill="#024E82"/>
<path id="Vector_69" d="M52.3486 41.8627V39.9453H52.6241L53.5671 41.3239V39.9453H53.8715V41.8627H53.5933L52.6503 40.4967V41.8627H52.3486Z" fill="#024E82"/>
<path id="Vector_70" d="M54.973 41.8627V40.2093H54.375V39.9453H55.8717V40.2093H55.2746V41.8627H54.973Z" fill="#024E82"/>
<path id="Vector_71" d="M56.375 41.8627V39.9453H56.6794V41.8627H56.375Z" fill="#024E82"/>
<path id="Vector_72" d="M57.2695 41.8627V39.9453H57.545L58.488 41.3239V39.9453H58.7924V41.8627H58.5142L57.5712 40.4967V41.8627H57.2695Z" fill="#024E82"/>
<path id="Vector_73" d="M60.1297 41.8879C59.9825 41.8879 59.8524 41.86 59.7404 41.8041C59.6284 41.7483 59.5399 41.6663 59.4767 41.5582C59.4134 41.45 59.3818 41.3176 59.3818 41.1608V39.9453H59.6862V41.1608C59.6862 41.2851 59.7224 41.3906 59.7955 41.4753C59.8678 41.5609 59.9798 41.6032 60.1306 41.6032C60.2815 41.6032 60.3953 41.56 60.4684 41.4753C60.5416 41.3897 60.5777 41.2851 60.5777 41.1608V39.9453H60.8821V41.1608C60.8821 41.3176 60.8505 41.4509 60.7873 41.5582C60.7241 41.6663 60.6356 41.7483 60.5226 41.8041C60.4097 41.86 60.2788 41.8879 60.1315 41.8879H60.1297Z" fill="#024E82"/>
<path id="Vector_74" d="M62.3462 41.888C62.1918 41.888 62.0563 41.8601 61.938 41.8042C61.8205 41.7484 61.7212 41.6727 61.6417 41.579C61.5622 41.4853 61.5026 41.3789 61.462 41.2618C61.4213 41.1447 61.4023 41.0239 61.4023 40.9014C61.4023 40.7788 61.4222 40.659 61.462 40.5428C61.5017 40.4256 61.5613 40.3211 61.6417 40.2283C61.7221 40.1355 61.8196 40.0607 61.938 40.004C62.0554 39.9481 62.1918 39.9202 62.3462 39.9202C62.5007 39.9202 62.6389 39.9481 62.7563 40.004C62.8737 40.0598 62.9731 40.1346 63.0526 40.2283C63.1321 40.322 63.1917 40.4265 63.2323 40.5428C63.2721 40.659 63.2919 40.7788 63.2919 40.9014C63.2919 41.0239 63.2721 41.1438 63.2323 41.2618C63.1926 41.3789 63.133 41.4853 63.0526 41.579C62.9722 41.6727 62.8746 41.7484 62.7563 41.8042C62.6389 41.8601 62.5016 41.888 62.3462 41.888ZM62.3462 41.6105C62.4844 41.6105 62.601 41.5763 62.694 41.5078C62.787 41.4393 62.8584 41.351 62.9072 41.2438C62.9559 41.1357 62.9794 41.0212 62.9794 40.9005C62.9794 40.8104 62.9659 40.7239 62.9379 40.6401C62.9099 40.5563 62.8701 40.4806 62.8168 40.413C62.7635 40.3455 62.6985 40.2923 62.619 40.2535C62.5404 40.2148 62.4492 40.195 62.3453 40.195C62.2415 40.195 62.1529 40.2148 62.0735 40.2535C61.9949 40.2923 61.9289 40.3455 61.8756 40.413C61.8233 40.4806 61.7826 40.5563 61.7546 40.6401C61.7266 40.7239 61.7131 40.8104 61.7131 40.9005C61.7131 41.0212 61.7375 41.1357 61.7862 41.2438C61.835 41.3519 61.9055 41.4402 61.9994 41.5078C62.0933 41.5763 62.208 41.6105 62.3453 41.6105H62.3462Z" fill="#024E82"/>
<path id="Vector_75" d="M64.5614 41.8879C64.4141 41.8879 64.2841 41.86 64.1721 41.8041C64.0592 41.7483 63.9715 41.6663 63.9083 41.5582C63.8451 41.45 63.8135 41.3176 63.8135 41.1608V39.9453H64.1179V41.1608C64.1179 41.2851 64.154 41.3906 64.2272 41.4753C64.2994 41.5609 64.4114 41.6032 64.5623 41.6032C64.7131 41.6032 64.8269 41.56 64.9001 41.4753C64.9733 41.3897 65.0094 41.2851 65.0094 41.1608V39.9453H65.3138V41.1608C65.3138 41.3176 65.2822 41.4509 65.2189 41.5582C65.1557 41.6663 65.0672 41.7483 64.9543 41.8041C64.8405 41.86 64.7104 41.8879 64.5632 41.8879H64.5614Z" fill="#024E82"/>
<path id="Vector_76" d="M66.5691 41.888C66.4544 41.888 66.3559 41.8736 66.2746 41.8438C66.1924 41.8141 66.1247 41.7772 66.0705 41.7312C66.0163 41.6853 65.9738 41.6366 65.9422 41.5843C65.9106 41.533 65.8862 41.4834 65.8709 41.4384C65.8555 41.3924 65.8429 41.3402 65.832 41.2816H66.1409C66.1518 41.3284 66.1644 41.3681 66.1798 41.4023C66.1951 41.4357 66.2195 41.4699 66.2511 41.5032C66.2828 41.5375 66.3252 41.5654 66.3785 41.5888C66.4309 41.6123 66.4986 41.624 66.5799 41.624C66.701 41.624 66.7958 41.5952 66.8644 41.5384C66.9331 41.4816 66.9674 41.4086 66.9674 41.3203C66.9674 41.2447 66.9421 41.1852 66.8906 41.1428C66.8392 41.1005 66.7642 41.0681 66.6657 41.0455L66.411 40.9861C66.3162 40.9653 66.2277 40.9347 66.1473 40.8942C66.0669 40.8536 66.0018 40.7986 65.9522 40.7293C65.9025 40.6599 65.8781 40.5725 65.8781 40.4671C65.8781 40.3526 65.9061 40.2553 65.963 40.1733C66.019 40.0913 66.0976 40.0283 66.1969 39.9841C66.2963 39.94 66.4101 39.9183 66.5384 39.9183C66.6666 39.9183 66.766 39.9373 66.8473 39.9742C66.9286 40.0111 66.9936 40.0571 67.0424 40.1103C67.0912 40.1634 67.1264 40.2175 67.1499 40.2724C67.1734 40.3274 67.1923 40.3914 67.2059 40.4653H66.9096C66.8961 40.4085 66.8762 40.3607 66.8509 40.3229C66.8256 40.2851 66.7877 40.2517 66.7362 40.2229C66.6847 40.1941 66.6161 40.1805 66.5293 40.1805C66.4101 40.1805 66.3207 40.2085 66.262 40.2634C66.2033 40.3184 66.1735 40.3797 66.1735 40.4472C66.1735 40.5148 66.1988 40.5653 66.2493 40.604C66.2999 40.6428 66.3668 40.6716 66.4517 40.6905L66.7244 40.7554C66.8247 40.7779 66.9159 40.8113 66.9981 40.8563C67.0803 40.9014 67.1454 40.9608 67.1941 41.0338C67.2429 41.1068 67.2673 41.1969 67.2673 41.3023C67.2673 41.4077 67.2411 41.5078 67.1878 41.5961C67.1345 41.6844 67.0568 41.7555 66.953 41.8087C66.8491 41.8619 66.7208 41.888 66.5682 41.888H66.5691Z" fill="#024E82"/>
<path id="Vector_77" d="M67.7725 41.8627V39.9453H68.0769V41.5987H69.0488V41.8627H67.7734H67.7725Z" fill="#024E82"/>
<path id="Vector_78" d="M69.7471 41.8628V41.1888L69.0742 39.9445H69.4066L69.898 40.8797L70.3912 39.9445H70.7236L70.0479 41.1888V41.8628H69.7462H69.7471Z" fill="#024E82"/>
<path id="Vector_79" d="M71.1885 42.1988L71.3863 41.8799C71.3375 41.8763 71.2978 41.8582 71.2653 41.824C71.2327 41.7898 71.2174 41.7483 71.2174 41.6978C71.2174 41.6429 71.2363 41.5978 71.2734 41.5645C71.3104 41.5303 71.3556 41.514 71.4071 41.514C71.4586 41.514 71.5064 41.5312 71.5435 41.5645C71.5805 41.5978 71.5995 41.6447 71.5995 41.7033C71.5995 41.7564 71.5805 41.8177 71.5407 41.8844C71.5019 41.9519 71.4378 42.0474 71.3475 42.1718L71.3294 42.1979H71.1894L71.1885 42.1988Z" fill="#024E82"/>
<path id="Vector_80" d="M72.9893 41.8627V39.9453H73.6468C73.8013 39.9453 73.9359 39.9723 74.0524 40.0273C74.168 40.0814 74.2647 40.1544 74.3423 40.2463C74.4191 40.3382 74.4778 40.4409 74.5167 40.5544C74.5555 40.6688 74.5754 40.7851 74.5754 40.904C74.5754 41.0229 74.5555 41.1401 74.5167 41.2536C74.4778 41.368 74.42 41.4708 74.3423 41.5618C74.2647 41.6528 74.1689 41.7266 74.0524 41.7807C73.9368 41.8348 73.8013 41.8627 73.6468 41.8627H72.9893ZM73.6333 40.2093H73.2928V41.596H73.6333C73.7408 41.596 73.8338 41.5762 73.9142 41.5374C73.9937 41.4987 74.0596 41.4455 74.112 41.3789C74.1644 41.3122 74.2032 41.2383 74.2303 41.1563C74.2574 41.0743 74.271 40.9896 74.271 40.904C74.271 40.8184 74.2574 40.7328 74.2303 40.6499C74.2032 40.567 74.1644 40.4931 74.112 40.4274C74.0605 40.3616 73.9946 40.3093 73.9142 40.2688C73.8338 40.2282 73.7408 40.2093 73.6333 40.2093Z" fill="#024E82"/>
<path id="Vector_81" d="M75.0956 41.8627V39.9453H76.3503V40.2093H75.3991V40.7562H76.2301V41.0184H75.3991V41.5987H76.3629V41.8627H75.0947H75.0956Z" fill="#024E82"/>
<path id="Vector_82" d="M77.4603 41.8627L76.79 39.9453H77.1098L77.6581 41.5392L78.2036 39.9453H78.5234L77.8505 41.8627H77.4612H77.4603Z" fill="#024E82"/>
<path id="Vector_83" d="M78.9823 41.8627V39.9453H80.237V40.2093H79.2858V40.7562H80.1168V41.0184H79.2858V41.5987H80.2496V41.8627H78.9814H78.9823Z" fill="#024E82"/>
<path id="Vector_84" d="M80.8057 41.8627V39.9453H81.1101V41.5987H82.082V41.8627H80.8066H80.8057Z" fill="#024E82"/>
<path id="Vector_85" d="M83.3521 41.888C83.1976 41.888 83.0622 41.8601 82.9438 41.8042C82.8264 41.7484 82.7271 41.6727 82.6476 41.579C82.5681 41.4853 82.5085 41.3789 82.4678 41.2618C82.4272 41.1447 82.4082 41.0239 82.4082 40.9014C82.4082 40.7788 82.4281 40.659 82.4678 40.5428C82.5076 40.4256 82.5672 40.3211 82.6476 40.2283C82.728 40.1355 82.8255 40.0607 82.9438 40.004C83.0613 39.9481 83.1976 39.9202 83.3521 39.9202C83.5066 39.9202 83.6448 39.9481 83.7622 40.004C83.8796 40.0598 83.979 40.1346 84.0584 40.2283C84.1379 40.322 84.1975 40.4265 84.2382 40.5428C84.2779 40.659 84.2978 40.7788 84.2978 40.9014C84.2978 41.0239 84.2779 41.1438 84.2382 41.2618C84.1985 41.3789 84.1388 41.4853 84.0584 41.579C83.979 41.6727 83.8805 41.7484 83.7622 41.8042C83.6439 41.8601 83.5075 41.888 83.3521 41.888ZM83.3521 41.6105C83.4903 41.6105 83.6068 41.5763 83.6999 41.5078C83.7929 41.4393 83.8642 41.351 83.913 41.2438C83.9618 41.1357 83.9853 41.0212 83.9853 40.9005C83.9853 40.8104 83.9717 40.7239 83.9437 40.6401C83.9157 40.5563 83.876 40.4806 83.8227 40.413C83.7694 40.3455 83.7044 40.2923 83.6249 40.2535C83.5463 40.2148 83.4551 40.195 83.3512 40.195C83.2473 40.195 83.1588 40.2148 83.0793 40.2535C83.0007 40.2923 82.9348 40.3455 82.8815 40.413C82.8291 40.4806 82.7885 40.5563 82.7605 40.6401C82.7325 40.7239 82.7189 40.8104 82.7189 40.9005C82.7189 41.0212 82.7433 41.1357 82.7921 41.2438C82.8409 41.3519 82.9113 41.4402 83.0053 41.5078C83.0992 41.5754 83.2139 41.6105 83.3512 41.6105H83.3521Z" fill="#024E82"/>
<path id="Vector_86" d="M84.8193 41.8627V39.9453H85.5419C85.6928 39.9453 85.8183 39.9759 85.9186 40.0372C86.0189 40.0985 86.0947 40.1769 86.1444 40.2733C86.195 40.3697 86.2203 40.4697 86.2203 40.5751C86.2203 40.6806 86.195 40.7815 86.1444 40.8788C86.0938 40.9752 86.0189 41.0545 85.9186 41.1157C85.8183 41.177 85.6928 41.2077 85.5419 41.2077H85.1237V41.8636H84.8193V41.8627ZM85.5419 40.2093H85.1237V40.9428H85.5419C85.625 40.9428 85.6946 40.9247 85.7497 40.8896C85.8048 40.8545 85.8463 40.8085 85.8743 40.7517C85.9023 40.6959 85.9159 40.6373 85.9159 40.5769C85.9159 40.5166 85.9023 40.4553 85.8743 40.3994C85.8463 40.3436 85.8048 40.2976 85.7497 40.2625C85.6946 40.2273 85.625 40.2093 85.5419 40.2093Z" fill="#024E82"/>
<path id="Vector_87" d="M87.5107 41.8627V39.9453H87.8151V40.7535H88.675V39.9453H88.9794V41.8627H88.675V41.0229H87.8151V41.8627H87.5107Z" fill="#024E82"/>
<path id="Vector_88" d="M90.4439 41.888C90.2894 41.888 90.154 41.8601 90.0356 41.8042C89.9182 41.7484 89.8188 41.6727 89.7394 41.579C89.6599 41.4853 89.6003 41.3789 89.5596 41.2618C89.519 41.1447 89.5 41.0239 89.5 40.9014C89.5 40.7788 89.5199 40.659 89.5596 40.5428C89.5994 40.4256 89.659 40.3211 89.7394 40.2283C89.8197 40.1355 89.9173 40.0607 90.0356 40.004C90.1531 39.9481 90.2894 39.9202 90.4439 39.9202C90.5984 39.9202 90.7366 39.9481 90.854 40.004C90.9714 40.0598 91.0708 40.1346 91.1502 40.2283C91.2297 40.322 91.2893 40.4265 91.33 40.5428C91.3697 40.659 91.3896 40.7788 91.3896 40.9014C91.3896 41.0239 91.3697 41.1438 91.33 41.2618C91.2902 41.3789 91.2306 41.4853 91.1502 41.579C91.0699 41.6727 90.9723 41.7484 90.854 41.8042C90.7356 41.8601 90.5993 41.888 90.4439 41.888ZM90.4439 41.6105C90.5821 41.6105 90.6986 41.5763 90.7917 41.5078C90.8856 41.4393 90.956 41.351 91.0048 41.2438C91.0536 41.1357 91.0771 41.0212 91.0771 40.9005C91.0771 40.8104 91.0635 40.7239 91.0355 40.6401C91.0075 40.5563 90.9678 40.4806 90.9145 40.413C90.8612 40.3455 90.7962 40.2923 90.7167 40.2535C90.6381 40.2148 90.5469 40.195 90.443 40.195C90.3391 40.195 90.2506 40.2148 90.1711 40.2535C90.0925 40.2923 90.0266 40.3455 89.9733 40.413C89.9209 40.4806 89.8803 40.5563 89.8523 40.6401C89.8243 40.7239 89.8107 40.8104 89.8107 40.9005C89.8107 41.0212 89.8351 41.1357 89.8839 41.2438C89.9327 41.3519 90.0031 41.4402 90.097 41.5078C90.191 41.5754 90.3057 41.6105 90.443 41.6105H90.4439Z" fill="#024E82"/>
<path id="Vector_89" d="M91.9111 41.8627V39.9453H92.2155V41.5987H93.1874V41.8627H91.912H91.9111Z" fill="#024E82"/>
<path id="Vector_90" d="M93.7432 41.8627V39.9453H94.0476V41.8627H93.7432Z" fill="#024E82"/>
<path id="Vector_91" d="M95.3035 41.888C95.1887 41.888 95.0903 41.8736 95.009 41.8438C94.9268 41.8141 94.8591 41.7772 94.8049 41.7312C94.7507 41.6853 94.7082 41.6366 94.6766 41.5843C94.645 41.533 94.6206 41.4834 94.6052 41.4384C94.5899 41.3924 94.5772 41.3402 94.5664 41.2816H94.8753C94.8862 41.3284 94.8988 41.3681 94.9142 41.4023C94.9295 41.4357 94.9539 41.4699 94.9855 41.5032C95.0171 41.5375 95.0596 41.5654 95.1129 41.5888C95.1653 41.6123 95.233 41.624 95.3143 41.624C95.4353 41.624 95.5302 41.5952 95.5988 41.5384C95.6675 41.4816 95.7018 41.4086 95.7018 41.3203C95.7018 41.2447 95.6765 41.1852 95.625 41.1428C95.5735 41.1005 95.4986 41.0681 95.4001 41.0455L95.1454 40.9861C95.0505 40.9653 94.962 40.9347 94.8816 40.8942C94.8013 40.8536 94.7362 40.7986 94.6865 40.7293C94.6369 40.6599 94.6125 40.5725 94.6125 40.4671C94.6125 40.3526 94.6405 40.2553 94.6974 40.1733C94.7534 40.0913 94.832 40.0283 94.9313 39.9841C95.0307 39.94 95.1445 39.9183 95.2727 39.9183C95.401 39.9183 95.5004 39.9373 95.5817 39.9742C95.663 40.0111 95.728 40.0571 95.7768 40.1103C95.8255 40.1634 95.8608 40.2175 95.8842 40.2724C95.9077 40.3274 95.9267 40.3914 95.9403 40.4653H95.644C95.6304 40.4085 95.6106 40.3607 95.5853 40.3229C95.56 40.2851 95.522 40.2517 95.4706 40.2229C95.4191 40.1941 95.3504 40.1805 95.2637 40.1805C95.1445 40.1805 95.0551 40.2085 94.9964 40.2634C94.9376 40.3184 94.9078 40.3797 94.9078 40.4472C94.9078 40.5148 94.9331 40.5653 94.9837 40.604C95.0343 40.6428 95.1011 40.6716 95.186 40.6905L95.4588 40.7554C95.5591 40.7779 95.6503 40.8113 95.7325 40.8563C95.8147 40.9014 95.8797 40.9608 95.9285 41.0338C95.9773 41.1068 96.0017 41.1969 96.0017 41.3023C96.0017 41.4077 95.9755 41.5078 95.9222 41.5961C95.8689 41.6844 95.7912 41.7555 95.6873 41.8087C95.5835 41.8619 95.4552 41.888 95.3025 41.888H95.3035Z" fill="#024E82"/>
<path id="Vector_92" d="M96.9671 41.8627V40.2093H96.3691V39.9453H97.8658V40.2093H97.2688V41.8627H96.9671Z" fill="#024E82"/>
<path id="Vector_93" d="M98.3691 41.8627V39.9453H98.6735V41.8627H98.3691Z" fill="#024E82"/>
<path id="Vector_94" d="M100.121 41.8879C99.9668 41.8879 99.8322 41.86 99.7175 41.8041C99.6027 41.7483 99.5061 41.6726 99.4293 41.5789C99.3525 41.4852 99.2938 41.3789 99.255 41.2626C99.2162 41.1455 99.1963 41.0266 99.1963 40.904C99.1963 40.7815 99.2152 40.6616 99.255 40.5436C99.2938 40.4265 99.3516 40.3201 99.4293 40.2264C99.507 40.1327 99.6027 40.0579 99.7175 40.0021C99.8331 39.9471 99.9677 39.9192 100.121 39.9192C100.248 39.9192 100.356 39.9354 100.447 39.9687C100.539 40.0021 100.614 40.0435 100.676 40.0949C100.737 40.1463 100.787 40.1994 100.824 40.2571C100.861 40.3138 100.889 40.3688 100.907 40.4202C100.925 40.4715 100.941 40.5301 100.955 40.5941H100.651C100.639 40.5409 100.623 40.494 100.603 40.4544C100.583 40.4148 100.553 40.3751 100.514 40.3364C100.475 40.2976 100.424 40.2643 100.361 40.2382C100.297 40.2111 100.218 40.1976 100.123 40.1976C100.021 40.1976 99.9315 40.2174 99.8538 40.2571C99.7771 40.2967 99.712 40.3508 99.6606 40.4175C99.6082 40.485 99.5702 40.5607 99.5449 40.6454C99.5197 40.7301 99.507 40.8166 99.507 40.9049C99.507 40.9932 99.5197 41.0788 99.5449 41.1626C99.5702 41.2464 99.6082 41.3221 99.6606 41.3906C99.712 41.459 99.7771 41.5131 99.8538 41.5528C99.9306 41.5924 100.021 41.6122 100.123 41.6122C100.218 41.6122 100.297 41.5987 100.361 41.5717C100.424 41.5446 100.475 41.5113 100.514 41.4717C100.553 41.432 100.583 41.3924 100.603 41.3527C100.623 41.3131 100.639 41.2662 100.651 41.2131H100.955C100.941 41.2788 100.925 41.3374 100.907 41.3879C100.889 41.4383 100.861 41.4933 100.824 41.551C100.787 41.6086 100.737 41.6636 100.676 41.714C100.614 41.7654 100.538 41.8068 100.447 41.8393C100.356 41.8717 100.248 41.8888 100.121 41.8888V41.8879Z" fill="#024E82"/>
<path id="Vector_95" d="M101.279 41.8627L101.949 39.9453H102.339L103.012 41.8627H102.692L102.544 41.4329H101.746L101.598 41.8627H101.278H101.279ZM101.837 41.1626H102.453L102.147 40.2688L101.838 41.1626H101.837Z" fill="#024E82"/>
<path id="Vector_96" d="M103.508 41.8627V39.9453H103.812V41.5987H104.784V41.8627H103.509H103.508Z" fill="#024E82"/>
<path id="Vector_97" d="M105.34 41.8627V39.9453H105.644V41.5987H106.616V41.8627H105.341H105.34Z" fill="#024E82"/>
<path id="Vector_98" d="M107.314 41.8628V41.1888L106.641 39.9445H106.973L107.464 40.8797L107.958 39.9445H108.29L107.614 41.1888V41.8628H107.313H107.314Z" fill="#024E82"/>
</g>
</g>
</g>
</g>
</svg>
