<svg width="136" height="33" viewBox="0 0 136 33" fill="none" xmlns="http://www.w3.org/2000/svg">
<g id="Layer_1" clip-path="url(#clip0_5491_12023)">
<path id="Vector" d="M17.9541 15.9172C17.9541 18.1783 17.0127 19.8672 15.127 20.9839C13.5888 21.8852 11.6046 22.3344 9.17425 22.3344H0.0283203V1.37842H8.16214C9.60802 1.37842 10.6324 1.41226 11.2446 1.47686C12.3798 1.59991 13.3642 1.87063 14.201 2.29209C15.7761 3.08886 16.5667 4.4086 16.5667 6.24517C16.5667 8.33708 15.5453 9.83218 13.4996 10.7335V10.8474C16.4744 11.438 17.9603 13.1269 17.9603 15.9141L17.9541 15.9172ZM11.0324 7.30651C11.0324 6.39591 10.6386 5.79295 9.85105 5.49147C9.38037 5.31305 8.06985 5.22383 5.91027 5.22383H5.40267V9.65683H6.24866C8.17137 9.65683 9.37114 9.54915 9.85105 9.33381C10.6386 8.97696 11.0324 8.30324 11.0324 7.30651ZM12.3552 15.8403C12.3552 14.5974 11.7861 13.8129 10.6509 13.4838C10.1618 13.3423 8.80817 13.2715 6.58398 13.2715H5.40267V18.492H9.06043C11.2569 18.4828 12.3521 17.5999 12.3521 15.8403H12.3552Z" fill="#053CC8"/>
<path id="Vector_2" d="M25.8236 22.3313H20.7568V0.437012H25.8236V22.3313Z" fill="#053CC8"/>
<path id="Vector_3" d="M44.4901 22.3313H39.4234V20.587C38.4389 21.3284 37.6083 21.8545 36.9315 22.1621C36.0394 22.5651 35.0827 22.7681 34.0613 22.7681C30.4312 22.7681 28.6162 20.7839 28.6162 16.8154V6.53125H33.7106V14.3697C33.7106 16.0217 33.8552 17.1231 34.1475 17.6768C34.4951 18.3444 35.2672 18.6766 36.4701 18.6766C37.4453 18.6766 38.4297 18.3628 39.4264 17.7352V6.53125H44.4932V22.3344L44.4901 22.3313Z" fill="#053CC8"/>
<path id="Vector_4" d="M64.0283 15.3603H52.4336C52.5844 17.9137 54.3317 19.1873 57.6818 19.1873C59.7461 19.1873 61.5734 18.5812 63.17 17.3722H63.733V21.4391C61.5549 22.3128 59.3584 22.7466 57.1343 22.7466C54.1994 22.7466 51.886 22.1282 50.1971 20.8885C48.2744 19.4826 47.3115 17.3568 47.3115 14.5143C47.3115 11.6718 48.1421 9.706 49.8034 8.19552C51.3969 6.74965 53.5596 6.02979 56.2913 6.02979C61.4503 6.02979 64.0314 8.5493 64.0314 13.5853V15.3572L64.0283 15.3603ZM58.9893 12.3916C58.9339 10.2628 57.9003 9.19841 55.8853 9.19841C53.7226 9.19841 52.5721 10.2628 52.4305 12.3916H58.9862H58.9893Z" fill="#053CC8"/>
<path id="Vector_5" d="M91.5496 22.322H86.043C85.9076 22.322 85.7815 22.2574 85.7015 22.1498L80.2441 14.8096C80.1641 14.702 80.038 14.6374 79.9026 14.6374H78.0507C77.8169 14.6374 77.6262 14.8281 77.6262 15.0619V21.8944C77.6262 22.1282 77.4354 22.319 77.2016 22.319H72.6794C72.4456 22.319 72.2549 22.1282 72.2549 21.8944V1.79367C72.2549 1.55987 72.4456 1.36914 72.6794 1.36914H81.3147C83.865 1.36914 85.7661 1.74445 87.012 2.49508C88.7286 3.52565 89.5869 5.06997 89.5869 7.12496C89.5869 9.77368 88.3533 11.7702 85.883 13.1146C85.6523 13.2407 85.5846 13.536 85.7446 13.7421L91.888 21.6329C92.1065 21.9129 91.9065 22.319 91.5527 22.319L91.5496 22.322ZM83.9972 7.78637C83.9972 6.68812 83.5204 5.94365 82.5637 5.54988C82.0376 5.33453 81.044 5.22686 79.5796 5.22686H78.0507C77.8169 5.22686 77.6262 5.41759 77.6262 5.65139V10.4412C77.6262 10.675 77.8169 10.8658 78.0507 10.8658H79.2843C81.0963 10.8658 82.3053 10.632 82.9144 10.1613C83.6373 9.60756 83.9972 8.81386 83.9972 7.78329V7.78637Z" fill="#FDB62F"/>
<path id="Vector_6" d="M98.5382 4.27935H94.0437C93.8099 4.27935 93.6191 4.08862 93.6191 3.85482V0.861545C93.6191 0.627744 93.8099 0.437012 94.0437 0.437012H98.5382C98.772 0.437012 98.9627 0.627744 98.9627 0.861545V3.85174C98.9627 4.08554 98.772 4.27627 98.5382 4.27627V4.27935ZM98.3967 22.3343H94.1821C93.9483 22.3343 93.7576 22.1436 93.7576 21.9098V6.95576C93.7576 6.72196 93.9483 6.53122 94.1821 6.53122H98.3967C98.6305 6.53122 98.8212 6.72196 98.8212 6.95576V21.9067C98.8212 22.1405 98.6305 22.3313 98.3967 22.3313V22.3343Z" fill="#FDB62F"/>
<path id="Vector_7" d="M116.495 17.3229C116.495 19.2364 115.554 20.6761 113.668 21.6421C112.203 22.3927 110.413 22.7681 108.293 22.7681C105.86 22.7681 103.747 22.3835 101.962 21.6144C101.805 21.5467 101.707 21.3899 101.707 21.2207V17.3353H102.039C102.125 17.3353 102.208 17.3629 102.276 17.4122C104.168 18.7319 106.208 19.3902 108.389 19.3902C110.339 19.3902 111.314 18.9534 111.314 18.0828C111.314 17.6337 111.074 17.2983 110.598 17.083C110.345 16.9692 109.912 16.8615 109.296 16.76C108.681 16.6585 107.586 16.44 106.011 16.1139C103.187 15.4187 101.775 13.8498 101.775 11.401C101.775 9.56136 102.713 8.17086 104.59 7.22335C106.072 6.47272 107.82 6.09741 109.838 6.09741C112 6.09741 113.892 6.43581 115.517 7.1126C115.677 7.1772 115.775 7.33717 115.775 7.50945V11.2226H115.464C115.381 11.2226 115.301 11.198 115.231 11.1518C113.572 10.0351 111.779 9.4783 109.847 9.4783C107.915 9.4783 106.949 9.90899 106.949 10.7734C106.949 11.2626 107.201 11.6225 107.709 11.8563C107.961 11.9701 108.432 12.0901 109.115 12.2224C109.761 12.327 110.914 12.5516 112.576 12.8961C115.184 13.5237 116.489 15.0034 116.489 17.3291L116.495 17.3229Z" fill="#FDB62F"/>
<path id="Vector_8" d="M135.544 15.3787H124.851C124.589 15.3787 124.389 15.6156 124.429 15.8771C124.771 18.0982 126.503 19.2088 129.625 19.2088C131.64 19.2088 133.434 18.6304 135.003 17.4768C135.074 17.4245 135.16 17.3937 135.249 17.3937C135.483 17.3937 135.673 17.5845 135.673 17.8183V21.1653C135.673 21.3407 135.563 21.5037 135.4 21.5652C133.314 22.3651 131.204 22.765 129.075 22.765C126.14 22.765 123.826 22.1467 122.138 20.9069C120.215 19.501 119.252 17.3753 119.252 14.5327C119.252 11.6902 120.083 9.72443 121.744 8.21396C123.337 6.76808 125.5 6.04822 128.232 6.04822C133.391 6.04822 135.972 8.56773 135.972 13.6037V14.9511C135.972 15.1849 135.781 15.3757 135.547 15.3757L135.544 15.3787ZM130.477 12.4101C130.733 12.4101 130.93 12.1855 130.902 11.9332C130.711 10.1213 129.687 9.21376 127.829 9.21376C125.841 9.21376 124.706 10.1151 124.429 11.9148C124.389 12.1732 124.589 12.4101 124.851 12.4101H130.474H130.477Z" fill="#FDB62F"/>
<g id="Group">
<path id="Vector_9" d="M1.67703 27.4841C1.12944 27.4841 0.769513 27.7733 0.769513 28.1671C0.769513 28.61 1.25865 28.77 1.56628 28.85L1.98466 28.9638C2.4092 29.0776 3.14137 29.3268 3.14137 30.0959C3.14137 30.7635 2.60301 31.2865 1.6555 31.2865C0.77259 31.2865 0.225003 30.8281 0.175781 30.1544H0.689529C0.729521 30.622 1.16328 30.8373 1.65242 30.8373C2.22462 30.8373 2.65838 30.5389 2.65838 30.0898C2.65838 29.6806 2.27384 29.5268 1.84008 29.4068L1.33248 29.2622C0.689529 29.0776 0.286529 28.7485 0.286529 28.1947C0.286529 27.5026 0.904872 27.0442 1.69241 27.0442C2.47995 27.0442 3.06138 27.5087 3.08291 28.1301H2.59993C2.55071 27.7241 2.1754 27.4872 1.67703 27.4872V27.4841Z" fill="#053CC8"/>
<path id="Vector_10" d="M4.40918 27.2933C4.40918 27.118 4.563 26.9734 4.74758 26.9734C4.93216 26.9734 5.08597 27.118 5.08597 27.2933C5.08597 27.4687 4.93216 27.6133 4.74758 27.6133C4.563 27.6133 4.40918 27.4687 4.40918 27.2933ZM4.50455 28.1301H4.9783V31.2157H4.50455V28.1301Z" fill="#053CC8"/>
<path id="Vector_11" d="M6.45132 28.127H6.90969V28.61H6.94968C7.07889 28.2808 7.37422 28.087 7.77722 28.087C8.18022 28.087 8.45093 28.2808 8.60475 28.61H8.63551C8.79548 28.2901 9.1185 28.087 9.55841 28.087C10.1091 28.087 10.4998 28.4224 10.4998 29.1484V31.2126H10.026V29.1484C10.026 28.6931 9.73684 28.5146 9.39844 28.5146C8.96468 28.5146 8.7155 28.8069 8.7155 29.2068V31.2157H8.23251V29.1022C8.23251 28.7515 7.98026 28.5146 7.62032 28.5146C7.26039 28.5146 6.922 28.8346 6.922 29.2868V31.2157H6.44824V28.1301L6.45132 28.127Z" fill="#053CC8"/>
<path id="Vector_12" d="M11.9796 28.127H12.438V28.6162H12.4934C12.598 28.4562 12.7826 28.087 13.3855 28.087C14.1638 28.087 14.7022 28.7054 14.7022 29.6775C14.7022 30.6496 14.1638 31.2772 13.3917 31.2772C12.7979 31.2772 12.5949 30.908 12.4903 30.7388H12.4503V32.3693H11.9766V28.127H11.9796ZM13.3301 30.8527C13.9239 30.8527 14.2315 30.3297 14.2315 29.6713C14.2315 29.013 13.9331 28.5146 13.3301 28.5146C12.7272 28.5146 12.4472 28.9822 12.4472 29.6713C12.4472 30.3604 12.761 30.8527 13.3301 30.8527Z" fill="#053CC8"/>
<path id="Vector_13" d="M16.5109 31.2127H16.0371V27.0996H16.5109V31.2127Z" fill="#053CC8"/>
<path id="Vector_14" d="M17.8428 29.6959C17.8428 28.7484 18.3965 28.0901 19.2333 28.0901C19.8762 28.0901 20.5592 28.4839 20.5592 29.6344V29.8344H18.3196C18.3411 30.4958 18.7257 30.8557 19.2825 30.8557C19.6547 30.8557 19.9347 30.6957 20.0547 30.3727L20.513 30.5019C20.3684 30.9665 19.9101 31.2802 19.2825 31.2802C18.3904 31.2802 17.8428 30.6465 17.8428 29.6959ZM20.0762 29.4221C20.0762 28.8992 19.747 28.5146 19.2333 28.5146C18.6918 28.5146 18.3504 28.9422 18.3196 29.4221H20.0762Z" fill="#053CC8"/>
<path id="Vector_15" d="M24.0879 28.127H24.5463V28.61H24.5863C24.7155 28.2808 25.0108 28.087 25.4138 28.087C25.8168 28.087 26.0875 28.2808 26.2413 28.61H26.2721C26.4321 28.2901 26.7551 28.087 27.195 28.087C27.7456 28.087 28.1363 28.4224 28.1363 29.1484V31.2126H27.6626V29.1484C27.6626 28.6931 27.3734 28.5146 27.035 28.5146C26.6013 28.5146 26.3521 28.8069 26.3521 29.2068V31.2157H25.8691V29.1022C25.8691 28.7515 25.6168 28.5146 25.26 28.5146C24.9031 28.5146 24.5616 28.8346 24.5616 29.2868V31.2157H24.0879V28.1301V28.127Z" fill="#053CC8"/>
<path id="Vector_16" d="M29.4717 30.3389C29.4717 29.6313 30.0962 29.5052 30.6684 29.4314C31.2313 29.3575 31.4651 29.3791 31.4651 29.1514V29.136C31.4651 28.7392 31.2498 28.5085 30.813 28.5085C30.3761 28.5085 30.1146 28.7484 30.01 28.973L29.5609 28.813C29.8008 28.2501 30.3331 28.0901 30.7976 28.0901C31.1913 28.0901 31.9389 28.2039 31.9389 29.1822V31.2156H31.4651V30.7973H31.4405C31.3452 30.9972 31.0621 31.2864 30.5238 31.2864C29.9362 31.2864 29.4717 30.9418 29.4717 30.3389ZM31.4651 30.0989V29.6652C31.3852 29.7605 30.8468 29.819 30.6468 29.8405C30.2777 29.8897 29.9485 30.0005 29.9485 30.3635C29.9485 30.6927 30.2223 30.8619 30.6007 30.8619C31.1637 30.8619 31.4682 30.4835 31.4682 30.0989H31.4651Z" fill="#053CC8"/>
<path id="Vector_17" d="M33.8898 31.2126H33.416V28.127H33.8744V28.61H33.9144C34.059 28.2962 34.3481 28.087 34.8157 28.087C35.4402 28.087 35.8617 28.4654 35.8617 29.253V31.2126H35.3879V29.2837C35.3879 28.8007 35.1203 28.5116 34.6804 28.5116C34.2405 28.5116 33.8928 28.8161 33.8928 29.3545V31.2095L33.8898 31.2126Z" fill="#053CC8"/>
<path id="Vector_18" d="M37.1904 30.3389C37.1904 29.6313 37.8149 29.5052 38.3871 29.4314C38.9501 29.3575 39.1839 29.3791 39.1839 29.1514V29.136C39.1839 28.7392 38.9685 28.5085 38.5317 28.5085C38.0949 28.5085 37.8334 28.7484 37.7288 28.973L37.2796 28.813C37.5196 28.2501 38.0518 28.0901 38.5163 28.0901C38.9101 28.0901 39.6576 28.2039 39.6576 29.1822V31.2156H39.1839V30.7973H39.1593C39.0639 30.9972 38.7809 31.2864 38.2425 31.2864C37.655 31.2864 37.1904 30.9418 37.1904 30.3389ZM39.1839 30.0989V29.6652C39.1039 29.7605 38.5655 29.819 38.3656 29.8405C37.9964 29.8897 37.6673 30.0005 37.6673 30.3635C37.6673 30.6927 37.9411 30.8619 38.3194 30.8619C38.8824 30.8619 39.187 30.4835 39.187 30.0989H39.1839Z" fill="#053CC8"/>
<path id="Vector_19" d="M41.1185 31.8155L41.4969 31.551C41.623 31.7232 41.8199 32.0186 42.3798 32.0186C42.8781 32.0186 43.2411 31.7848 43.2411 31.271V30.6434H43.2011C43.0965 30.8126 42.9027 31.1664 42.2998 31.1664C41.5522 31.1664 40.9893 30.6188 40.9893 29.6559C40.9893 28.6931 41.5276 28.0901 42.3059 28.0901C42.9089 28.0901 43.1027 28.4592 43.2073 28.6192H43.2565V28.1301H43.7149V31.3049C43.7149 32.1016 43.1212 32.4369 42.3798 32.4369C41.6907 32.4369 41.3123 32.1416 41.1185 31.8186V31.8155ZM43.2473 29.6467C43.2473 28.9791 42.9427 28.5146 42.3644 28.5146C41.786 28.5146 41.463 29.0222 41.463 29.6467C41.463 30.2712 41.7676 30.7388 42.3644 30.7388C42.9612 30.7388 43.2473 30.3297 43.2473 29.6467Z" fill="#053CC8"/>
<path id="Vector_20" d="M45.0469 29.6959C45.0469 28.7484 45.6006 28.0901 46.4374 28.0901C47.0803 28.0901 47.7633 28.4839 47.7633 29.6344V29.8344H45.5237C45.5452 30.4958 45.9298 30.8557 46.4866 30.8557C46.8588 30.8557 47.1388 30.6957 47.2588 30.3727L47.7171 30.5019C47.5725 30.9665 47.1142 31.2802 46.4866 31.2802C45.5945 31.2802 45.0469 30.6465 45.0469 29.6959ZM47.2803 29.4221C47.2803 28.8992 46.9511 28.5146 46.4374 28.5146C45.8959 28.5146 45.5545 28.9422 45.5237 29.4221H47.2803Z" fill="#053CC8"/>
<path id="Vector_21" d="M49.0958 28.127H49.5542V28.61H49.5942C49.7234 28.2808 50.0187 28.087 50.4217 28.087C50.8247 28.087 51.0955 28.2808 51.2493 28.61H51.28C51.44 28.2901 51.763 28.087 52.2029 28.087C52.7536 28.087 53.1443 28.4224 53.1443 29.1484V31.2126H52.6705V29.1484C52.6705 28.6931 52.3814 28.5146 52.043 28.5146C51.6092 28.5146 51.36 28.8069 51.36 29.2068V31.2157H50.877V29.1022C50.877 28.7515 50.6248 28.5146 50.2649 28.5146C49.9049 28.5146 49.5665 28.8346 49.5665 29.2868V31.2157H49.0928V28.1301L49.0958 28.127Z" fill="#053CC8"/>
<path id="Vector_22" d="M54.4795 29.6959C54.4795 28.7484 55.0332 28.0901 55.87 28.0901C56.5129 28.0901 57.1959 28.4839 57.1959 29.6344V29.8344H54.9563C54.9779 30.4958 55.3624 30.8557 55.9192 30.8557C56.2914 30.8557 56.5714 30.6957 56.6914 30.3727L57.1497 30.5019C57.0052 30.9665 56.5468 31.2802 55.9192 31.2802C55.0271 31.2802 54.4795 30.6465 54.4795 29.6959ZM56.7129 29.4221C56.7129 28.8992 56.3837 28.5146 55.87 28.5146C55.3286 28.5146 54.9871 28.9422 54.9563 29.4221H56.7129Z" fill="#053CC8"/>
<path id="Vector_23" d="M59.0011 31.2126H58.5273V28.127H58.9857V28.61H59.0257C59.1703 28.2962 59.4595 28.087 59.9271 28.087C60.5516 28.087 60.973 28.4654 60.973 29.253V31.2126H60.4993V29.2837C60.4993 28.8007 60.2316 28.5116 59.7917 28.5116C59.3518 28.5116 59.0042 28.8161 59.0042 29.3545V31.2095L59.0011 31.2126Z" fill="#053CC8"/>
<path id="Vector_24" d="M63.7883 28.53H63.13V30.3297C63.13 30.7327 63.3299 30.7942 63.5391 30.7942C63.6437 30.7942 63.7083 30.7788 63.7483 30.7696L63.8437 31.1941C63.7791 31.2188 63.6653 31.2495 63.4899 31.2495C63.0869 31.2495 62.6532 30.9911 62.6532 30.4527V28.5239H62.1855V28.1209H62.6532V27.3826H63.1269V28.1209H63.7852V28.5239L63.7883 28.53Z" fill="#053CC8"/>
<path id="Vector_25" d="M69.076 29.3791H67.2764V28.9362H69.076V29.3791Z" fill="#053CC8"/>
<path id="Vector_26" d="M73.3769 27.0996L74.7767 30.5143H74.8259L76.2256 27.0996H76.8193V31.2127H76.3517V28.0871H76.3118L75.0258 31.2127H74.5767L73.2908 28.0871H73.2508V31.2127H72.7832V27.0996H73.3769Z" fill="#053CC8"/>
<path id="Vector_27" d="M78.2158 30.3389C78.2158 29.6313 78.8403 29.5052 79.4125 29.4314C79.9755 29.3575 80.2093 29.3791 80.2093 29.1514V29.136C80.2093 28.7392 79.9939 28.5085 79.5571 28.5085C79.1203 28.5085 78.8588 28.7484 78.7542 28.973L78.305 28.813C78.545 28.2501 79.0772 28.0901 79.5417 28.0901C79.9355 28.0901 80.683 28.2039 80.683 29.1822V31.2156H80.2093V30.7973H80.1847C80.0893 30.9972 79.8063 31.2864 79.2679 31.2864C78.6803 31.2864 78.2158 30.9418 78.2158 30.3389ZM80.2093 30.0989V29.6652C80.1293 29.7605 79.5909 29.819 79.391 29.8405C79.0218 29.8897 78.6927 30.0005 78.6927 30.3635C78.6927 30.6927 78.9664 30.8619 79.3448 30.8619C79.9078 30.8619 80.2124 30.4835 80.2124 30.0989H80.2093Z" fill="#053CC8"/>
<path id="Vector_28" d="M83.2517 29.3884L83.99 28.1271H84.5376L83.5409 29.6714L84.5376 31.2157H83.99L83.2517 30.019L82.5134 31.2157H81.9658L82.9472 29.6714L81.9658 28.1271H82.5134L83.2517 29.3884Z" fill="#053CC8"/>
<path id="Vector_29" d="M85.7256 27.2933C85.7256 27.118 85.8794 26.9734 86.064 26.9734C86.2486 26.9734 86.4024 27.118 86.4024 27.2933C86.4024 27.4687 86.2486 27.6133 86.064 27.6133C85.8794 27.6133 85.7256 27.4687 85.7256 27.2933ZM85.821 28.1301H86.2947V31.2157H85.821V28.1301Z" fill="#053CC8"/>
<path id="Vector_30" d="M87.7716 28.127H88.23V28.61H88.27C88.3992 28.2808 88.6945 28.087 89.0975 28.087C89.5005 28.087 89.7712 28.2808 89.9251 28.61H89.9558C90.1158 28.2901 90.4388 28.087 90.8787 28.087C91.4294 28.087 91.8201 28.4224 91.8201 29.1484V31.2126H91.3463V29.1484C91.3463 28.6931 91.0572 28.5146 90.7188 28.5146C90.285 28.5146 90.0358 28.8069 90.0358 29.2068V31.2157H89.5528V29.1022C89.5528 28.7515 89.3006 28.5146 88.9406 28.5146C88.5807 28.5146 88.2423 28.8346 88.2423 29.2868V31.2157H87.7686V28.1301L87.7716 28.127Z" fill="#053CC8"/>
<path id="Vector_31" d="M95.244 28.1271H95.7178V31.2126H95.244V30.6897H95.2133C95.0687 31.0034 94.7641 31.2526 94.2965 31.2526C93.7182 31.2526 93.2998 30.8742 93.2998 30.0867V28.1271H93.7736V30.0559C93.7736 30.5051 94.0535 30.7943 94.4473 30.7943C94.8011 30.7943 95.244 30.5297 95.244 29.9513V28.1271Z" fill="#053CC8"/>
<path id="Vector_32" d="M97.1943 28.127H97.6527V28.61H97.6927C97.8219 28.2808 98.1172 28.087 98.5202 28.087C98.9232 28.087 99.194 28.2808 99.3478 28.61H99.3785C99.5385 28.2901 99.8615 28.087 100.301 28.087C100.852 28.087 101.243 28.4224 101.243 29.1484V31.2126H100.769V29.1484C100.769 28.6931 100.48 28.5146 100.141 28.5146C99.7077 28.5146 99.4585 28.8069 99.4585 29.2068V31.2157H98.9755V29.1022C98.9755 28.7515 98.7233 28.5146 98.3664 28.5146C98.0096 28.5146 97.6681 28.8346 97.6681 29.2868V31.2157H97.1943V28.1301V28.127Z" fill="#053CC8"/>
<path id="Vector_33" d="M104.777 29.6959C104.777 28.7484 105.331 28.0901 106.168 28.0901C106.811 28.0901 107.494 28.4839 107.494 29.6344V29.8344H105.254C105.276 30.4958 105.66 30.8557 106.217 30.8557C106.589 30.8557 106.869 30.6957 106.989 30.3727L107.448 30.5019C107.303 30.9665 106.845 31.2802 106.217 31.2802C105.325 31.2802 104.777 30.6465 104.777 29.6959ZM107.011 29.4221C107.011 28.8992 106.682 28.5146 106.168 28.5146C105.626 28.5146 105.285 28.9422 105.254 29.4221H107.011Z" fill="#053CC8"/>
<path id="Vector_34" d="M110.197 28.5301H109.505V31.2126H109.032V28.5301H108.533V28.1271H109.032V27.7025C109.032 27.1734 109.456 26.9058 109.899 26.9058C110.133 26.9058 110.277 26.955 110.348 26.9857L110.213 27.3949C110.164 27.3795 110.084 27.3457 109.948 27.3457C109.635 27.3457 109.505 27.5056 109.505 27.8102V28.124H110.197V28.527V28.5301Z" fill="#053CC8"/>
<path id="Vector_35" d="M112.846 28.5301H112.154V31.2126H111.68V28.5301H111.182V28.1271H111.68V27.7025C111.68 27.1734 112.105 26.9058 112.548 26.9058C112.781 26.9058 112.926 26.955 112.997 26.9857L112.861 27.3949C112.812 27.3795 112.732 27.3457 112.597 27.3457C112.283 27.3457 112.154 27.5056 112.154 27.8102V28.124H112.846V28.527V28.5301Z" fill="#053CC8"/>
<path id="Vector_36" d="M114.024 27.2933C114.024 27.118 114.178 26.9734 114.363 26.9734C114.547 26.9734 114.701 27.118 114.701 27.2933C114.701 27.4687 114.547 27.6133 114.363 27.6133C114.178 27.6133 114.024 27.4687 114.024 27.2933ZM114.12 28.1301H114.594V31.2157H114.12V28.1301Z" fill="#053CC8"/>
<path id="Vector_37" d="M115.926 29.6867C115.926 28.7454 116.48 28.087 117.316 28.087C117.968 28.087 118.458 28.4716 118.538 29.0499H118.064C117.993 28.77 117.744 28.5116 117.326 28.5116C116.772 28.5116 116.403 28.9699 116.403 29.6683C116.403 30.3666 116.766 30.8496 117.326 30.8496C117.695 30.8496 117.978 30.6496 118.064 30.3112H118.538C118.458 30.8588 118.008 31.2741 117.326 31.2741C116.458 31.2741 115.926 30.6066 115.926 29.6837V29.6867Z" fill="#053CC8"/>
<path id="Vector_38" d="M119.74 27.2933C119.74 27.118 119.894 26.9734 120.079 26.9734C120.263 26.9734 120.417 27.118 120.417 27.2933C120.417 27.4687 120.263 27.6133 120.079 27.6133C119.894 27.6133 119.74 27.4687 119.74 27.2933ZM119.836 28.1301H120.309V31.2157H119.836V28.1301Z" fill="#053CC8"/>
<path id="Vector_39" d="M121.642 29.6959C121.642 28.7484 122.195 28.0901 123.032 28.0901C123.675 28.0901 124.358 28.4839 124.358 29.6344V29.8344H122.118C122.14 30.4958 122.525 30.8557 123.081 30.8557C123.454 30.8557 123.734 30.6957 123.853 30.3727L124.312 30.5019C124.167 30.9665 123.709 31.2802 123.081 31.2802C122.189 31.2802 121.642 30.6465 121.642 29.6959ZM123.875 29.4221C123.875 28.8992 123.546 28.5146 123.032 28.5146C122.491 28.5146 122.149 28.9422 122.118 29.4221H123.875Z" fill="#053CC8"/>
<path id="Vector_40" d="M126.164 31.2126H125.69V28.127H126.149V28.61H126.189C126.333 28.2962 126.623 28.087 127.09 28.087C127.715 28.087 128.136 28.4654 128.136 29.253V31.2126H127.662V29.2837C127.662 28.8007 127.395 28.5116 126.955 28.5116C126.515 28.5116 126.167 28.8161 126.167 29.3545V31.2095L126.164 31.2126Z" fill="#053CC8"/>
<path id="Vector_41" d="M129.465 29.6867C129.465 28.7454 130.019 28.087 130.855 28.087C131.508 28.087 131.997 28.4716 132.077 29.0499H131.603C131.532 28.77 131.283 28.5116 130.865 28.5116C130.311 28.5116 129.942 28.9699 129.942 29.6683C129.942 30.3666 130.305 30.8496 130.865 30.8496C131.234 30.8496 131.517 30.6496 131.603 30.3112H132.077C131.997 30.8588 131.548 31.2741 130.865 31.2741C129.997 31.2741 129.465 30.6066 129.465 29.6837V29.6867Z" fill="#053CC8"/>
<path id="Vector_42" d="M133.338 32.3139L133.458 31.8956C133.802 31.9848 134.018 31.9386 134.19 31.471L134.279 31.2311L133.138 28.1301H133.651L134.504 30.5881H134.534L135.386 28.1301H135.9L134.59 31.6648C134.411 32.1447 134.11 32.3724 133.682 32.3724C133.522 32.3724 133.384 32.3416 133.338 32.317V32.3139Z" fill="#053CC8"/>
</g>
</g>
<defs>
<clipPath id="clip0_5491_12023">
<rect width="135.943" height="32" fill="white" transform="translate(0.0283203 0.437012)"/>
</clipPath>
</defs>
</svg>
