<svg width="71" height="56" viewBox="0 0 71 56" fill="none" xmlns="http://www.w3.org/2000/svg">
<g id="bootstrap5">
<path id="Vector" fill-rule="evenodd" clip-rule="evenodd" d="M14.6011 0C10.59 0 7.62197 3.51078 7.75488 7.31813C7.88243 10.976 7.71671 15.7134 6.52412 19.5767C5.32727 23.451 3.30455 25.906 0 26.2211V29.7789C3.30455 30.0947 5.32727 32.5485 6.52398 36.4233C7.71671 40.2866 7.88229 45.024 7.75474 48.6819C7.62183 52.4887 10.5899 56 14.6017 56H55.7022C59.7133 56 62.6808 52.4892 62.5479 48.6819C62.4203 45.024 62.586 40.2866 63.7786 36.4233C64.9755 32.5485 66.9932 30.0937 70.2979 29.7789V26.2211C66.9934 25.9053 64.9756 23.4515 63.7786 19.5767C62.5859 15.7139 62.4203 10.976 62.5479 7.31813C62.6808 3.51133 59.7133 0 55.7022 0H14.6006H14.6011ZM47.6597 34.4717C47.6597 39.7142 43.7492 42.8937 37.2597 42.8937H26.2128C25.8967 42.8937 25.5937 42.7682 25.3702 42.5447C25.1468 42.3213 25.0213 42.0182 25.0213 41.7022V14.2979C25.0213 13.9819 25.1468 13.6789 25.3702 13.4554C25.5937 13.232 25.8967 13.1064 26.2128 13.1064H37.1968C42.608 13.1064 46.1592 16.0375 46.1592 20.5377C46.1592 23.6963 43.7702 26.524 40.7267 27.0194V27.1842C44.8699 27.6386 47.6597 30.5082 47.6597 34.4717ZM36.0552 16.8835H29.7563V25.7805H35.0615C39.1627 25.7805 41.424 24.1291 41.424 21.1773C41.4236 18.4109 39.4794 16.8835 36.0552 16.8835ZM29.7563 29.3107V39.1155H36.2869C40.557 39.1155 42.8187 37.4021 42.8187 34.1821C42.8187 30.9621 40.4935 29.3101 36.0123 29.3101H29.7563V29.3107Z" fill="#7952B3"/>
</g>
</svg>
