<svg width="20" height="21" viewBox="0 0 20 21" fill="none" xmlns="http://www.w3.org/2000/svg">
<g id="vuesax/linear/call">
<g id="call">
<g id="call_2">
<path id="Vector" d="M18.3057 15.5463C18.3057 15.8463 18.2391 16.1547 18.0974 16.4547C17.9557 16.7547 17.7724 17.038 17.5307 17.3047C17.1224 17.7547 16.6724 18.0797 16.1641 18.288C15.6641 18.4963 15.1224 18.6047 14.5391 18.6047C13.6891 18.6047 12.7807 18.4047 11.8224 17.9963C10.8641 17.588 9.90573 17.038 8.95573 16.3463C7.9974 15.6463 7.08906 14.8713 6.2224 14.013C5.36406 13.1463 4.58906 12.238 3.8974 11.288C3.21406 10.338 2.66406 9.38799 2.26406 8.44632C1.86406 7.49632 1.66406 6.58799 1.66406 5.72132C1.66406 5.15466 1.76406 4.61299 1.96406 4.11299C2.16406 3.60466 2.48073 3.13799 2.9224 2.72132C3.45573 2.19632 4.03906 1.93799 4.65573 1.93799C4.88906 1.93799 5.1224 1.98799 5.33073 2.08799C5.5474 2.18799 5.73906 2.33799 5.88906 2.55465L7.8224 5.27966C7.9724 5.48799 8.08073 5.67966 8.15573 5.86299C8.23073 6.03799 8.2724 6.21299 8.2724 6.37132C8.2724 6.57132 8.21406 6.77132 8.0974 6.96299C7.98906 7.15465 7.83073 7.35466 7.63073 7.55466L6.9974 8.21299C6.90573 8.30466 6.86406 8.41299 6.86406 8.54632C6.86406 8.61299 6.8724 8.67132 6.88906 8.73799C6.91406 8.80466 6.93906 8.85465 6.95573 8.90465C7.10573 9.17966 7.36406 9.53799 7.73073 9.97132C8.10573 10.4047 8.50573 10.8463 8.93906 11.288C9.38906 11.7297 9.8224 12.138 10.2641 12.513C10.6974 12.8797 11.0557 13.1297 11.3391 13.2797C11.3807 13.2963 11.4307 13.3213 11.4891 13.3463C11.5557 13.3713 11.6224 13.3797 11.6974 13.3797C11.8391 13.3797 11.9474 13.3297 12.0391 13.238L12.6724 12.613C12.8807 12.4047 13.0807 12.2463 13.2724 12.1463C13.4641 12.0297 13.6557 11.9713 13.8641 11.9713C14.0224 11.9713 14.1891 12.0047 14.3724 12.0797C14.5557 12.1547 14.7474 12.263 14.9557 12.4047L17.7141 14.363C17.9307 14.513 18.0807 14.688 18.1724 14.8963C18.2557 15.1047 18.3057 15.313 18.3057 15.5463Z" stroke="white" stroke-width="1.5" stroke-miterlimit="10"/>
</g>
</g>
</g>
</svg>
