<svg width="22" height="23" viewBox="0 0 22 23" fill="none" xmlns="http://www.w3.org/2000/svg">
<g id="vuesax/outline/call">
<g id="call">
<path id="Vector" d="M15.9955 21.3968C14.9597 21.3968 13.8688 21.1493 12.7413 20.6726C11.6413 20.2051 10.5322 19.5635 9.45051 18.7843C8.37801 17.996 7.34217 17.116 6.36134 16.1535C5.38967 15.1726 4.50967 14.1368 3.73051 13.0735C2.94217 11.9735 2.30967 10.8735 1.86051 9.81014C1.38384 8.67348 1.14551 7.57348 1.14551 6.53764C1.14551 5.82264 1.27384 5.14431 1.52134 4.51181C1.77801 3.86098 2.19051 3.25598 2.74967 2.73348C3.45551 2.03681 4.26217 1.68848 5.12384 1.68848C5.48134 1.68848 5.84801 1.77098 6.15967 1.91764C6.51717 2.08264 6.81967 2.33014 7.03967 2.66014L9.16634 5.65764C9.35884 5.92348 9.50551 6.18014 9.60634 6.43681C9.72551 6.71181 9.78967 6.98681 9.78967 7.25264C9.78967 7.60098 9.68884 7.94014 9.49634 8.26098C9.35884 8.50848 9.14801 8.77431 8.88217 9.04014L8.25884 9.69098C8.26801 9.71848 8.27717 9.73681 8.28634 9.75514C8.39634 9.94764 8.61634 10.2776 9.03801 10.7726C9.48717 11.286 9.90884 11.7535 10.3305 12.1843C10.8713 12.716 11.3205 13.1376 11.7422 13.486C12.2647 13.926 12.6038 14.146 12.8055 14.2468L12.7872 14.2926L13.4563 13.6326C13.7405 13.3485 14.0155 13.1376 14.2813 13.0001C14.7855 12.6885 15.4272 12.6335 16.0688 12.8993C16.3072 13.0001 16.5638 13.1376 16.8388 13.3301L19.8822 15.4935C20.2213 15.7226 20.4688 16.016 20.6155 16.3643C20.753 16.7126 20.8172 17.0335 20.8172 17.3543C20.8172 17.7943 20.7163 18.2343 20.5238 18.6468C20.3313 19.0593 20.093 19.4168 19.7905 19.7468C19.268 20.3243 18.6997 20.7368 18.0397 21.0026C17.4072 21.2593 16.7197 21.3968 15.9955 21.3968ZM5.12384 3.06348C4.61967 3.06348 4.15217 3.28348 3.70301 3.72348C3.28134 4.11764 2.98801 4.54848 2.80467 5.01598C2.61217 5.49264 2.52051 5.99681 2.52051 6.53764C2.52051 7.39014 2.72217 8.31598 3.12551 9.26931C3.53801 10.241 4.11551 11.2493 4.84884 12.2576C5.58217 13.266 6.41634 14.2468 7.33301 15.1726C8.24967 16.0801 9.23967 16.9235 10.2572 17.666C11.2472 18.3901 12.2647 18.9768 13.273 19.3985C14.8405 20.0676 16.3072 20.2235 17.5172 19.7193C17.9847 19.5268 18.3972 19.2335 18.773 18.8118C18.9838 18.5826 19.1488 18.3351 19.2863 18.0418C19.3963 17.8126 19.4513 17.5743 19.4513 17.336C19.4513 17.1893 19.4238 17.0426 19.3505 16.8776C19.323 16.8226 19.268 16.7218 19.0938 16.6026L16.0505 14.4393C15.8672 14.311 15.7022 14.2193 15.5463 14.1551C15.3447 14.0726 15.2622 13.9901 14.9505 14.1826C14.7672 14.2743 14.6022 14.4118 14.4188 14.5951L13.7222 15.2826C13.3647 15.631 12.8147 15.7135 12.393 15.5576L12.1455 15.4476C11.7697 15.246 11.3297 14.9343 10.8438 14.5218C10.4038 14.146 9.92717 13.706 9.34967 13.1376C8.90051 12.6793 8.45134 12.1935 7.98384 11.6526C7.55301 11.1485 7.24134 10.7176 7.04884 10.3601L6.93884 10.0851C6.88384 9.87431 6.86551 9.75514 6.86551 9.62681C6.86551 9.29681 6.98467 9.00348 7.21384 8.77431L7.90134 8.05931C8.08467 7.87598 8.22217 7.70181 8.31384 7.54598C8.38717 7.42681 8.41467 7.32598 8.41467 7.23431C8.41467 7.16098 8.38717 7.05098 8.34134 6.94098C8.27717 6.79431 8.17634 6.62931 8.04801 6.45514L5.92134 3.44848C5.82967 3.32014 5.71967 3.22848 5.58217 3.16431C5.43551 3.10014 5.27967 3.06348 5.12384 3.06348ZM12.7872 14.3018L12.6405 14.9251L12.888 14.2835C12.8422 14.2743 12.8055 14.2835 12.7872 14.3018Z" fill="white"/>
</g>
</g>
</svg>
