<svg width="20" height="21" viewBox="0 0 20 21" fill="none" xmlns="http://www.w3.org/2000/svg">
<g id="vuesax/linear/call">
<g id="call">
<g id="call_2">
<path id="Vector" d="M18.3087 15.5468C18.3087 15.8468 18.242 16.1551 18.1003 16.4551C17.9587 16.7551 17.7753 17.0385 17.5337 17.3051C17.1253 17.7551 16.6753 18.0801 16.167 18.2885C15.667 18.4968 15.1253 18.6051 14.542 18.6051C13.692 18.6051 12.7837 18.4051 11.8253 17.9968C10.867 17.5885 9.90866 17.0385 8.95866 16.3468C8.00033 15.6468 7.09199 14.8718 6.22533 14.0135C5.36699 13.1468 4.59199 12.2385 3.90033 11.2885C3.21699 10.3385 2.66699 9.38848 2.26699 8.44681C1.86699 7.49681 1.66699 6.58848 1.66699 5.72181C1.66699 5.15514 1.76699 4.61348 1.96699 4.11348C2.16699 3.60514 2.48366 3.13848 2.92533 2.72181C3.45866 2.19681 4.04199 1.93848 4.65866 1.93848C4.89199 1.93848 5.12533 1.98848 5.33366 2.08848C5.55033 2.18848 5.74199 2.33848 5.89199 2.55514L7.82533 5.28014C7.97533 5.48848 8.08366 5.68014 8.15866 5.86348C8.23366 6.03848 8.27533 6.21348 8.27533 6.37181C8.27533 6.57181 8.21699 6.77181 8.10033 6.96348C7.99199 7.15514 7.83366 7.35514 7.63366 7.55514L7.00033 8.21348C6.90866 8.30514 6.86699 8.41348 6.86699 8.54681C6.86699 8.61348 6.87533 8.67181 6.89199 8.73848C6.91699 8.80514 6.94199 8.85514 6.95866 8.90514C7.10866 9.18014 7.36699 9.53848 7.73366 9.97181C8.10866 10.4051 8.50866 10.8468 8.94199 11.2885C9.39199 11.7301 9.82533 12.1385 10.267 12.5135C10.7003 12.8801 11.0587 13.1301 11.342 13.2801C11.3837 13.2968 11.4337 13.3218 11.492 13.3468C11.5587 13.3718 11.6253 13.3801 11.7003 13.3801C11.842 13.3801 11.9503 13.3301 12.042 13.2385L12.6753 12.6135C12.8837 12.4051 13.0837 12.2468 13.2753 12.1468C13.467 12.0301 13.6587 11.9718 13.867 11.9718C14.0253 11.9718 14.192 12.0051 14.3753 12.0801C14.5587 12.1551 14.7503 12.2635 14.9587 12.4051L17.717 14.3635C17.9337 14.5135 18.0837 14.6885 18.1753 14.8968C18.2587 15.1051 18.3087 15.3135 18.3087 15.5468Z" stroke="white" stroke-width="1.5" stroke-miterlimit="10"/>
</g>
</g>
</g>
</svg>
