<svg width="104" height="105" viewBox="0 0 104 105" fill="none" xmlns="http://www.w3.org/2000/svg">
<g id="checkmark-badge-01">
<g id="Vector (Stroke)">
<path fill-rule="evenodd" clip-rule="evenodd" d="M52.0003 5.85364C49.5686 5.85364 47.5874 6.87678 45.7843 8.25247L40.0544 13.5826L39.9009 13.7361C37.6707 15.9663 35.7264 16.8441 32.726 16.8441C32.35 16.8441 31.8754 16.8307 31.3395 16.8157L26.6337 16.8615C24.3592 17.0582 21.5167 17.6805 19.3593 19.8561C17.2184 22.015 16.6111 24.8459 16.4203 27.106L16.3789 31.7747C16.3941 32.3121 16.4075 32.7874 16.4075 33.1626C16.4075 36.1631 15.5297 38.1073 13.2994 40.3376L13.146 40.491L7.81582 46.221C6.44015 48.0241 5.41703 50.0052 5.41699 52.4369C5.41707 54.8684 6.44026 56.8498 7.81588 58.6527L13.148 64.3846L13.2995 64.5362C14.7454 65.9821 15.4275 66.9198 15.8141 67.8048C16.1905 68.6665 16.4075 69.7576 16.4075 71.7112C16.4075 72.0872 16.3942 72.5618 16.3791 73.0977C16.3405 74.4716 16.2905 76.2488 16.4249 77.8037C16.6217 80.0781 17.2441 82.9207 19.4197 85.0781C21.5787 87.2189 24.4095 87.8261 26.6695 88.0169C28.2102 88.147 29.9741 88.097 31.338 88.0584C31.8755 88.0431 32.3508 88.0297 32.7259 88.0297C34.6379 88.0297 35.7125 88.2219 36.5583 88.571C37.4034 88.9198 38.3072 89.5439 39.6687 90.9054C39.9595 91.1962 40.3425 91.6068 40.7843 92.0804C41.7808 93.1485 43.0763 94.5372 44.2867 95.5952C46.1231 97.2004 48.757 99.0203 52.0003 99.0203C55.2436 99.0203 57.8775 97.2004 59.7139 95.5952C60.9245 94.5371 62.22 93.1484 63.2165 92.0802C63.6581 91.6067 64.0411 91.1962 64.3318 90.9054C65.6933 89.5439 66.5972 88.9198 67.4422 88.571C68.2881 88.2219 69.3627 88.0297 71.2746 88.0297C71.6497 88.0297 72.1251 88.0431 72.6625 88.0584C74.0265 88.097 75.7904 88.147 77.331 88.0169C79.5911 87.8261 82.422 87.2188 84.5809 85.078C86.7566 82.9207 87.379 80.0781 87.5757 77.8037C87.7101 76.2488 87.6601 74.4716 87.6215 73.0978C87.6064 72.5618 87.593 72.0872 87.593 71.7112C87.593 69.7576 87.8101 68.6665 88.1865 67.8048C88.573 66.9198 89.2551 65.9821 90.701 64.5362L90.8516 64.3857C93.0322 62.2054 94.896 60.3421 96.1849 58.6527C97.5605 56.8497 98.5837 54.8685 98.5837 52.437C98.5837 50.0053 97.5606 48.0241 96.1848 46.221C94.8963 44.5322 93.0333 42.6695 90.8536 40.4901L90.701 40.3375C89.2553 38.8916 88.5732 37.9541 88.1866 37.069C87.8101 36.2072 87.593 35.1161 87.593 33.1626C87.593 32.7865 87.6064 32.3119 87.6215 31.7759C87.6601 30.4021 87.7102 28.6251 87.5758 27.0704C87.3791 24.796 86.7568 21.9534 84.5814 19.796C82.4225 17.655 79.5915 17.0477 77.3313 16.8569C75.7905 16.7268 74.0265 16.7768 72.6624 16.8154C72.125 16.8306 71.6497 16.8441 71.2746 16.8441C68.2734 16.8441 66.3293 15.9659 64.0996 13.7361L63.9465 13.5831C61.7674 11.4037 59.9049 9.54087 58.2163 8.25249C56.4133 6.87678 54.432 5.85364 52.0003 5.85364ZM44.4971 18.3323C46.8723 15.9571 48.4273 14.4118 49.7271 13.4201C50.952 12.4856 51.5612 12.3536 52.0003 12.3536C52.4394 12.3536 53.0487 12.4856 54.2735 13.4201C55.5733 14.4118 57.1282 15.9571 59.5033 18.3323C62.8176 21.6466 66.3683 23.3441 71.2746 23.3441L73.3559 23.3033C74.5326 23.2673 75.6065 23.2344 76.7845 23.3339C78.5015 23.4788 79.465 23.8764 80.0044 24.4113C80.5486 24.9511 80.9514 25.9123 81.0999 27.6302C81.2022 28.8137 81.1694 29.8964 81.1334 31.0843C81.1137 31.7343 81.093 32.4158 81.093 33.1626C81.093 35.5707 81.353 37.663 82.2301 39.6709C83.097 41.6554 84.4448 43.2735 86.1047 44.9336C88.4799 47.3088 90.0255 48.864 91.0172 50.1638C91.9517 51.3886 92.0837 51.9978 92.0837 52.437C92.0837 52.8758 91.9518 53.4851 91.0172 54.71C90.0255 56.0098 88.4801 57.5649 86.1049 59.9399C84.4448 61.6001 83.0967 63.2184 82.2299 65.203C81.3529 67.2109 81.093 69.3033 81.093 71.7112C81.093 72.4579 81.1137 73.1394 81.1334 73.7893C81.1694 74.9774 81.2022 76.0602 81.0999 77.2437C80.9513 78.9616 80.5484 79.9228 80.0042 80.4625C79.4647 80.9974 78.5012 81.395 76.7843 81.5399C75.6064 81.6394 74.5326 81.6065 73.356 81.5705C72.7053 81.5506 72.0232 81.5297 71.2746 81.5297C68.9771 81.5297 66.9334 81.7491 64.9622 82.5627C62.9903 83.3767 61.3785 84.6664 59.7356 86.3092C59.1164 86.9285 58.577 87.5117 58.056 88.0751C57.2211 88.9778 56.4327 89.8302 55.4362 90.7012C53.9069 92.0379 52.8031 92.5203 52.0003 92.5203C51.1976 92.5203 50.0938 92.0379 48.5644 90.7012C47.5679 89.8302 46.7796 88.9779 45.9448 88.0753C45.4236 87.5118 44.8844 86.9288 44.265 86.3093C42.6222 84.6665 41.0103 83.3767 39.0383 82.5627C37.0672 81.7491 35.0235 81.5297 32.7259 81.5297C31.9773 81.5297 31.2952 81.5506 30.6445 81.5705C29.4679 81.6065 28.3941 81.6394 27.2163 81.5399C25.4994 81.395 24.536 80.9975 23.9966 80.4626C23.4523 79.9229 23.0493 78.9616 22.9008 77.2436C22.7984 76.0601 22.8312 74.9772 22.8672 73.7891C22.8869 73.1392 22.9075 72.4578 22.9075 71.7112C22.9075 69.3033 22.6477 67.2109 21.7706 65.203C20.9038 63.2184 19.5559 61.6002 17.8958 59.94C15.5207 57.565 13.9753 56.0098 12.9835 54.71C12.049 53.4852 11.917 52.8758 11.917 52.4369C11.917 51.9977 12.0491 51.3885 12.9835 50.1638C13.9752 48.864 15.5205 47.3089 17.8956 44.9338C21.2107 41.6188 22.9075 38.068 22.9075 33.1626C22.9075 32.414 22.8867 31.7319 22.8667 31.0812C22.8307 29.9045 22.7979 28.8307 22.8973 27.6528C23.0422 25.9359 23.4397 24.9724 23.9747 24.433C24.5145 23.8887 25.4757 23.4859 27.1937 23.3373C28.3772 23.2349 29.46 23.2678 30.648 23.3038C31.298 23.3235 31.9794 23.3441 32.726 23.3441C37.6312 23.3441 41.1821 21.6474 44.4971 18.3323Z" fill="#7DEEFF"/>
<path d="M49.7271 13.4201C48.4273 14.4118 46.8723 15.9571 44.4971 18.3323C41.1821 21.6474 37.6312 23.3441 32.726 23.3441C31.9794 23.3441 31.298 23.3235 30.648 23.3038C29.46 23.2678 28.3772 23.2349 27.1937 23.3373C25.4757 23.4859 24.5145 23.8887 23.9747 24.433C23.4397 24.9724 23.0422 25.9359 22.8973 27.6528C22.7979 28.8307 22.8307 29.9045 22.8667 31.0812C22.8867 31.7319 22.9075 32.414 22.9075 33.1626C22.9075 38.068 21.2107 41.6188 17.8956 44.9338C15.5205 47.3089 13.9752 48.864 12.9835 50.1638C12.0491 51.3885 11.917 51.9977 11.917 52.4369C11.917 52.8758 12.049 53.4852 12.9835 54.71C13.9753 56.0098 15.5207 57.565 17.8958 59.94C19.5559 61.6002 20.9038 63.2184 21.7706 65.203C22.6477 67.2109 22.9075 69.3033 22.9075 71.7112C22.9075 72.4578 22.8869 73.1392 22.8672 73.7891C22.8312 74.9772 22.7984 76.0601 22.9008 77.2436C23.0493 78.9616 23.4523 79.9229 23.9966 80.4626C24.536 80.9975 25.4994 81.395 27.2163 81.5399C28.3941 81.6394 29.4679 81.6065 30.6445 81.5705C31.2952 81.5506 31.9773 81.5297 32.7259 81.5297C35.0235 81.5297 37.0672 81.7491 39.0383 82.5627C41.0103 83.3767 42.6222 84.6665 44.265 86.3093C44.8844 86.9288 45.4236 87.5118 45.9448 88.0753C46.7796 88.9779 47.5679 89.8302 48.5644 90.7012C50.0938 92.0379 51.1976 92.5203 52.0003 92.5203C52.8031 92.5203 53.9069 92.0379 55.4362 90.7012C56.4327 89.8302 57.2211 88.9778 58.056 88.0751C58.577 87.5117 59.1164 86.9285 59.7356 86.3092C61.3785 84.6664 62.9903 83.3767 64.9622 82.5627C66.9334 81.7491 68.9771 81.5297 71.2746 81.5297C72.0232 81.5297 72.7053 81.5506 73.356 81.5705C74.5326 81.6065 75.6064 81.6394 76.7843 81.5399C78.5012 81.395 79.4647 80.9974 80.0042 80.4625C80.5484 79.9228 80.9513 78.9616 81.0999 77.2437C81.2022 76.0602 81.1694 74.9774 81.1334 73.7893C81.1137 73.1394 81.093 72.4579 81.093 71.7112C81.093 69.3033 81.3529 67.2109 82.2299 65.203C83.0967 63.2184 84.4448 61.6001 86.1049 59.9399C88.4801 57.5649 90.0255 56.0098 91.0172 54.71C91.9518 53.4851 92.0837 52.8758 92.0837 52.437C92.0837 51.9978 91.9517 51.3886 91.0172 50.1638C90.0255 48.864 88.4799 47.3088 86.1047 44.9336C84.4448 43.2735 83.097 41.6554 82.2301 39.6709C81.353 37.663 81.093 35.5707 81.093 33.1626C81.093 32.4158 81.1137 31.7343 81.1334 31.0843C81.1694 29.8964 81.2022 28.8137 81.0999 27.6302C80.9514 25.9123 80.5486 24.9511 80.0044 24.4113C79.465 23.8764 78.5015 23.4788 76.7845 23.3339L73.3559 23.3033C72.7052 23.3232 72.0231 23.3441 71.2746 23.3441C66.3683 23.3441 62.8176 21.6466 59.5033 18.3323C57.1282 15.9571 55.5733 14.4118 54.2735 13.4201C53.0487 12.4856 52.4394 12.3536 52.0003 12.3536C51.5612 12.3536 50.952 12.4856 49.7271 13.4201Z" fill="#7DEEFF"/>
</g>
<path id="Vector (Stroke)_2" fill-rule="evenodd" clip-rule="evenodd" d="M67.8828 40.1024C68.712 41.6944 68.0936 43.657 66.5017 44.4862C62.0425 46.8086 57.8664 51.6606 54.6807 56.3062C53.1265 58.5728 51.8796 60.683 51.0223 62.2255C50.5946 62.9952 50.266 63.6194 50.047 64.0461C49.9375 64.2593 49.8555 64.4229 49.8022 64.5303L49.7442 64.6482L49.7317 64.674C49.2193 65.7406 48.1658 66.4482 46.9844 66.5152C45.8026 66.5822 44.6778 66.0013 44.0482 64.9989C43.0531 63.4145 41.4608 61.9545 39.9704 60.8323C39.2483 60.2885 38.5979 59.8596 38.1333 59.5697C37.9019 59.4253 37.7191 59.3171 37.5997 59.2479C37.5401 59.2133 37.4964 59.1886 37.4707 59.1742L37.4491 59.1622C35.8727 58.3051 35.2879 56.3319 36.1445 54.755C37.0012 53.1778 38.9743 52.5936 40.5516 53.4504L39.0004 56.3063C40.5516 53.4504 40.551 53.45 40.5516 53.4504L40.5571 53.4533L40.5645 53.4574L40.585 53.4687L40.6481 53.5038C40.6998 53.5327 40.7705 53.5728 40.8581 53.6236C41.0332 53.725 41.277 53.8697 41.5737 54.0549C42.1653 54.4239 42.9774 54.9598 43.8803 55.6397C44.5897 56.1738 45.3882 56.8212 46.1937 57.5712C47.0339 56.1324 48.0862 54.4295 49.32 52.6303C52.6344 47.7968 57.5582 41.8154 63.4991 38.7212C65.091 37.8921 67.0537 38.5105 67.8828 40.1024Z" fill="#1C9BDB"/>
</g>
</svg>
