<svg width="18" height="18" viewBox="0 0 18 18" fill="none" xmlns="http://www.w3.org/2000/svg">
<g id="checkmark-badge-01">
<g id="Vector (Stroke)">
<path fill-rule="evenodd" clip-rule="evenodd" d="M9 0.9375C8.57913 0.9375 8.23622 1.11458 7.92416 1.35268L6.93243 2.27521L6.90586 2.30178C6.51987 2.68777 6.18336 2.8397 5.66406 2.8397C5.59898 2.8397 5.51684 2.83738 5.42408 2.83477L4.60961 2.8427C4.21597 2.87674 3.72399 2.98446 3.35059 3.361C2.98005 3.73466 2.87495 4.22462 2.84192 4.61579L2.83475 5.42383C2.83738 5.51685 2.83971 5.59912 2.83971 5.66405C2.83971 6.18336 2.68778 6.51986 2.30176 6.90588L2.27521 6.93243L1.35268 7.92416C1.11459 8.23623 0.937506 8.57912 0.9375 8.99999C0.937513 9.42083 1.1146 9.76375 1.35269 10.0758L2.27555 11.0679L2.30178 11.0941C2.55203 11.3443 2.67009 11.5066 2.73699 11.6598C2.80214 11.809 2.83971 11.9978 2.83971 12.3359C2.83971 12.401 2.8374 12.4831 2.83479 12.5759C2.8281 12.8137 2.81944 13.1213 2.84272 13.3904C2.87677 13.784 2.9845 14.276 3.36105 14.6494C3.73471 15.02 4.22466 15.125 4.61582 15.1581C4.88247 15.1806 5.18776 15.1719 5.42383 15.1652C5.51685 15.1626 5.59912 15.1603 5.66405 15.1603C5.99496 15.1603 6.18095 15.1935 6.32735 15.254C6.47361 15.3143 6.63004 15.4224 6.86568 15.658C6.916 15.7083 6.9823 15.7794 7.05876 15.8614C7.23123 16.0462 7.45546 16.2866 7.66495 16.4697C7.9828 16.7475 8.43866 17.0625 9 17.0625C9.56134 17.0625 10.0172 16.7475 10.335 16.4697C10.5446 16.2866 10.7688 16.0462 10.9413 15.8613C11.0177 15.7794 11.084 15.7083 11.1343 15.658C11.3699 15.4224 11.5264 15.3143 11.6726 15.254C11.819 15.1935 12.005 15.1603 12.3359 15.1603C12.4009 15.1603 12.4831 15.1626 12.5761 15.1652C12.8122 15.1719 13.1175 15.1806 13.3842 15.1581C13.7753 15.125 14.2653 15.0199 14.639 14.6494C15.0155 14.276 15.1232 13.784 15.1573 13.3904C15.1805 13.1213 15.1719 12.8137 15.1652 12.5759C15.1626 12.4831 15.1603 12.401 15.1603 12.3359C15.1603 11.9978 15.1978 11.809 15.263 11.6598C15.3299 11.5066 15.448 11.3443 15.6982 11.0941L15.7243 11.068C16.1017 10.6907 16.4242 10.3682 16.6473 10.0758C16.8854 9.76374 17.0625 9.42084 17.0625 9C17.0625 8.57913 16.8854 8.23623 16.6473 7.92416C16.4243 7.63187 16.1019 7.30948 15.7246 6.93228L15.6982 6.90587C15.448 6.65561 15.3299 6.49334 15.263 6.34015C15.1979 6.191 15.1603 6.00215 15.1603 5.66405C15.1603 5.59896 15.1626 5.51681 15.1652 5.42404C15.1719 5.18627 15.1805 4.87871 15.1573 4.60962C15.1233 4.21599 15.0155 3.724 14.639 3.3506C14.2654 2.98004 13.7754 2.87494 13.3842 2.84191C13.1175 2.8194 12.8122 2.82804 12.5761 2.83473C12.4831 2.83736 12.4009 2.8397 12.3359 2.8397C11.8165 2.8397 11.48 2.68769 11.0941 2.30178L11.0676 2.27528C10.6905 1.89808 10.3681 1.57568 10.0758 1.35269C9.76378 1.11458 9.42087 0.9375 9 0.9375ZM7.70136 3.09728C8.11245 2.68618 8.38159 2.41873 8.60656 2.24708C8.81855 2.08534 8.924 2.0625 9 2.0625C9.076 2.0625 9.18145 2.08534 9.39343 2.24708C9.61839 2.41872 9.88752 2.68618 10.2986 3.09727C10.8722 3.6709 11.4868 3.96469 12.3359 3.96469L12.6962 3.95763C12.8998 3.9514 13.0857 3.94571 13.2896 3.96292C13.5867 3.98801 13.7535 4.05682 13.8469 4.1494C13.9411 4.24282 14.0108 4.40919 14.0365 4.70652C14.0542 4.91135 14.0485 5.09874 14.0423 5.30435C14.0388 5.41684 14.0353 5.5348 14.0353 5.66405C14.0353 6.08083 14.0803 6.44297 14.2321 6.79049C14.3821 7.13396 14.6154 7.41402 14.9027 7.70135C15.3138 8.11242 15.5813 8.3816 15.7529 8.60657C15.9147 8.81855 15.9375 8.924 15.9375 9C15.9375 9.07596 15.9147 9.18141 15.7529 9.39341C15.5813 9.61837 15.3138 9.88753 14.9027 10.2986C14.6154 10.5859 14.3821 10.866 14.232 11.2095C14.0802 11.557 14.0353 11.9192 14.0353 12.3359C14.0353 12.4652 14.0388 12.5831 14.0423 12.6956C14.0485 12.9012 14.0542 13.0886 14.0365 13.2935C14.0107 13.5908 13.941 13.7572 13.8468 13.8506C13.7535 13.9432 13.5867 14.012 13.2895 14.0371C13.0857 14.0543 12.8998 14.0486 12.6962 14.0423C12.5836 14.0389 12.4655 14.0353 12.3359 14.0353C11.9383 14.0353 11.5846 14.0733 11.2434 14.2141C10.9021 14.3549 10.6231 14.5782 10.3388 14.8625C10.2316 14.9697 10.1383 15.0706 10.0481 15.1681C9.90359 15.3244 9.76714 15.4719 9.59467 15.6227C9.32998 15.854 9.13894 15.9375 9 15.9375C8.86106 15.9375 8.67002 15.854 8.40533 15.6227C8.23285 15.4719 8.09641 15.3244 7.95192 15.1682C7.86173 15.0706 7.76839 14.9697 7.6612 14.8625C7.37687 14.5782 7.09787 14.3549 6.75658 14.2141C6.41542 14.0733 6.0617 14.0353 5.66405 14.0353C5.53448 14.0353 5.41642 14.0389 5.3038 14.0423C5.10016 14.0486 4.91431 14.0543 4.71045 14.0371C4.4133 14.012 4.24656 13.9432 4.1532 13.8506C4.05899 13.7572 3.98925 13.5908 3.96354 13.2935C3.94582 13.0886 3.9515 12.9012 3.95773 12.6956C3.96114 12.5831 3.96471 12.4651 3.96471 12.3359C3.96471 11.9192 3.91973 11.557 3.76794 11.2095C3.61791 10.866 3.38462 10.5859 3.09729 10.2986C2.68622 9.88755 2.41874 9.61838 2.24709 9.39341C2.08536 9.18142 2.06251 9.07594 2.0625 8.99998C2.06251 8.92398 2.08536 8.81853 2.24708 8.60656C2.41873 8.3816 2.68618 8.11246 3.09726 7.70137C3.67102 7.12762 3.96471 6.51306 3.96471 5.66405C3.96471 5.53449 3.9611 5.41643 3.95765 5.30381C3.95141 5.10016 3.94573 4.9143 3.96294 4.71043C3.98802 4.41327 4.05682 4.24652 4.14941 4.15316C4.24283 4.05895 4.40921 3.98923 4.70654 3.96352C4.91138 3.9458 5.09879 3.95148 5.30441 3.95771C5.4169 3.96112 5.53483 3.96469 5.66406 3.96469C6.51304 3.96469 7.12761 3.67103 7.70136 3.09728Z" fill="#1375B7"/>
<path d="M8.60656 2.24708C8.38159 2.41873 8.11245 2.68618 7.70136 3.09728C7.12761 3.67103 6.51304 3.96469 5.66406 3.96469C5.53483 3.96469 5.4169 3.96112 5.30441 3.95771C5.09879 3.95148 4.91138 3.9458 4.70654 3.96352C4.40921 3.98923 4.24283 4.05895 4.14941 4.15316C4.05682 4.24652 3.98802 4.41327 3.96294 4.71043C3.94573 4.9143 3.95141 5.10016 3.95765 5.30381C3.9611 5.41643 3.96471 5.53449 3.96471 5.66405C3.96471 6.51306 3.67102 7.12762 3.09726 7.70137C2.68618 8.11246 2.41873 8.3816 2.24708 8.60656C2.08536 8.81853 2.06251 8.92398 2.0625 8.99998C2.06251 9.07594 2.08536 9.18142 2.24709 9.39341C2.41874 9.61838 2.68622 9.88755 3.09729 10.2986C3.38462 10.5859 3.61791 10.866 3.76794 11.2095C3.91973 11.557 3.96471 11.9192 3.96471 12.3359C3.96471 12.4651 3.96114 12.5831 3.95773 12.6956C3.9515 12.9012 3.94582 13.0886 3.96354 13.2935C3.98925 13.5908 4.05899 13.7572 4.1532 13.8506C4.24656 13.9432 4.4133 14.012 4.71045 14.0371C4.91431 14.0543 5.10016 14.0486 5.3038 14.0423C5.41642 14.0389 5.53448 14.0353 5.66405 14.0353C6.0617 14.0353 6.41542 14.0733 6.75658 14.2141C7.09787 14.3549 7.37687 14.5782 7.6612 14.8625C7.76839 14.9697 7.86173 15.0706 7.95192 15.1682C8.09641 15.3244 8.23285 15.4719 8.40533 15.6227C8.67002 15.854 8.86106 15.9375 9 15.9375C9.13894 15.9375 9.32998 15.854 9.59467 15.6227C9.76714 15.4719 9.90359 15.3244 10.0481 15.1681C10.1383 15.0706 10.2316 14.9697 10.3388 14.8625C10.6231 14.5782 10.9021 14.3549 11.2434 14.2141C11.5846 14.0733 11.9383 14.0353 12.3359 14.0353C12.4655 14.0353 12.5836 14.0389 12.6962 14.0423C12.8998 14.0486 13.0857 14.0543 13.2895 14.0371C13.5867 14.012 13.7535 13.9432 13.8468 13.8506C13.941 13.7572 14.0107 13.5908 14.0365 13.2935C14.0542 13.0886 14.0485 12.9012 14.0423 12.6956C14.0388 12.5831 14.0353 12.4652 14.0353 12.3359C14.0353 11.9192 14.0802 11.557 14.232 11.2095C14.3821 10.866 14.6154 10.5859 14.9027 10.2986C15.3138 9.88753 15.5813 9.61837 15.7529 9.39341C15.9147 9.18141 15.9375 9.07596 15.9375 9C15.9375 8.924 15.9147 8.81855 15.7529 8.60657C15.5813 8.3816 15.3138 8.11242 14.9027 7.70135C14.6154 7.41402 14.3821 7.13396 14.2321 6.79049C14.0803 6.44297 14.0353 6.08083 14.0353 5.66405C14.0353 5.5348 14.0388 5.41684 14.0423 5.30435C14.0485 5.09874 14.0542 4.91135 14.0365 4.70652C14.0108 4.40919 13.9411 4.24282 13.8469 4.1494C13.7535 4.05682 13.5867 3.98801 13.2896 3.96292L12.6962 3.95763C12.5835 3.96108 12.4655 3.96469 12.3359 3.96469C11.4868 3.96469 10.8722 3.6709 10.2986 3.09727C9.88752 2.68618 9.61839 2.41872 9.39343 2.24708C9.18145 2.08534 9.076 2.0625 9 2.0625C8.924 2.0625 8.81855 2.08534 8.60656 2.24708Z" fill="#1375B7"/>
</g>
<path id="Vector (Stroke)_2" fill-rule="evenodd" clip-rule="evenodd" d="M11.749 6.86528C11.8925 7.14081 11.7854 7.4805 11.5099 7.624C10.7381 8.02597 10.0153 8.86573 9.46397 9.66979C9.19497 10.0621 8.97917 10.4273 8.83079 10.6943C8.75675 10.8275 8.69989 10.9355 8.66197 11.0094C8.64302 11.0463 8.62883 11.0746 8.61962 11.0932L8.60957 11.1136L8.6074 11.118C8.51872 11.3027 8.33639 11.4251 8.13191 11.4367C7.92737 11.4483 7.73269 11.3478 7.62372 11.1743C7.45149 10.9001 7.17591 10.6474 6.91796 10.4531C6.79298 10.359 6.68041 10.2848 6.59999 10.2346C6.55994 10.2096 6.52831 10.1909 6.50764 10.1789C6.49732 10.1729 6.48977 10.1687 6.48531 10.1662L6.48158 10.1641C6.20873 10.0157 6.10753 9.67424 6.25577 9.40131C6.40405 9.12832 6.74556 9.02722 7.01855 9.1755L6.75006 9.66979C7.01855 9.1755 7.01844 9.17544 7.01855 9.1755L7.0195 9.17602L7.02078 9.17672L7.02433 9.17867L7.03526 9.18475C7.0442 9.18976 7.05643 9.19669 7.07159 9.20548C7.1019 9.22303 7.14409 9.24808 7.19545 9.28013C7.29785 9.344 7.4384 9.43675 7.59467 9.55442C7.71744 9.64686 7.85564 9.75892 7.99507 9.88872C8.14047 9.63969 8.32262 9.34497 8.53615 9.03357C9.1098 8.19701 9.962 7.16176 10.9902 6.62623C11.2658 6.48272 11.6054 6.58975 11.749 6.86528Z" fill="white"/>
</g>
</svg>
