<svg width="48" height="48" viewBox="0 0 48 48" fill="none" xmlns="http://www.w3.org/2000/svg">
<g id="command-line">
<path id="Vector (Stroke)" fill-rule="evenodd" clip-rule="evenodd" d="M8.84314 8.84314C9.90924 7.77705 11.3552 7.15988 13.7758 6.83443C16.2396 6.50319 19.4793 6.5 24 6.5C28.5207 6.5 31.7604 6.50319 34.2242 6.83444C36.6448 7.15988 38.0908 7.77704 39.1569 8.84312C40.223 9.90921 40.8401 11.3552 41.1656 13.7758C41.4968 16.2396 41.5 19.4793 41.5 24C41.5 28.5207 41.4968 31.7604 41.1656 34.2242C40.8401 36.6448 40.2229 38.0908 39.1569 39.157C38.0908 40.223 36.6448 40.8401 34.2242 41.1656C31.7604 41.4968 28.5207 41.5 24 41.5C19.4793 41.5 16.2396 41.4968 13.7758 41.1656C11.3552 40.8401 9.90926 40.223 8.84316 39.157C7.77708 38.0908 7.15988 36.6448 6.83444 34.2242C6.50319 31.7604 6.5 28.5207 6.5 24C6.5 19.4793 6.50319 16.2396 6.83443 13.7758C7.15988 11.3552 7.77706 9.90923 8.84314 8.84314ZM24.1143 3.5H23.8857C19.5042 3.49997 16.0629 3.49995 13.3761 3.86119C10.6227 4.23136 8.43822 5.00543 6.72182 6.72182C5.00543 8.43823 4.23136 10.6227 3.86119 13.3761C3.49995 16.0629 3.49997 19.5042 3.5 23.8857V24.1143C3.49997 28.4957 3.49995 31.9371 3.86119 34.6239C4.23136 37.3773 5.00547 39.5618 6.72184 41.2783C8.43824 42.9946 10.6228 43.7687 13.3761 44.1388C16.0629 44.5 19.5042 44.5 23.8857 44.5H24.1143C28.4957 44.5 31.9371 44.5 34.6239 44.1388C37.3772 43.7687 39.5619 42.9946 41.2783 41.2782C42.9946 39.5618 43.7687 37.3772 44.1388 34.6239C44.5 31.9371 44.5 28.4957 44.5 24.1143V23.8857C44.5 19.5042 44.5 16.0629 44.1388 13.3761C43.7687 10.6228 42.9946 8.4382 41.2782 6.7218C39.5618 5.00542 37.3773 4.23136 34.6239 3.86119C31.9371 3.49995 28.4957 3.49997 24.1143 3.5Z" fill="#27C6FF"/>
<path id="Vector (Stroke)_2" fill-rule="evenodd" clip-rule="evenodd" d="M44 20H4V16H44V20Z" fill="#27C6FF"/>
<path id="Vector (Stroke)_3" fill-rule="evenodd" clip-rule="evenodd" d="M12 12C12 10.8954 12.8954 10 14 10H14.018C15.1225 10 16.018 10.8954 16.018 12C16.018 13.1046 15.1225 14 14.018 14H14C12.8954 14 12 13.1046 12 12Z" fill="#27C6FF"/>
<path id="Vector (Stroke)_4" fill-rule="evenodd" clip-rule="evenodd" d="M20 12C20 10.8954 20.8954 10 22 10H22.018C23.1226 10 24.018 10.8954 24.018 12C24.018 13.1046 23.1226 14 22.018 14H22C20.8954 14 20 13.1046 20 12Z" fill="#27C6FF"/>
<path id="Vector (Stroke)_5" fill-rule="evenodd" clip-rule="evenodd" d="M30.8639 25.0207C31.4047 24.3932 32.3519 24.323 32.9794 24.8639L35.4322 26.9781C35.4322 26.9781 35.4323 26.9782 35.4322 26.9781C35.4528 26.9958 35.4735 27.0137 35.494 27.0313C35.9554 27.4288 36.4099 27.8202 36.7365 28.1892C37.0975 28.597 37.5 29.191 37.5 30C37.5 30.8091 37.0975 31.403 36.7365 31.8108C36.4099 32.1798 35.9554 32.5713 35.494 32.9687C35.4735 32.9864 35.4529 33.0041 35.4324 33.0218C35.4323 33.0218 35.4324 33.0218 35.4324 33.0218L32.9794 35.1362C32.3519 35.6771 31.4047 35.6069 30.8639 34.9794C30.323 34.3519 30.3932 33.4047 31.0207 32.8639L33.4737 30.7495C33.8731 30.4053 34.137 30.1755 34.3183 30C34.137 29.8245 33.8732 29.5949 33.4738 29.2507L31.0207 27.1362C30.3932 26.5953 30.323 25.6482 30.8639 25.0207Z" fill="#27C6FF"/>
<path id="Vector (Stroke)_6" fill-rule="evenodd" clip-rule="evenodd" d="M17.1362 25.0207C17.6771 25.6482 17.6068 26.5953 16.9793 27.1362L14.5262 29.2506C14.1269 29.5948 13.863 29.8245 13.6817 30C13.863 30.1755 14.1268 30.4052 14.5262 30.7494L16.9793 32.8638C17.6068 33.4047 17.6771 34.3519 17.1362 34.9794C16.5953 35.6068 15.6482 35.6771 15.0207 35.1362L12.5677 33.0219C12.5676 33.0219 12.5677 33.0219 12.5677 33.0219C12.547 33.0041 12.5263 32.9862 12.5056 32.9684C12.0444 32.5711 11.5901 32.1797 11.2635 31.8108C10.9026 31.403 10.5 30.8091 10.5 30C10.5 29.1909 10.9026 28.597 11.2635 28.1893C11.5901 27.8203 12.0444 27.429 12.5056 27.0316C12.5263 27.0139 12.5469 26.9961 12.5676 26.9782C12.5676 26.9783 12.5676 26.9782 12.5676 26.9782L15.0207 24.8638C15.6482 24.323 16.5953 24.3932 17.1362 25.0207Z" fill="#27C6FF"/>
<path id="Vector (Stroke)_7" fill-rule="evenodd" clip-rule="evenodd" d="M26.4747 22.577C27.2607 22.839 27.6854 23.6885 27.4234 24.4744L23.4234 36.4744C23.1615 37.2603 22.312 37.685 21.5261 37.4231C20.7402 37.1611 20.3154 36.3116 20.5774 35.5257L24.5774 23.5257C24.8394 22.7398 25.6888 22.315 26.4747 22.577Z" fill="#27C6FF"/>
</g>
</svg>
