<svg width="48" height="48" viewBox="0 0 48 48" fill="none" xmlns="http://www.w3.org/2000/svg">
<g id="vuesax/linear/cpu">
<g id="cpu">
<path id="Vector (Stroke)" fill-rule="evenodd" clip-rule="evenodd" d="M9.53934 9.53934C11.7583 7.3204 15.0521 6.5 19.2 6.5H28.8C32.9479 6.5 36.2417 7.3204 38.4607 9.53934C40.6796 11.7583 41.5 15.0521 41.5 19.2V28.8C41.5 32.9479 40.6796 36.2417 38.4607 38.4607C36.2417 40.6796 32.9479 41.5 28.8 41.5H19.2C15.0521 41.5 11.7583 40.6796 9.53934 38.4607C7.3204 36.2417 6.5 32.9479 6.5 28.8V19.2C6.5 15.0521 7.3204 11.7583 9.53934 9.53934ZM11.6607 11.6607C10.2796 13.0417 9.5 15.3479 9.5 19.2V28.8C9.5 32.6521 10.2796 34.9583 11.6607 36.3393C13.0417 37.7204 15.3479 38.5 19.2 38.5H28.8C32.6521 38.5 34.9583 37.7204 36.3393 36.3393C37.7204 34.9583 38.5 32.6521 38.5 28.8V19.2C38.5 15.3479 37.7204 13.0417 36.3393 11.6607C34.9583 10.2796 32.6521 9.5 28.8 9.5H19.2C15.3479 9.5 13.0417 10.2796 11.6607 11.6607Z" fill="#27C6FF"/>
<path id="Vector" d="M29.333 21.3333L30.9683 22.7429C31.6559 23.3355 31.9997 23.6318 31.9997 24C31.9997 24.3681 31.6559 24.6645 30.9683 25.257L29.333 26.6666" stroke="#27C6FF" stroke-width="1.5" stroke-linecap="round" stroke-linejoin="round"/>
<path id="Vector_2" d="M18.6667 21.3333L17.0313 22.7429C16.3438 23.3355 16 23.6318 16 24C16 24.3681 16.3438 24.6645 17.0313 25.257L18.6667 26.6666" stroke="#27C6FF" stroke-width="1.5" stroke-linecap="round" stroke-linejoin="round"/>
<g id="Vector_3">
<path d="M25.3337 20L22.667 28L25.3337 20Z" fill="#27C6FF"/>
<path d="M25.3337 20L22.667 28" stroke="#27C6FF" stroke-width="1.5" stroke-linecap="round" stroke-linejoin="round"/>
</g>
<path id="Vector (Stroke)_2" fill-rule="evenodd" clip-rule="evenodd" d="M16.0195 2.5C16.848 2.5 17.5195 3.17157 17.5195 4V8C17.5195 8.82843 16.848 9.5 16.0195 9.5C15.1911 9.5 14.5195 8.82843 14.5195 8V4C14.5195 3.17157 15.1911 2.5 16.0195 2.5Z" fill="#27C6FF"/>
<path id="Vector (Stroke)_3" fill-rule="evenodd" clip-rule="evenodd" d="M24 2.5C24.8284 2.5 25.5 3.17157 25.5 4V8C25.5 8.82843 24.8284 9.5 24 9.5C23.1716 9.5 22.5 8.82843 22.5 8V4C22.5 3.17157 23.1716 2.5 24 2.5Z" fill="#27C6FF"/>
<path id="Vector (Stroke)_4" fill-rule="evenodd" clip-rule="evenodd" d="M32 2.5C32.8284 2.5 33.5 3.17157 33.5 4V8C33.5 8.82843 32.8284 9.5 32 9.5C31.1716 9.5 30.5 8.82843 30.5 8V4C30.5 3.17157 31.1716 2.5 32 2.5Z" fill="#27C6FF"/>
<path id="Vector (Stroke)_5" fill-rule="evenodd" clip-rule="evenodd" d="M38.5 16C38.5 15.1716 39.1716 14.5 40 14.5H44C44.8284 14.5 45.5 15.1716 45.5 16C45.5 16.8284 44.8284 17.5 44 17.5H40C39.1716 17.5 38.5 16.8284 38.5 16Z" fill="#27C6FF"/>
<path id="Vector (Stroke)_6" fill-rule="evenodd" clip-rule="evenodd" d="M38.5 24C38.5 23.1716 39.1716 22.5 40 22.5H44C44.8284 22.5 45.5 23.1716 45.5 24C45.5 24.8284 44.8284 25.5 44 25.5H40C39.1716 25.5 38.5 24.8284 38.5 24Z" fill="#27C6FF"/>
<path id="Vector (Stroke)_7" fill-rule="evenodd" clip-rule="evenodd" d="M38.5 32C38.5 31.1716 39.1716 30.5 40 30.5H44C44.8284 30.5 45.5 31.1716 45.5 32C45.5 32.8284 44.8284 33.5 44 33.5H40C39.1716 33.5 38.5 32.8284 38.5 32Z" fill="#27C6FF"/>
<path id="Vector (Stroke)_8" fill-rule="evenodd" clip-rule="evenodd" d="M32 38.5C32.8284 38.5 33.5 39.1716 33.5 40V44C33.5 44.8284 32.8284 45.5 32 45.5C31.1716 45.5 30.5 44.8284 30.5 44V40C30.5 39.1716 31.1716 38.5 32 38.5Z" fill="#27C6FF"/>
<path id="Vector (Stroke)_9" fill-rule="evenodd" clip-rule="evenodd" d="M24.0195 38.5C24.848 38.5 25.5195 39.1716 25.5195 40V44C25.5195 44.8284 24.848 45.5 24.0195 45.5C23.1911 45.5 22.5195 44.8284 22.5195 44V40C22.5195 39.1716 23.1911 38.5 24.0195 38.5Z" fill="#27C6FF"/>
<path id="Vector (Stroke)_10" fill-rule="evenodd" clip-rule="evenodd" d="M16.0195 38.5C16.848 38.5 17.5195 39.1716 17.5195 40V44C17.5195 44.8284 16.848 45.5 16.0195 45.5C15.1911 45.5 14.5195 44.8284 14.5195 44V40C14.5195 39.1716 15.1911 38.5 16.0195 38.5Z" fill="#27C6FF"/>
<path id="Vector (Stroke)_11" fill-rule="evenodd" clip-rule="evenodd" d="M2.5 16C2.5 15.1716 3.17157 14.5 4 14.5H8C8.82843 14.5 9.5 15.1716 9.5 16C9.5 16.8284 8.82843 17.5 8 17.5H4C3.17157 17.5 2.5 16.8284 2.5 16Z" fill="#27C6FF"/>
<path id="Vector (Stroke)_12" fill-rule="evenodd" clip-rule="evenodd" d="M2.5 24C2.5 23.1716 3.17157 22.5 4 22.5H8C8.82843 22.5 9.5 23.1716 9.5 24C9.5 24.8284 8.82843 25.5 8 25.5H4C3.17157 25.5 2.5 24.8284 2.5 24Z" fill="#27C6FF"/>
<path id="Vector (Stroke)_13" fill-rule="evenodd" clip-rule="evenodd" d="M2.5 32C2.5 31.1716 3.17157 30.5 4 30.5H8C8.82843 30.5 9.5 31.1716 9.5 32C9.5 32.8284 8.82843 33.5 8 33.5H4C3.17157 33.5 2.5 32.8284 2.5 32Z" fill="#27C6FF"/>
</g>
</g>
</svg>
