<svg width="48" height="48" viewBox="0 0 48 48" fill="none" xmlns="http://www.w3.org/2000/svg">
<g id="customer-service">
<path id="Vector (Stroke)" fill-rule="evenodd" clip-rule="evenodd" d="M10.0263 5.51055C9.90133 5.48472 9.64857 5.48653 9.28651 5.78163C6.52895 8.02916 4.97787 11.4537 5.66214 14.8458C6.07591 16.8969 6.70328 18.9259 7.85273 21.2587L11.5367 17.0271C12.4924 15.9293 13.1261 15.198 13.5511 14.5827C13.9544 13.9986 14.0804 13.6412 14.1136 13.3236C14.1467 13.0059 14.0971 12.6302 13.8229 11.9755C13.5341 11.2857 13.0649 10.4394 12.3562 9.1681L10.6099 6.03507C10.3971 5.65337 10.1632 5.53883 10.0263 5.51055ZM9.39766 24.053C12.9313 29.8449 18.1492 35.0652 23.9471 38.6024L29.0031 34.2006L29.0647 34.147C30.0842 33.2594 30.942 32.5125 31.7125 31.9804C32.5297 31.416 33.3666 31.0067 34.3654 30.9026C35.3641 30.7986 36.2673 31.0264 37.1833 31.4099C38.047 31.7716 39.0404 32.3254 40.2211 32.9835L40.2926 33.0233L43.4256 34.7698C44.4317 35.3306 45.1932 36.2332 45.4274 37.3666C45.6641 38.5118 45.3149 39.6628 44.5438 40.6088C41.7461 44.0416 37.2635 46.2273 32.5611 45.2787C29.6705 44.6957 26.8185 43.7241 23.3691 41.746C16.4385 37.7712 10.2243 31.5536 6.25412 24.631C4.2759 21.1815 3.30446 18.3295 2.72138 15.439C1.77277 10.7366 3.95845 6.254 7.39117 3.45618C8.33724 2.68509 9.48835 2.33595 10.6336 2.57265C11.7669 2.8069 12.6695 3.56838 13.2303 4.57445L15.0167 7.77933C15.6747 8.95974 16.2285 9.95311 16.5901 10.8166C16.9737 11.7327 17.2015 12.636 17.0974 13.6347M9.39766 24.053L13.7994 18.9969L9.39766 24.053ZM26.7413 40.1473L30.973 36.4633C32.0707 35.5076 32.802 34.8739 33.4173 34.4489C34.0014 34.0456 34.3587 33.9196 34.6764 33.8865C34.9941 33.8534 35.3699 33.903 36.0246 34.1771C36.7143 34.4659 37.5607 34.9352 38.832 35.6438C38.8319 35.6437 38.832 35.6438 38.832 35.6438L41.965 37.3902C42.3467 37.6029 42.4612 37.8369 42.4895 37.9737C42.5153 38.0987 42.5135 38.3514 42.2184 38.7134C39.971 41.471 36.5463 43.0222 33.1543 42.338C31.1031 41.9242 29.0742 41.2968 26.7413 40.1473Z" fill="#27C6FF"/>
<path id="Vector (Stroke)_2" fill-rule="evenodd" clip-rule="evenodd" d="M38.9168 9.08324C34.1391 4.30559 26.3931 4.30559 21.6155 9.08324L21.6154 9.08335C21.444 9.25473 21.279 9.42957 21.1205 9.6076C20.5698 10.2264 19.6216 10.2816 19.0028 9.73086C18.3839 9.18009 18.3288 8.23195 18.8795 7.61312C19.077 7.39119 19.282 7.17403 19.4942 6.96192M19.4943 6.96181C25.4435 1.01269 35.0889 1.01273 41.0381 6.96192C46.9873 12.9111 46.9873 22.5567 41.0381 28.5059C40.826 28.7179 40.6089 28.9229 40.3869 29.1205C39.768 29.6713 38.8199 29.6161 38.2691 28.9972C37.7184 28.3784 37.7735 27.4303 38.3924 26.8795C38.5704 26.7211 38.7452 26.5561 38.9168 26.3845C43.6944 21.6069 43.6944 13.8609 38.9168 9.08324L39.9453 8.05472L38.9168 9.08324" fill="#27C6FF"/>
<path id="Vector" d="M24 12H25.7142C26.5224 12 26.9264 12 27.1776 12.2441C27.4286 12.4882 27.4286 12.881 27.4286 13.6667C27.4286 15.238 27.4286 16.0237 26.9264 16.5118C26.5446 16.8831 25.9858 16.972 25.029 16.9933C24.5384 17.0042 24.293 17.0097 24.1464 17.1554C24 17.3011 24 17.5341 24 18V20.3334C24 21.119 24 21.5118 24.251 21.756C24.5022 22 24.9062 22 25.7142 22H27.4286M36 12V17M36 17H33.0858C32.4392 17 32.116 17 31.9152 16.8047C31.7142 16.6095 31.7142 16.2952 31.7142 15.6667V12M36 17V22" stroke="#27C6FF" stroke-width="1.5" stroke-linecap="round" stroke-linejoin="round"/>
</g>
</svg>
