<svg width="48" height="48" viewBox="0 0 48 48" fill="none" xmlns="http://www.w3.org/2000/svg">
<g id="vuesax/outline/designtools">
<g id="designtools">
<path id="Vector" d="M20.3044 36.069L20.3045 36.0689L20.2972 36.0641C20.0191 35.8787 19.8598 35.5763 19.8598 35.2401C19.8598 34.9185 19.8384 34.5778 19.796 34.2381L19.7958 34.2372C19.6005 32.6963 18.9037 31.3568 17.7534 30.2065C16.6008 29.0539 15.1603 28.3188 13.6018 28.1239L13.5916 28.1227L13.5813 28.1218C13.3339 28.1012 12.9653 28.0788 12.6086 28.1011L12.6086 28.101L12.6015 28.1016C12.2521 28.1284 11.9426 27.9838 11.7467 27.7095L11.7468 27.7094L11.7398 27.7001C11.5436 27.4384 11.4846 27.0737 11.5921 26.7445C11.8716 25.9831 12.2799 25.2988 12.7577 24.7476L12.7647 24.7394L12.7714 24.731L15.8501 20.8526C15.8504 20.8523 15.8507 20.8519 15.8509 20.8516C18.4654 17.5863 22.4393 13.9707 26.7477 10.7741C31.055 7.57853 35.6653 4.82497 39.542 3.26574C41.0401 2.69675 42.5903 3.03644 43.6678 4.09513C44.7876 5.21611 45.1194 6.80356 44.536 8.25342L44.5357 8.25399C42.9768 12.1416 40.2273 16.7537 37.0356 21.0599C33.8439 25.3661 30.2329 29.3354 26.9673 31.9498L26.967 31.95L23.0359 35.1029C22.3246 35.6212 21.7636 35.9361 21.2141 36.1558L21.1948 36.1636L21.1762 36.1729C21.0967 36.2126 20.9756 36.2401 20.8598 36.2401C20.6558 36.2401 20.4762 36.1879 20.3044 36.069ZM14.6865 25.5714L14.2161 26.1707L14.9531 26.3638C16.5429 26.7801 17.9657 27.6131 19.1663 28.8136L19.1691 28.8165C20.368 29.9963 21.1601 31.3581 21.5562 32.867L21.7521 33.6134L22.3533 33.1296L25.732 30.4106C25.7322 30.4105 25.7325 30.4103 25.7327 30.4101C28.9172 27.8644 32.401 24.0287 35.4591 19.9002C38.5171 15.7718 41.1726 11.3192 42.6838 7.52654C43.0938 6.51299 42.5157 5.78656 42.244 5.53729C42.0362 5.33336 41.3211 4.75561 40.2643 5.15192L40.2642 5.15178L40.2528 5.15637C36.4807 6.67739 32.038 9.33787 27.9119 12.3985C23.7859 15.4591 19.9453 18.9429 17.3899 22.1271L17.3898 22.1271L17.3865 22.1314L14.6865 25.5714Z" fill="#27C6FF" stroke="#27C6FF"/>
<path id="Vector_2" d="M2.99654 39.1566L2.99675 39.1547L3.53675 34.2347L3.53692 34.2331C4.02968 29.6087 7.81621 26.175 12.5298 26.08L12.5379 26.0798L12.546 26.0794C12.891 26.0613 13.3609 26.079 13.8062 26.1173C15.8682 26.3844 17.7038 27.3113 19.1862 28.7937C20.6517 30.2592 21.5195 31.9997 21.7843 33.9475L21.7843 33.9477C21.8421 34.3716 21.8797 34.8283 21.8797 35.2201C21.8797 37.7269 20.9128 40.0599 19.1663 41.8264C17.7097 43.2632 15.8352 44.156 13.7015 44.4235L8.76986 44.9626C8.5479 44.9828 8.35192 45.0001 8.15973 45.0001C6.79441 45.0001 5.48099 44.4543 4.49329 43.4666C3.36172 42.335 2.81362 40.7662 2.99654 39.1566ZM12.6397 28.1001V28.1L12.6298 28.1002C9.41364 28.1641 5.95492 30.365 5.5226 34.4667C5.52256 34.467 5.52252 34.4674 5.52248 34.4678L4.98296 39.3834C4.86498 40.3806 5.22269 41.3467 5.90024 42.0476L5.90019 42.0477L5.90618 42.0537C6.58924 42.7367 7.55876 43.0951 8.53714 42.9768L13.4543 42.4371L13.4543 42.4372L13.4641 42.4359C15.1019 42.2233 16.5873 41.5397 17.7133 40.4137C19.0869 39.0401 19.8597 37.193 19.8597 35.2201C19.8597 34.8986 19.8383 34.5578 19.7959 34.2181L19.7958 34.2172C19.6004 32.6764 18.9036 31.3369 17.7533 30.1866C16.6007 29.0339 15.1602 28.2988 13.6018 28.104L13.5709 28.1001H13.5397H13.5388H13.5379H13.5369H13.536H13.535H13.5341H13.5331H13.5322H13.5312H13.5303H13.5293H13.5284H13.5274H13.5264H13.5255H13.5245H13.5235H13.5226H13.5216H13.5206H13.5196H13.5187H13.5177H13.5167H13.5157H13.5147H13.5138H13.5128H13.5118H13.5108H13.5098H13.5088H13.5078H13.5068H13.5058H13.5048H13.5038H13.5028H13.5018H13.5008H13.4998H13.4988H13.4978H13.4968H13.4957H13.4947H13.4937H13.4927H13.4917H13.4906H13.4896H13.4886H13.4876H13.4865H13.4855H13.4845H13.4834H13.4824H13.4814H13.4803H13.4793H13.4782H13.4772H13.4761H13.4751H13.474H13.473H13.4719H13.4709H13.4698H13.4688H13.4677H13.4666H13.4656H13.4645H13.4635H13.4624H13.4613H13.4603H13.4592H13.4581H13.457H13.456H13.4549H13.4538H13.4527H13.4516H13.4505H13.4495H13.4484H13.4473H13.4462H13.4451H13.444H13.4429H13.4418H13.4407H13.4396H13.4385H13.4374H13.4363H13.4352H13.4341H13.433H13.4319H13.4308H13.4297H13.4286H13.4274H13.4263H13.4252H13.4241H13.423H13.4218H13.4207H13.4196H13.4185H13.4173H13.4162H13.4151H13.4139H13.4128H13.4117H13.4105H13.4094H13.4083H13.4071H13.406H13.4048H13.4037H13.4025H13.4014H13.4003H13.3991H13.398H13.3968H13.3956H13.3945H13.3933H13.3922H13.391H13.3899H13.3887H13.3875H13.3864H13.3852H13.384H13.3829H13.3817H13.3805H13.3793H13.3782H13.377H13.3758H13.3746H13.3735H13.3723H13.3711H13.3699H13.3687H13.3676H13.3664H13.3652H13.364H13.3628H13.3616H13.3604H13.3592H13.358H13.3568H13.3556H13.3544H13.3532H13.352H13.3508H13.3496H13.3484H13.3472H13.346H13.3448H13.3436H13.3424H13.3412H13.3399H13.3387H13.3375H13.3363H13.3351H13.3339H13.3326H13.3314H13.3302H13.329H13.3278H13.3265H13.3253H13.3241H13.3228H13.3216H13.3204H13.3191H13.3179H13.3167H13.3154H13.3142H13.313H13.3117H13.3105H13.3092H13.308H13.3068H13.3055H13.3043H13.303H13.3018H13.3005H13.2993H13.298H13.2968H13.2955H13.2943H13.293H13.2918H13.2905H13.2892H13.288H13.2867H13.2855H13.2842H13.2829H13.2817H13.2804H13.2791H13.2779H13.2766H13.2753H13.2741H13.2728H13.2715H13.2702H13.269H13.2677H13.2664H13.2651H13.2639H13.2626H13.2613H13.26H13.2587H13.2575H13.2562H13.2549H13.2536H13.2523H13.251H13.2497H13.2484H13.2472H13.2459H13.2446H13.2433H13.242H13.2407H13.2394H13.2381H13.2368H13.2355H13.2342H13.2329H13.2316H13.2303H13.229H13.2277H13.2264H13.2251H13.2238H13.2225H13.2212H13.2198H13.2185H13.2172H13.2159H13.2146H13.2133H13.212H13.2107H13.2093H13.208H13.2067H13.2054H13.2041H13.2028H13.2014H13.2001H13.1988H13.1975H13.1962H13.1948H13.1935H13.1922H13.1909H13.1895H13.1882H13.1869H13.1855H13.1842H13.1829H13.1815H13.1802H13.1789H13.1775H13.1762H13.1749H13.1735H13.1722H13.1709H13.1695H13.1682H13.1669H13.1655H13.1642H13.1628H13.1615H13.1601H13.1588H13.1575H13.1561H13.1548H13.1534H13.1521H13.1507H13.1494H13.148H13.1467H13.1453H13.144H13.1426H13.1413H13.1399H13.1386H13.1372H13.1359H13.1345H13.1332H13.1318H13.1304H13.1291H13.1277H13.1264H13.125H13.1237H13.1223H13.1209H13.1196H13.1182H13.1168H13.1155H13.1141H13.1128H13.1114H13.11H13.1087H13.1073H13.1059H13.1046H13.1032H13.1018H13.1005H13.0991H13.0977H13.0963H13.095H13.0936H13.0922H13.0909H13.0895H13.0881H13.0867H13.0854H13.084H13.0826H13.0812H13.0799H13.0785H13.0771H13.0757H13.0743H13.073H13.0716H13.0702H13.0688H13.0675H13.0661H13.0647H13.0633H13.0619H13.0605H13.0592H13.0578H13.0564H13.055H13.0536H13.0522H13.0509H13.0495H13.0481H13.0467H13.0453H13.0439H13.0425H13.0412H13.0398H13.0384H13.037H13.0356H13.0342H13.0328H13.0314H13.03H13.0286H13.0273H13.0259H13.0245H13.0231H13.0217H13.0203H13.0189H13.0175H13.0161H13.0147H13.0133H13.0119H13.0105H13.0091H13.0077H13.0063H13.0049H13.0036H13.0022H13.0008H12.9994H12.998H12.9966H12.9952H12.9938H12.9924H12.991H12.9896H12.9882H12.9868H12.9854H12.984H12.9826H12.9812H12.9798H12.9784H12.977H12.9756H12.9742H12.9728H12.9714H12.97H12.9686H12.9672H12.9658H12.9644H12.963H12.9616H12.9602H12.9588H12.9573H12.9559H12.9545H12.9531H12.9517H12.9503H12.9489H12.9475H12.9461H12.9447H12.9433H12.9419H12.9405H12.9391H12.9377H12.9363H12.9349H12.9335H12.9321H12.9307H12.9293H12.9279H12.9264H12.925H12.9236H12.9222H12.9208H12.9194H12.918H12.9166H12.9152H12.9138H12.9124H12.911H12.9096H12.9082H12.9068H12.9054H12.904H12.9025H12.9011H12.8997H12.8993H12.8988H12.8983H12.8979H12.8974H12.8969H12.8964H12.896H12.8955H12.895H12.8945H12.8941H12.8936H12.8931H12.8927H12.8922H12.8917H12.8912H12.8907H12.8903H12.8898H12.8893H12.8888H12.8884H12.8879H12.8874H12.8869H12.8864H12.886H12.8855H12.885H12.8845H12.884H12.8835H12.8831H12.8826H12.8821H12.8816H12.8811H12.8806H12.8801H12.8797H12.8792H12.8787H12.8782H12.8777H12.8772H12.8767H12.8762H12.8758H12.8753H12.8748H12.8743H12.8738H12.8733H12.8728H12.8723H12.8718H12.8713H12.8708H12.8704H12.8699H12.8694H12.8689H12.8684H12.8679H12.8674H12.8669H12.8664H12.8659H12.8654H12.8649H12.8644H12.8639H12.8634H12.8629H12.8624H12.8619H12.8614H12.8609H12.8604H12.8599H12.8594H12.8589H12.8584H12.8579H12.8574H12.8569H12.8564H12.8559H12.8554H12.8549H12.8544H12.8539H12.8534H12.8529H12.8524H12.8519H12.8514H12.8509H12.8504H12.8499H12.8493H12.8488H12.8483H12.8478H12.8473H12.8468H12.8463H12.8458H12.8453H12.8448H12.8443H12.8438H12.8433H12.8427H12.8422H12.8417H12.8412H12.8407H12.8402H12.8397H12.8392H12.8387H12.8381H12.8376H12.8371H12.8366H12.8361H12.8356H12.8351H12.8346H12.834H12.8335H12.833H12.8325H12.832H12.8315H12.831H12.8304H12.8299H12.8294H12.8289H12.8284H12.8279H12.8273H12.8268H12.8263H12.8258H12.8253H12.8248H12.8242H12.8237H12.8232H12.8227H12.8222H12.8217H12.8211H12.8206H12.8201H12.8196H12.8191H12.8185H12.818H12.8175H12.817H12.8165H12.8159H12.8154H12.8149H12.8144H12.8139H12.8133H12.8128H12.8123H12.8118H12.8112H12.8107H12.8102H12.8097H12.8092H12.8086H12.8081H12.8076H12.8071H12.8065H12.806H12.8055H12.805H12.8045H12.8039H12.8034H12.8029H12.8024H12.8018H12.8013H12.8008H12.8003H12.7997H12.7992H12.7987H12.7982H12.7976H12.7971H12.7966H12.7961H12.7955H12.795H12.7945H12.794H12.7934H12.7929H12.7924H12.7919H12.7913H12.7908H12.7903H12.7898H12.7892H12.7887H12.7882H12.7877H12.7871H12.7866H12.7861H12.7855H12.785H12.7845H12.784H12.7834H12.7829H12.7824H12.7819H12.7813H12.7808H12.7803H12.7798H12.7792H12.7787H12.7782H12.7776H12.7771H12.7766H12.7761H12.7755H12.775H12.7745H12.774H12.7734H12.7729H12.7724H12.7718H12.7713H12.7708H12.7703H12.7697H12.7692H12.7687H12.7682H12.7676H12.7671H12.7666H12.766H12.7655H12.765H12.7645H12.7639H12.7634H12.7629H12.7624H12.7618H12.7613H12.7608H12.7602H12.7597H12.7592H12.7587H12.7581H12.7576H12.7571H12.7566H12.756H12.7555H12.755H12.7544H12.7539H12.7534H12.7529H12.7523H12.7518H12.7513H12.7508H12.7502H12.7497H12.7492H12.7487H12.7481H12.7476H12.7471H12.7466H12.746H12.7455H12.745H12.7445H12.7439H12.7434H12.7429H12.7424H12.7418H12.7413H12.7408H12.7403H12.7397H12.7392H12.7387H12.7382H12.7376H12.7371H12.7366H12.7361H12.7355H12.735H12.7345H12.734H12.7334H12.7329H12.7324H12.7319H12.7314H12.7308H12.7303H12.7298H12.7293H12.7287H12.7282H12.7277H12.7272H12.7267H12.7261H12.7256H12.7251H12.7246H12.7241H12.7235H12.723H12.7225H12.722H12.7214H12.7209H12.7204H12.7199H12.7194H12.7189H12.7183H12.7178H12.7173H12.7168H12.7163H12.7157H12.7152H12.7147H12.7142H12.7137H12.7132H12.7126H12.7121H12.7116H12.7111H12.7106H12.7101H12.7095H12.709H12.7085H12.708H12.7075H12.707H12.7065H12.7059H12.7054H12.7049H12.7044H12.7039H12.7034H12.7029H12.7023H12.7018H12.7013H12.7008H12.7003H12.6998H12.6993H12.6988H12.6983H12.6977H12.6972H12.6967H12.6962H12.6957H12.6952H12.6947H12.6942H12.6937H12.6932H12.6927H12.6921H12.6916H12.6911H12.6906H12.6901H12.6896H12.6891H12.6886H12.6881H12.6876H12.6871H12.6866H12.6861H12.6856H12.6851H12.6846H12.6841H12.6836H12.6831H12.6826H12.6821H12.6815H12.681H12.6805H12.68H12.6795H12.679H12.6785H12.678H12.6775H12.677H12.6765H12.6761H12.6756H12.6751H12.6746H12.6741H12.6736H12.6731H12.6726H12.6721H12.6716H12.6711H12.6706H12.6701H12.6696H12.6691H12.6686H12.6681H12.6676H12.6671H12.6666H12.6662H12.6657H12.6652H12.6647H12.6642H12.6637H12.6632H12.6627H12.6622H12.6618H12.6613H12.6608H12.6603H12.6598H12.6593H12.6588H12.6583H12.6579H12.6574H12.6569H12.6564H12.6559H12.6554H12.655H12.6545H12.654H12.6535H12.653H12.6526H12.6521H12.6516H12.6511H12.6506H12.6502H12.6497H12.6492H12.6487H12.6482H12.6478H12.6473H12.6468H12.6463H12.6459H12.6454H12.6449H12.6444H12.644H12.6435H12.643H12.6426H12.6421H12.6416H12.6411H12.6407H12.6402H12.6397Z" fill="#27C6FF" stroke="#27C6FF"/>
<path id="Vector_3" d="M29.4595 28.94H29.4594L29.4597 28.9519C29.4727 29.4999 29.0302 29.94 28.4795 29.94C27.9357 29.94 27.4795 29.4838 27.4795 28.94C27.4795 24.263 23.6749 20.48 19.0195 20.48C18.4757 20.48 18.0195 20.0238 18.0195 19.48C18.0195 18.9274 18.4644 18.48 18.9995 18.48C24.7634 18.48 29.4595 23.1761 29.4595 28.94Z" fill="#27C6FF" stroke="#27C6FF"/>
<path id="Vector_4" d="M31.3598 45.4601C29.4998 45.4601 27.6398 44.5801 25.8598 42.8001C25.2798 42.2201 25.2798 41.2601 25.8598 40.6801C26.4398 40.1001 27.3998 40.1001 27.9798 40.6801C30.3398 43.0401 32.3598 43.0401 34.7198 40.6801L40.6398 34.7601C43.0198 32.3801 43.0198 30.3601 40.6398 28.0001L39.1598 26.5401C38.5798 25.9601 38.5598 25.0001 39.1398 24.4201C39.7198 23.8201 40.6798 23.8201 41.2598 24.4001L42.7398 25.8601C46.2998 29.4201 46.2998 33.3201 42.7398 36.8801L36.8198 42.8001C35.0798 44.5601 33.2198 45.4601 31.3598 45.4601Z" fill="#27C6FF"/>
<path id="Vector_5" d="M6.21953 22.52C5.83953 22.52 5.43953 22.38 5.15953 22.08C1.63953 18.54 1.63953 14.62 5.15953 11.08L11.0795 5.16002C14.5995 1.64002 18.5595 1.64002 22.0795 5.16002L23.5595 6.64002C24.1395 7.22002 24.1395 8.18002 23.5595 8.76002C22.9795 9.34002 22.0195 9.34002 21.4395 8.76002L19.9395 7.28002C17.5795 4.92002 15.5395 4.92002 13.1995 7.28002L7.27953 13.2C4.91953 15.58 4.91953 17.6 7.27953 19.98C7.85953 20.56 7.85953 21.52 7.27953 22.1C6.97953 22.38 6.59953 22.52 6.21953 22.52Z" fill="#27C6FF"/>
<path id="Vector_6" d="M15.1005 16.6001C14.7205 16.6001 14.3405 16.4601 14.0405 16.1601C13.4605 15.5801 13.4605 14.6201 14.0405 14.0401L21.4405 6.64008C22.0205 6.06008 22.9805 6.06008 23.5605 6.64008C24.1405 7.22008 24.1405 8.18008 23.5605 8.76008L16.1605 16.1601C15.8605 16.4601 15.4805 16.6001 15.1005 16.6001Z" fill="#27C6FF"/>
<path id="Vector_7" d="M34.3202 32.8601C33.9402 32.8601 33.5602 32.7201 33.2602 32.4201C32.6802 31.8401 32.6802 30.8801 33.2602 30.3001L39.1802 24.3801C39.7602 23.8001 40.7202 23.8001 41.3002 24.3801C41.8802 24.9601 41.8802 25.9201 41.3002 26.5001L35.3802 32.4201C35.1002 32.7201 34.7202 32.8601 34.3202 32.8601Z" fill="#27C6FF"/>
</g>
</g>
</svg>
