<svg width="100" height="108" viewBox="0 0 100 108" fill="none" xmlns="http://www.w3.org/2000/svg">
<g filter="url(#filter0_d_298_53793)">
<path d="M44.5 5.17543C47.9034 3.21047 52.0966 3.21047 55.5 5.17543L87.8013 23.8246C91.2047 25.7895 93.3013 29.4209 93.3013 33.3509V70.6491C93.3013 74.5791 91.2047 78.2105 87.8013 80.1754L55.5 98.8246C52.0966 100.79 47.9034 100.79 44.5 98.8246L12.1987 80.1754C8.79532 78.2105 6.69873 74.5791 6.69873 70.6491V33.3509C6.69873 29.4209 8.79532 25.7895 12.1987 23.8246L44.5 5.17543Z" fill="white"/>
<path d="M44.75 5.60844C47.9987 3.7328 52.0013 3.7328 55.25 5.60844L87.5513 24.2576C90.8 26.1332 92.8013 29.5996 92.8013 33.3509V70.6491C92.8013 74.4004 90.8 77.8668 87.5513 79.7424L55.25 98.3916C52.0013 100.267 47.9987 100.267 44.75 98.3916L12.4487 79.7424C9.20002 77.8668 7.19873 74.4004 7.19873 70.6491V33.3509C7.19873 29.5996 9.20002 26.1332 12.4487 24.2576L44.75 5.60844Z" stroke="#F1F0F0"/>
</g>
<path fill-rule="evenodd" clip-rule="evenodd" d="M54.8408 28.8468L67.1531 35.994C67.5135 35.6336 67.9339 35.2733 68.3543 35.033C70.9369 33.5916 74.1801 34.4324 75.6816 37.015C77.1231 39.5976 76.2822 42.8408 73.6996 44.3423C73.2792 44.5826 72.7987 44.7628 72.2582 44.8829V59.1171C72.7387 59.2372 73.2192 59.4174 73.6396 59.6577C76.2222 61.1592 77.063 64.4024 75.6216 66.985C74.1801 69.5676 70.8768 70.4084 68.2942 68.967C67.8138 68.6667 67.3333 68.3063 66.9729 67.8859L54.7807 74.973C54.9609 75.5135 55.081 76.1141 55.021 76.6547C55.021 79.5976 52.6186 82 49.6756 82C46.7327 82 44.3303 79.5976 44.3303 76.6547C44.3303 76.1141 44.3903 75.6336 44.5705 75.1532L32.2582 68.006C31.8978 68.3664 31.4774 68.6667 31.057 68.967C28.4744 70.4084 25.2312 69.5676 23.7297 66.985C22.2882 64.4024 23.1291 61.1592 25.7117 59.6577C26.1321 59.4174 26.6126 59.2372 27.093 59.1171V44.8829C26.6126 44.7628 26.1321 44.5826 25.6516 44.3423C23.1291 42.8408 22.2282 39.5375 23.7297 37.015C25.1711 34.4324 28.4744 33.5916 31.057 35.033C31.4774 35.2733 31.8978 35.6336 32.2582 35.994L44.5705 28.8468C44.4504 28.3664 44.3303 27.8258 44.3303 27.3453C44.3303 24.4024 46.7327 22 49.6756 22C52.6186 22 55.021 24.4024 55.021 27.3453C55.021 27.8859 54.9609 28.3664 54.8408 28.8468ZM53.5195 31.0691L65.8918 38.2162C65.7117 38.8769 65.6516 39.5976 65.7117 40.3183C65.7717 41.039 66.012 41.6997 66.3723 42.3604C67.1531 43.6817 68.3543 44.5225 69.7357 44.8829V59.1772C69.6756 59.1772 69.6156 59.2372 69.5555 59.2372L53.3993 31.1892C53.4594 31.1892 53.5195 31.1291 53.5195 31.0691ZM46.012 31.1892L29.8558 59.1772C29.7957 59.1772 29.7357 59.1171 29.6156 59.1171V44.8829C30.9969 44.5225 32.1981 43.6817 32.9789 42.3604C33.3393 41.7598 33.5795 41.039 33.6396 40.3183C33.6997 39.5976 33.6396 38.8769 33.4594 38.2162L45.8318 31.0691C45.8918 31.1291 45.9519 31.1892 46.012 31.1892ZM51.1771 32.5105L67.3333 60.4384C66.9729 60.7988 66.6726 61.2192 66.3723 61.6396C66.1321 62.0601 65.9519 62.5405 65.8318 63.021H33.5795C33.4594 62.5405 33.2792 62.0601 33.039 61.6396C32.7988 61.2192 32.4384 60.7988 32.078 60.4384L48.2342 32.5105C48.7147 32.6306 49.1951 32.6907 49.7357 32.6907C50.2162 32.6907 50.6966 32.6306 51.1771 32.5105ZM53.6396 73.0511L65.9519 65.964C65.8918 65.8438 65.8918 65.7237 65.8318 65.6036H33.5795C33.5795 65.6637 33.5195 65.7237 33.5195 65.7838L45.8318 72.9309C46.3123 72.3904 46.9129 72.03 47.5735 71.7297C48.2342 71.4294 48.9549 71.3093 49.6756 71.3093C50.3963 71.3093 51.1771 71.4895 51.8378 71.7898C52.5585 72.03 53.1591 72.5105 53.6396 73.0511Z" fill="#DE33A6"/>
<defs>
<filter id="filter0_d_298_53793" x="1.89531" y="0.902148" width="96.2094" height="106.196" filterUnits="userSpaceOnUse" color-interpolation-filters="sRGB">
<feFlood flood-opacity="0" result="BackgroundImageFix"/>
<feColorMatrix in="SourceAlpha" type="matrix" values="0 0 0 0 0 0 0 0 0 0 0 0 0 0 0 0 0 0 127 0" result="hardAlpha"/>
<feOffset dy="2"/>
<feGaussianBlur stdDeviation="2.4"/>
<feColorMatrix type="matrix" values="0 0 0 0 0 0 0 0 0 0 0 0 0 0 0 0 0 0 0.1 0"/>
<feBlend mode="normal" in2="BackgroundImageFix" result="effect1_dropShadow_298_53793"/>
<feBlend mode="normal" in="SourceGraphic" in2="effect1_dropShadow_298_53793" result="shape"/>
</filter>
</defs>
</svg>
