<svg width="100" height="108" viewBox="0 0 100 108" fill="none" xmlns="http://www.w3.org/2000/svg">
<g filter="url(#filter0_d_298_53630)">
<path d="M44.5 5.17543C47.9034 3.21047 52.0966 3.21047 55.5 5.17543L87.8013 23.8246C91.2047 25.7895 93.3013 29.4209 93.3013 33.3509V70.6491C93.3013 74.5791 91.2047 78.2105 87.8013 80.1754L55.5 98.8246C52.0966 100.79 47.9034 100.79 44.5 98.8246L12.1987 80.1754C8.79532 78.2105 6.69873 74.5791 6.69873 70.6491V33.3509C6.69873 29.4209 8.79532 25.7895 12.1987 23.8246L44.5 5.17543Z" fill="white"/>
<path d="M44.75 5.60844C47.9987 3.7328 52.0013 3.7328 55.25 5.60844L87.5513 24.2576C90.8 26.1332 92.8013 29.5996 92.8013 33.3509V70.6491C92.8013 74.4004 90.8 77.8668 87.5513 79.7424L55.25 98.3916C52.0013 100.267 47.9987 100.267 44.75 98.3916L12.4487 79.7424C9.20002 77.8668 7.19873 74.4004 7.19873 70.6491V33.3509C7.19873 29.5996 9.20002 26.1332 12.4487 24.2576L44.75 5.60844Z" stroke="#F1F0F0"/>
</g>
<path d="M71.0552 65.5332C68.3348 65.4643 66.2263 65.7405 64.458 66.4998C63.9479 66.7067 63.1316 66.7069 63.0636 67.3629C63.3357 67.6391 63.3697 68.0879 63.6078 68.4674C64.0163 69.1577 64.7299 70.0898 65.3761 70.5733C66.0901 71.1255 66.8045 71.6776 67.5524 72.161C68.8787 72.9895 70.3752 73.4726 71.6674 74.3012C72.4158 74.7841 73.1634 75.4059 73.9117 75.9236C74.2858 76.1994 74.5237 76.6485 75 76.821V76.7176C74.7617 76.4067 74.6937 75.9581 74.4558 75.6129C74.1161 75.2676 73.7756 74.9569 73.4355 74.6117C72.4494 73.2657 71.2253 72.0919 69.8991 71.1255C68.8109 70.366 66.4302 69.3305 65.9883 68.0531C65.9883 68.0531 65.9541 68.0188 65.9203 67.9843C66.6683 67.9152 67.5524 67.639 68.2668 67.4319C69.4229 67.121 70.477 67.1903 71.6674 66.8795C72.2114 66.7415 72.7555 66.5688 73.2995 66.3962V66.0857C72.6877 65.4643 72.2456 64.636 71.5994 64.0491C69.865 62.5299 67.9605 61.0458 65.9883 59.8031C64.934 59.1127 63.5736 58.6639 62.4514 58.0772C62.0437 57.8699 61.3633 57.7665 61.1254 57.4212C60.513 56.6619 60.1729 55.661 59.731 54.7634C58.7451 52.8646 57.7926 50.7591 56.9423 48.7572C56.3306 47.4108 55.9564 46.0644 55.2082 44.822C51.7056 38.9537 47.8968 35.3982 42.0478 31.9116C40.7895 31.1868 39.2932 30.8761 37.6949 30.4965C36.8451 30.4618 35.9946 30.393 35.1445 30.3582C34.6004 30.1166 34.0562 29.4608 33.5801 29.1501C31.6421 27.9073 26.6428 25.2151 25.2145 28.7706C24.2963 31.0142 26.575 33.2232 27.3568 34.3627C27.9354 35.1565 28.6832 36.0539 29.0913 36.9515C29.3294 37.538 29.3972 38.1598 29.6353 38.781C30.1796 40.2995 30.6894 41.9913 31.4038 43.4067C31.7779 44.1315 32.1859 44.8908 32.662 45.5467C32.9341 45.9263 33.41 46.0991 33.5123 46.7203C33.0363 47.4108 33.0021 48.4465 32.7298 49.3093C31.5056 53.21 31.982 58.0427 33.7161 60.9077C34.2601 61.7703 35.5525 63.6695 37.2868 62.9443C38.8173 62.3231 38.4772 60.3555 38.9189 58.6296C39.0213 58.2149 38.9533 57.9391 39.1572 57.6629V57.7322C39.6333 58.6984 40.1093 59.6307 40.5514 60.5972C41.6057 62.2884 43.4419 64.0491 44.9721 65.2228C45.7886 65.8439 46.4346 66.9141 47.4549 67.2938V67.1901H47.3867C47.1826 66.8793 46.8765 66.7415 46.6046 66.4996C45.9926 65.8786 45.3122 65.1191 44.8363 64.4286C43.4082 62.4953 42.1497 60.3553 41.0275 58.146C40.4836 57.0762 40.0072 55.9024 39.5653 54.8324C39.361 54.4178 39.361 53.7967 39.0211 53.5898C38.511 54.3491 37.7629 55.005 37.3888 55.937C36.743 57.4212 36.6748 59.2508 36.4367 61.1491C36.3007 61.1841 36.3685 61.1491 36.3005 61.2186C35.2126 60.942 34.8385 59.8031 34.4301 58.8365C33.4098 56.3858 33.2398 52.4505 34.1242 49.6201C34.3623 48.8951 35.3826 46.617 34.9745 45.9265C34.7704 45.2706 34.09 44.8908 33.7161 44.3732C33.2742 43.7172 32.7978 42.8891 32.4919 42.1639C31.6757 40.2308 31.2676 38.0906 30.3835 36.1575C29.9754 35.2599 29.2616 34.3282 28.6832 33.4996C28.0372 32.5677 27.323 31.9116 26.8128 30.807C26.643 30.4275 26.4047 29.8061 26.6768 29.3918C26.7448 29.1156 26.8807 29.0122 27.1529 28.9432C27.5951 28.5632 28.8534 29.0466 29.2952 29.2537C30.5536 29.7711 31.6077 30.2549 32.662 30.9796C33.1379 31.3249 33.6481 31.9808 34.2601 32.1534H34.9743C36.0626 32.3949 37.2866 32.2225 38.3069 32.533C40.1094 33.1197 41.7415 33.9827 43.204 34.9149C47.6589 37.7799 51.3312 41.8532 53.814 46.7203C54.2221 47.514 54.392 48.2393 54.7661 49.0675C55.4805 50.7591 56.3646 52.4851 57.0784 54.142C57.7926 55.7641 58.4726 57.4213 59.4929 58.7676C60.0031 59.4922 62.0433 59.8722 62.9616 60.2519C63.6418 60.5624 64.6961 60.8388 65.3081 61.2184C66.4642 61.943 67.6204 62.7719 68.7087 63.5655C69.2529 63.9798 70.953 64.8429 71.0552 65.5332Z" fill="#00546B"/>
<path d="M36.3706 35.5361C35.7926 35.5361 35.3847 35.6056 34.9766 35.7089V35.778H35.0446C35.3169 36.3304 35.7926 36.7101 36.1325 37.1932C36.4048 37.7454 36.6427 38.298 36.9149 38.8503C36.9488 38.8156 36.9828 38.7813 36.9828 38.7813C37.4591 38.4359 37.697 37.8837 37.697 37.0551C37.4929 36.8137 37.4589 36.572 37.2889 36.3304C37.085 35.9849 36.6427 35.8125 36.3706 35.5361Z" fill="#00546B"/>
<defs>
<filter id="filter0_d_298_53630" x="1.89531" y="0.902148" width="96.2094" height="106.196" filterUnits="userSpaceOnUse" color-interpolation-filters="sRGB">
<feFlood flood-opacity="0" result="BackgroundImageFix"/>
<feColorMatrix in="SourceAlpha" type="matrix" values="0 0 0 0 0 0 0 0 0 0 0 0 0 0 0 0 0 0 127 0" result="hardAlpha"/>
<feOffset dy="2"/>
<feGaussianBlur stdDeviation="2.4"/>
<feColorMatrix type="matrix" values="0 0 0 0 0 0 0 0 0 0 0 0 0 0 0 0 0 0 0.1 0"/>
<feBlend mode="normal" in2="BackgroundImageFix" result="effect1_dropShadow_298_53630"/>
<feBlend mode="normal" in="SourceGraphic" in2="effect1_dropShadow_298_53630" result="shape"/>
</filter>
</defs>
</svg>
