<svg width="22" height="22" viewBox="0 0 22 22" fill="none" xmlns="http://www.w3.org/2000/svg">
<g id="vuesax/outline/home">
<g id="home">
<path id="Vector" d="M16.1337 20.6802H5.86701C4.19868 20.6802 2.67701 19.3968 2.40201 17.7468L1.18285 10.4502C0.990346 9.31353 1.54035 7.85604 2.44785 7.13187L8.80036 2.04432C10.0287 1.05432 11.9628 1.0635 13.2003 2.0535L19.5529 7.13187C20.4512 7.85604 21.0012 9.31353 20.8179 10.4502L19.5987 17.7468C19.3237 19.3693 17.7745 20.6802 16.1337 20.6802ZM10.9912 2.69518C10.5054 2.69518 10.0195 2.84182 9.66201 3.12598L3.30952 8.21353C2.78702 8.6352 2.42952 9.57015 2.53952 10.2302L3.75869 17.5268C3.92369 18.4893 4.88618 19.3052 5.86701 19.3052H16.1337C17.1145 19.3052 18.077 18.4893 18.242 17.5177L19.4612 10.221C19.5712 9.56103 19.2045 8.61685 18.6912 8.20435L12.3387 3.12598C11.972 2.84182 11.4862 2.69518 10.9912 2.69518Z" fill="#1375B7"/>
<path id="Vector_2" d="M10.9997 14.8958C9.35884 14.8958 8.02051 13.5575 8.02051 11.9167C8.02051 10.2758 9.35884 8.9375 10.9997 8.9375C12.6405 8.9375 13.9788 10.2758 13.9788 11.9167C13.9788 13.5575 12.6405 14.8958 10.9997 14.8958ZM10.9997 10.3125C10.1197 10.3125 9.39551 11.0367 9.39551 11.9167C9.39551 12.7967 10.1197 13.5208 10.9997 13.5208C11.8797 13.5208 12.6038 12.7967 12.6038 11.9167C12.6038 11.0367 11.8797 10.3125 10.9997 10.3125Z" fill="#1375B7"/>
</g>
</g>
</svg>
