<svg width="127" height="45" viewBox="0 0 127 45" fill="none" xmlns="http://www.w3.org/2000/svg">
<g id="Isolation_Mode" clip-path="url(#clip0_5491_11881)">
<path id="Vector" d="M24.8066 43.6775C24.8066 43.6775 27.9739 41.995 30.1207 38.3262C32.2675 34.6574 34.251 34.3535 35.6612 35.6778C37.0714 37.002 36.458 39.5501 33.6978 41.0778C30.9376 42.6055 28.077 43.2218 24.8066 43.6775Z" fill="#2C5D2D"/>
<path id="Vector_2" d="M30.123 43.6172C30.123 43.6172 34.9269 43.1185 37.0737 41.0806C39.2206 39.0427 40.8543 41.072 40.3441 42.3503C39.8339 43.6287 36.8702 44.3223 30.123 43.6201V43.6172Z" fill="#2C5D2D"/>
<g id="Group">
<g id="Group_2">
<path id="Vector_3" d="M29.5154 30.3035C29.5154 26.9328 28.3259 23.8458 26.3482 21.4181C25.1443 19.9419 24.0924 18.3225 23.5536 16.4967C23.2784 15.5623 23.0921 14.6021 23.0032 13.6276C22.9918 13.4613 22.9717 13.2951 22.9516 13.1288C22.6478 11.1511 21.4784 9.43135 19.8589 8.37084C19.3258 8.01542 18.7526 7.73452 18.1363 7.54822H13.7911C13.6764 7.57975 13.5704 7.61987 13.4672 7.66287C13.4471 7.67433 13.4242 7.67433 13.4041 7.6944C12.9341 7.87211 12.4955 8.10141 12.077 8.37084C10.1652 9.63199 8.90982 11.7874 8.90982 14.2438V14.2868C8.92129 15.6024 8.68625 16.8894 8.22479 18.0875C4.00565 20.8448 1.15658 25.084 1.15658 30.3035C1.15658 30.3436 1.16231 30.3837 1.16231 30.4239C1.15372 30.5328 1.12505 30.6417 1.11932 30.7506C1.11645 30.785 1.14798 30.9685 1.20531 31.2465C1.69544 38.6099 7.82638 44.437 15.3389 44.437C18.873 44.437 22.0946 43.1415 24.5768 41.0118C27.5893 38.5497 29.5183 34.8465 29.5183 30.6474C29.5183 30.5844 29.5125 30.5242 29.5097 30.4611C29.5097 30.4095 29.5183 30.3579 29.5183 30.3035H29.5154Z" fill="#2C5D2D"/>
<g id="Group_3">
<path id="Vector_4" d="M20.7157 13.791C20.7014 13.6362 20.6842 13.4786 20.6584 13.3209C20.1998 10.3715 17.7491 8.0384 14.7711 7.70878C10.7096 7.26165 7.27294 10.4203 7.27294 14.3786C7.27294 14.3929 7.27294 14.4072 7.27294 14.4244C7.29014 16.9467 6.3758 19.3573 4.63312 21.186C2.4003 23.5306 1.04456 26.7178 1.09615 30.2233C1.19647 36.8759 6.51625 42.4508 13.1774 42.8664C20.6842 43.3336 26.9183 37.4033 26.9183 30.0226C26.9183 27.0131 25.8807 24.25 24.1409 22.0602C22.2492 19.6783 20.9765 16.8178 20.7129 13.791H20.7157Z" fill="#FFD54D"/>
<path id="Vector_5" d="M14.0174 43.0211C13.7365 43.0211 13.4527 43.0125 13.169 42.9953C6.43037 42.5768 1.06759 36.9647 0.964403 30.2232C0.91281 26.8095 2.18256 23.5678 4.53863 21.0942C6.23546 19.3142 7.1584 16.9467 7.1412 14.4244V14.3785C7.1412 12.4352 7.97528 10.5779 9.42561 9.28233C10.8989 7.96671 12.8021 7.35907 14.7827 7.58263C17.798 7.91226 20.3203 10.3199 20.7846 13.3037C20.8104 13.4642 20.8276 13.6247 20.8419 13.7824C21.0913 16.6601 22.2665 19.4948 24.2413 21.9799C26.0757 24.2901 27.0474 27.0704 27.0474 30.0226C27.0474 33.6484 25.5856 37.0134 22.9343 39.4985C20.4894 41.7886 17.348 43.0211 14.0145 43.0211H14.0174ZM13.9973 7.7976C12.3693 7.7976 10.8301 8.37946 9.60332 9.47437C8.20745 10.7212 7.4049 12.5097 7.4049 14.3785V14.4244C7.42209 17.0126 6.47336 19.4461 4.73067 21.2748C2.42046 23.6996 1.17651 26.8755 1.2281 30.2204C1.32842 36.8271 6.58228 42.3246 13.1861 42.7345C16.7546 42.9609 20.1598 41.7399 22.7566 39.3064C25.3563 36.873 26.7866 33.5739 26.7866 30.0197C26.7866 27.1277 25.835 24.4019 24.0378 22.1375C22.0314 19.6123 20.8362 16.7289 20.5811 13.7996C20.5696 13.6448 20.5496 13.4929 20.5266 13.3381C20.0795 10.469 17.6547 8.15589 14.754 7.83773C14.4989 7.80907 14.2438 7.79474 13.9916 7.79474L13.9973 7.7976Z" fill="#2C5D2D"/>
</g>
<g id="Group_4">
<path id="Vector_6" d="M13.324 37.3144C17.1074 37.3144 20.1744 34.2577 20.1744 30.487C20.1744 26.7163 17.1074 23.6595 13.324 23.6595C9.54065 23.6595 6.47363 26.7163 6.47363 30.487C6.47363 34.2577 9.54065 37.3144 13.324 37.3144Z" fill="#AC6F40"/>
<path id="Vector_7" d="M13.324 37.4463C9.47462 37.4463 6.3418 34.3249 6.3418 30.487C6.3418 26.6491 9.47462 23.5277 13.324 23.5277C17.1734 23.5277 20.3062 26.6491 20.3062 30.487C20.3062 34.3249 17.1734 37.4463 13.324 37.4463ZM13.324 23.7885C9.61793 23.7885 6.60263 26.7924 6.60263 30.487C6.60263 34.1816 9.61793 37.1855 13.324 37.1855C17.0301 37.1855 20.0425 34.1816 20.0425 30.487C20.0425 26.7924 17.0272 23.7885 13.324 23.7885Z" fill="#774620"/>
</g>
<path id="Vector_8" d="M19.1421 27.2108C19.3857 27.9159 19.5463 28.6639 19.5463 29.4522C19.5463 33.2614 16.4478 36.3484 12.6271 36.3484C10.8615 36.3484 9.26784 35.6691 8.04395 34.5828C9.27071 36.1678 11.1739 37.2054 13.3379 37.2054C17.044 37.2054 20.0507 34.2102 20.0507 30.5156C20.0507 29.306 19.7039 28.1881 19.1392 27.2079L19.1421 27.2108Z" fill="#936238"/>
</g>
<g id="Group_5">
<path id="Vector_9" d="M21.2349 7.55103H8.99023V8.37364H21.2349V7.55103Z" fill="#2C5D2D"/>
<path id="Vector_10" d="M22.7394 3.77907L21.2346 7.01795H8.98991L7.87207 3.77907H11.8734L12.9081 6.28992H14.3183L14.2352 6.11221L13.232 3.77907L15.2584 0.437012L17.4941 3.77907L16.2502 6.10075L16.147 6.28992H17.3795L18.9358 3.77907H22.7394Z" fill="#2C5D2D"/>
</g>
</g>
<g id="Group_6">
<g id="Group_7">
<path id="Vector_11" d="M54.4756 43.795L51.7842 36.4659H53.3434L55.6966 42.958H54.7794L57.167 36.4659H58.603L55.9001 43.795H54.4756Z" fill="#2C5D2D"/>
<path id="Vector_12" d="M62.4434 43.9183C61.5577 43.9183 60.8641 43.6288 60.3682 43.0498C59.8695 42.4708 59.6201 41.6453 59.6201 40.5676V36.4631H61.0647V40.5046C61.0647 41.2011 61.188 41.7055 61.4316 42.0122C61.6752 42.3189 62.0163 42.4737 62.4577 42.4737C62.8991 42.4737 63.2373 42.3218 63.481 42.0122C63.7246 41.7055 63.8479 41.2011 63.8479 40.5046V36.4631H65.2724V40.5676C65.2724 41.6425 65.023 42.4708 64.5243 43.0498C64.0256 43.6288 63.3319 43.9183 62.4463 43.9183H62.4434Z" fill="#2C5D2D"/>
<path id="Vector_13" d="M66.1611 43.795L68.9443 36.4659H70.3688L73.1605 43.795H71.6443L69.3627 37.323H69.9331L67.643 43.795H66.164H66.1611ZM67.5513 42.2243L67.9353 40.9373H71.1456L71.5382 42.2243H67.5541H67.5513Z" fill="#2C5D2D"/>
<path id="Vector_14" d="M77.1738 43.795V36.4659H80.0086C80.685 36.4659 81.284 36.6179 81.8 36.9217C82.3159 37.2255 82.72 37.6497 83.0124 38.1943C83.3048 38.7389 83.4481 39.3838 83.4481 40.1319C83.4481 40.88 83.3019 41.5163 83.0124 42.0638C82.72 42.6112 82.3159 43.0383 81.8 43.3421C81.284 43.6459 80.685 43.7978 80.0086 43.7978H77.1738V43.795ZM78.6184 42.402H79.9369C80.3525 42.402 80.7137 42.3103 81.0203 42.1239C81.327 41.9405 81.5649 41.6768 81.7341 41.3329C81.9032 40.9918 81.9891 40.5876 81.9891 40.129C81.9891 39.6704 81.9032 39.2577 81.7341 38.9195C81.5649 38.5812 81.327 38.3176 81.0203 38.1341C80.7137 37.9507 80.3525 37.8561 79.9369 37.8561H78.6184V42.402Z" fill="#2C5D2D"/>
<path id="Vector_15" d="M84.0439 43.795L86.8271 36.466H88.2516L91.0434 43.795H89.5271L87.2456 37.323H87.8159L85.5258 43.795H84.0468H84.0439ZM85.4341 42.2243L85.8182 40.9374H89.0284L89.421 42.2243H85.4369H85.4341ZM85.7465 35.8669L86.9331 34.6746H88.1456L89.3322 35.8669H88.3061L87.1022 34.9239H87.9765L86.7726 35.8669H85.7465ZM89.143 34.8609L87.7414 33.594H89.1602L90.1405 34.8609H89.143Z" fill="#2C5D2D"/>
<path id="Vector_16" d="M94.752 43.9183C93.8663 43.9183 93.1727 43.6288 92.6768 43.0498C92.1781 42.4708 91.9287 41.6453 91.9287 40.5676V36.4631H93.3733V40.5046C93.3733 41.2011 93.4966 41.7055 93.7402 42.0122C93.9838 42.3189 94.3249 42.4737 94.7663 42.4737C95.2077 42.4737 95.5459 42.3218 95.7896 42.0122C96.0332 41.7055 96.1564 41.2011 96.1564 40.5046V36.4631H97.581V40.5676C97.581 41.6425 97.3316 42.4708 96.8329 43.0498C96.3342 43.6288 95.6405 43.9183 94.7549 43.9183H94.752Z" fill="#2C5D2D"/>
<path id="Vector_17" d="M102.365 43.795V36.4659H105.415C106.2 36.4659 106.788 36.6408 107.183 36.9905C107.579 37.3402 107.777 37.8016 107.777 38.372C107.777 38.7561 107.696 39.0886 107.536 39.3723C107.375 39.6561 107.155 39.8739 106.877 40.0287C106.599 40.1835 106.278 40.258 105.914 40.258L106.083 39.8281C106.475 39.8281 106.822 39.9026 107.126 40.0545C107.43 40.2036 107.665 40.4271 107.834 40.7195C108.003 41.0118 108.089 41.373 108.089 41.7972C108.089 42.4249 107.877 42.915 107.456 43.2676C107.034 43.6201 106.412 43.795 105.593 43.795H102.365ZM103.801 42.5166H105.487C105.859 42.5166 106.146 42.445 106.338 42.3017C106.53 42.1583 106.627 41.929 106.627 41.6166C106.627 41.3042 106.53 41.0806 106.338 40.9316C106.146 40.7797 105.859 40.7051 105.487 40.7051H103.695V39.4698H105.237C105.587 39.4698 105.856 39.3981 106.046 39.2548C106.232 39.1115 106.326 38.8937 106.326 38.6013C106.326 38.3089 106.232 38.0997 106.046 37.9564C105.859 37.8131 105.59 37.7414 105.237 37.7414H103.804V42.5166H103.801Z" fill="#2C5D2D"/>
<path id="Vector_18" d="M112.627 43.9183C112.139 43.9183 111.686 43.8237 111.268 43.6345C110.85 43.4454 110.486 43.1817 110.182 42.8377C109.875 42.4966 109.637 42.0925 109.468 41.6339C109.299 41.1724 109.213 40.6708 109.213 40.1262C109.213 39.5816 109.299 39.0686 109.468 38.6071C109.637 38.1457 109.878 37.7472 110.19 37.409C110.503 37.0708 110.87 36.8071 111.294 36.6179C111.718 36.4288 112.182 36.3342 112.69 36.3342C113.022 36.3342 113.323 36.3571 113.59 36.4058C113.856 36.4546 114.1 36.4804 114.321 36.4804C114.541 36.4804 114.725 36.423 114.857 36.3084C114.988 36.1937 115.051 36.0217 115.051 35.7896C115.051 35.6635 115.034 35.5488 114.997 35.4428C114.963 35.3367 114.92 35.245 114.874 35.159L115.694 34.8036C115.782 34.9498 115.851 35.1103 115.903 35.2851C115.954 35.46 115.98 35.6491 115.98 35.8498C115.98 36.3657 115.828 36.7641 115.522 37.045C115.215 37.323 114.793 37.4635 114.26 37.4635C114.034 37.4635 113.81 37.4463 113.593 37.4119C113.372 37.3775 113.157 37.346 112.95 37.3173L114.653 37.0651C114.925 37.2686 115.166 37.5237 115.375 37.8275C115.585 38.1342 115.748 38.4839 115.865 38.8679C115.983 39.2549 116.043 39.6734 116.043 40.1205C116.043 40.6651 115.957 41.1696 115.785 41.6339C115.613 42.0982 115.375 42.4995 115.069 42.8377C114.762 43.1759 114.404 43.4396 113.991 43.6288C113.578 43.818 113.125 43.9126 112.632 43.9126L112.627 43.9183ZM112.627 42.4737C112.905 42.4737 113.163 42.4192 113.398 42.3075C113.633 42.1957 113.839 42.0352 114.017 41.8259C114.194 41.6167 114.332 41.3673 114.432 41.0807C114.53 40.7941 114.579 40.4759 114.579 40.1291C114.579 39.7823 114.53 39.4699 114.432 39.1804C114.335 38.8909 114.197 38.6415 114.017 38.4323C113.839 38.223 113.633 38.0625 113.398 37.9507C113.163 37.839 112.905 37.7845 112.627 37.7845C112.349 37.7845 112.088 37.8418 111.85 37.9507C111.612 38.0625 111.406 38.223 111.231 38.4323C111.053 38.6415 110.918 38.8909 110.821 39.1746C110.723 39.4613 110.672 39.7794 110.672 40.1262C110.672 40.4731 110.721 40.7855 110.821 41.075C110.918 41.3645 111.056 41.6138 111.231 41.8231C111.406 42.0323 111.612 42.1928 111.85 42.3046C112.088 42.4164 112.346 42.4708 112.627 42.4708V42.4737Z" fill="#2C5D2D"/>
</g>
<path id="Vector_19" d="M47.1207 16.0982L52.6239 29.5066H48.3933L44.4981 19.7842L42.7754 22.6448V29.5066H38.8057V7.2644H42.7754V16.5425H42.85L48.3532 7.2644H52.5093L47.1178 16.0954L47.1207 16.0982Z" fill="#2C5D2D"/>
<path id="Vector_20" d="M66.3507 10.3772H59.1622V16.6686H64.9663V19.7814H59.1622V26.3881H66.3507V29.5009H55.1924V7.2644H66.3507V10.3772Z" fill="#2C5D2D"/>
<path id="Vector_21" d="M78.1683 19.4661V29.5067H74.1985V19.4346L68.6953 7.26733H72.8887L76.2221 15.1467H76.2966L79.4782 7.26733H83.597L78.1683 19.469V19.4661Z" fill="#2C5D2D"/>
<path id="Vector_22" d="M97.7872 29.5037H93.743L92.8802 24.4534H88.5006L87.6407 29.5037H83.6709L88.1996 7.2644H93.2557L97.7872 29.5037ZM90.6359 12.031L89.0251 21.4037H92.3585L90.7477 12.031H90.6359Z" fill="#2C5D2D"/>
<path id="Vector_23" d="M107.123 29.5037H101.992L97.5752 7.2644H101.619L104.577 24.2298H104.652L107.573 7.2644H111.542L107.123 29.5037Z" fill="#2C5D2D"/>
<path id="Vector_24" d="M124.472 8.45681C125.607 9.46287 126.175 10.8358 126.175 12.5699V24.1983C126.175 25.9353 125.607 27.3082 124.472 28.3114C123.334 29.3175 121.769 29.8219 119.771 29.8219C117.774 29.8219 116.209 29.3203 115.074 28.3114C113.939 27.3054 113.371 25.9353 113.371 24.1983V12.5699C113.371 10.8329 113.939 9.46287 115.074 8.45681C116.209 7.45075 117.777 6.94629 119.771 6.94629C121.766 6.94629 123.334 7.45075 124.472 8.45681ZM117.957 10.7126C117.544 11.1482 117.341 11.7759 117.341 12.6014V24.1668C117.341 24.9923 117.547 25.6229 117.957 26.0585C118.37 26.4942 118.975 26.7092 119.774 26.7092C120.574 26.7092 121.179 26.4913 121.592 26.0585C122.004 25.6229 122.208 24.9951 122.208 24.1668V12.6014C122.208 11.7759 122.001 11.1454 121.592 10.7126C121.179 10.2798 120.574 10.0619 119.774 10.0619C118.975 10.0619 118.37 10.2798 117.957 10.7126Z" fill="#2C5D2D"/>
</g>
</g>
<defs>
<clipPath id="clip0_5491_11881">
<rect width="125.213" height="44" fill="white" transform="translate(0.964844 0.437012)"/>
</clipPath>
</defs>
</svg>
