<svg width="56" height="56" viewBox="0 0 56 56" fill="none" xmlns="http://www.w3.org/2000/svg">
<g id="icons8_laravel 1">
<path id="Vector" d="M13.2244 8.76045C12.0746 8.80945 3.30636 9.55377 2.68336 9.61152C2.06036 9.66227 1.37335 9.95039 1.99635 11.4606C2.61935 12.9709 12.5752 34.9152 12.8552 35.5539C13.1335 36.1909 13.8564 37.2317 15.5452 36.8117C17.2759 36.3847 23.28 34.7799 26.5613 33.8996C28.292 37.1126 31.8284 43.6258 32.4846 44.5568C33.3544 45.8063 33.9606 45.5937 35.2976 45.1755C36.3476 44.8482 51.6706 39.2127 52.3601 38.9274C53.0496 38.6334 53.4734 38.4331 53.0061 37.7209C52.6614 37.2011 48.6175 31.6622 46.5017 28.759C47.9542 28.3652 53.1129 26.9632 53.6624 26.8039C54.3081 26.6342 54.3987 26.3177 54.0452 25.9152C53.7004 25.5127 48.8953 19.3634 48.0501 18.3239C47.2048 17.2844 46.7856 17.466 46.2693 17.5412C45.7443 17.6165 39.6669 18.6647 38.9617 18.7819C38.2564 18.9079 37.8133 19.1929 38.2473 19.8142C38.6323 20.3672 42.6289 26.1673 43.5144 27.4431L27.6243 31.3327L14.9812 9.73115C14.4807 8.96815 14.3724 8.70095 13.2244 8.76045ZM13.0261 10.2609C13.3219 10.2434 13.2885 10.3096 13.3953 10.4934C13.3953 10.4934 25.0596 31.0816 25.2556 31.4421C25.4691 31.8026 25.3489 31.9128 25.1599 31.9548C24.9709 31.9968 16.069 34.1756 15.593 34.2858C15.117 34.3943 15.1176 34.3445 15.0598 34.1765C15.0021 34.0085 4.48124 11.8038 4.33424 11.5256C4.18724 11.2491 4.19424 11.03 4.33424 11.03C4.47424 11.03 12.7391 10.2767 13.0261 10.2609ZM46.8504 18.9802C46.9683 19.0075 47.0921 19.0958 47.24 19.3015C47.5358 19.7127 51.555 24.921 51.7107 25.1223C51.8577 25.3165 51.594 25.4347 51.2493 25.5187C50.9045 25.594 45.2132 27.0363 45.2132 27.0363L40.5613 20.5114C40.43 20.3189 40.3246 20.133 40.6536 20.091C40.9808 20.049 46.2637 19.0651 46.5017 19.0144C46.6207 18.9846 46.7324 18.9528 46.8504 18.9802ZM44.6731 29.0803C44.7829 29.0927 44.8753 29.1705 44.9978 29.3674C45.2376 29.7716 50.1181 36.5432 50.2581 36.7707C50.3981 36.9965 50.5421 37.1481 50.0906 37.3073C49.6478 37.4753 35.0256 42.5168 34.7473 42.6428C34.4603 42.7688 34.2362 42.8094 33.8757 42.2634C33.5152 41.7174 28.759 33.3049 28.759 33.3049L44.2424 29.1862C44.4349 29.1232 44.5633 29.0678 44.6731 29.0803Z" fill="#FF2D20"/>
</g>
</svg>
