<svg width="190" height="55" viewBox="0 0 190 55" fill="none" xmlns="http://www.w3.org/2000/svg">
<g id="Logo" clip-path="url(#clip0_5622_29913)">
<g id="Layer 1">
<g id="Group">
<g id="Group_2">
<path id="Vector" d="M26.1026 43.5671C26.1585 43.4633 26.1864 43.3396 26.1864 43.204L26.1984 41.1252C26.1984 41.0214 26.1824 40.9177 26.1505 40.8139C26.1505 40.8139 26.1505 40.8139 26.1505 40.81C26.1385 40.7701 26.1226 40.7262 26.1066 40.6863C26.1026 40.6743 26.0946 40.6583 26.0866 40.6464C26.0707 40.6144 26.0547 40.5825 26.0388 40.5506C26.0308 40.5386 26.0228 40.5267 26.0148 40.5147C25.9909 40.4748 25.963 40.4349 25.935 40.399C25.935 40.399 25.935 40.395 25.931 40.391C25.8991 40.3511 25.8672 40.3112 25.8313 40.2753C25.8193 40.2633 25.8113 40.2553 25.7994 40.2434C25.7714 40.2154 25.7475 40.1915 25.7196 40.1676C25.7076 40.1556 25.6956 40.1476 25.6837 40.1356C25.6438 40.1037 25.6039 40.0718 25.56 40.0439L24.0118 39.1302L19.7904 36.6404L11.1361 31.5372L0 24.9736V36.6404H7.66081C8.21941 35.5232 9.37252 34.7531 10.7052 34.7531C12.5845 34.7531 14.1126 36.2773 14.1126 38.1606C14.1126 40.0439 12.5885 41.5681 10.7052 41.5681C9.44434 41.5681 8.34709 40.8818 7.75657 39.8603H0V43.9661H25.3964C25.7236 43.9661 25.9789 43.8144 26.1026 43.5671Z" fill="white"/>
<path id="Vector_2" d="M10.705 39.8319C11.6283 39.8319 12.3768 39.0834 12.3768 38.1601C12.3768 37.2368 11.6283 36.4883 10.705 36.4883C9.7817 36.4883 9.0332 37.2368 9.0332 38.1601C9.0332 39.0834 9.7817 39.8319 10.705 39.8319Z" fill="white"/>
<path id="Vector_3" d="M18.6972 17.8553C19.6205 17.8553 20.369 17.1068 20.369 16.1835C20.369 15.2602 19.6205 14.5117 18.6972 14.5117C17.7739 14.5117 17.0254 15.2602 17.0254 16.1835C17.0254 17.1068 17.7739 17.8553 18.6972 17.8553Z" fill="white"/>
<path id="Vector_4" d="M35.8223 26.0228C39.916 23.5291 42.0267 19.3236 42.0267 14.2563C42.0267 6.00097 36.2691 0 23.9241 0H0V7.35757H30.0567L30.0407 10.5416L30.0328 13.0433C30.0328 13.0713 30.0328 13.0992 30.0288 13.1271L30.0008 17.9031H21.6378C21.0473 18.9126 19.954 19.5909 18.7011 19.5909C16.8219 19.5909 15.2937 18.0667 15.2937 16.1835C15.2937 14.3002 16.8179 12.776 18.7011 12.776C20.0418 12.776 21.1989 13.554 21.7535 14.6792H26.6812L26.7051 10.5735H0.19551C0.12768 10.5735 0.0638401 10.5815 0 10.5935V14.1246C0 14.1246 0.02394 14.1446 0.03591 14.1525C0.0558601 14.1645 0.0758101 14.1805 0.0957601 14.1885L0.925681 14.6792L6.38401 17.8992L15.0423 23.0024L26.6413 29.8412C28.5245 30.9505 29.7734 32.9375 29.7654 34.8048L29.7375 39.8562L29.7215 42.4935V42.8606C29.7215 42.8686 29.7215 42.8766 29.7215 42.8846L29.7136 43.9659V44.2053V44.2531C29.7056 45.9808 28.4527 47.1818 26.6572 47.1818H0V54.5394H25.2049C37.5499 54.5394 44.1414 49.0092 44.1414 39.501C44.1414 33.0332 41.0691 28.357 35.8262 26.0228H35.8223Z" fill="white"/>
</g>
<g id="Group_3">
<path id="Vector_5" d="M55.9922 30.1802V13.2666H61.8016C63.9004 13.2666 65.5403 13.6576 66.7173 14.4357C67.8944 15.2137 68.4849 16.3748 68.4849 17.915C68.4849 18.7209 68.2934 19.4351 67.9143 20.0656C67.5353 20.692 66.9487 21.1668 66.1587 21.482C67.1522 21.7055 67.8824 22.1563 68.3532 22.8346C68.824 23.5129 69.0634 24.291 69.0634 25.1768C69.0634 26.8246 68.5088 28.0735 67.4036 28.9194C66.2944 29.7653 64.7064 30.1842 62.6395 30.1842H55.9922V30.1802ZM59.9303 20.3169H61.8814C62.7712 20.301 63.4375 20.1294 63.8804 19.7982C64.3233 19.4711 64.5428 18.9883 64.5428 18.3539C64.5428 17.6357 64.3193 17.109 63.8685 16.7778C63.4176 16.4466 62.7313 16.283 61.8016 16.283H59.9303V20.3169ZM59.9303 22.9184V27.1598H62.6395C63.4774 27.1598 64.1039 26.9962 64.5228 26.665C64.9418 26.3379 65.1492 25.8311 65.1492 25.1488C65.1492 24.4147 64.9697 23.8561 64.6106 23.481C64.2515 23.106 63.669 22.9184 62.863 22.9184H59.9343H59.9303Z" fill="white"/>
<path id="Vector_6" d="M75.2077 27.1598H82.4934V30.1802H71.2695V13.2666H75.2077V27.1638V27.1598Z" fill="white"/>
<path id="Vector_7" d="M97.7599 13.2666V24.3508C97.7599 26.278 97.1175 27.7743 95.8368 28.8356C94.556 29.8969 92.8762 30.4276 90.8014 30.4276C88.7266 30.4276 87.0109 29.8969 85.7221 28.8356C84.4333 27.7743 83.7949 26.278 83.7949 24.3508V13.2666H87.7331V24.3508C87.7331 25.3882 88.0004 26.1583 88.535 26.6571C89.0697 27.1558 89.8238 27.4072 90.8014 27.4072C91.7789 27.4072 92.5131 27.1598 93.0398 26.665C93.5625 26.1703 93.8218 25.4002 93.8218 24.3548V13.2706H97.7599V13.2666Z" fill="white"/>
<path id="Vector_8" d="M110.914 22.9424H104.279V27.1598H112.099V30.1802H100.341V13.2666H112.123V16.287H104.279V19.9259H110.914V22.9464V22.9424Z" fill="white"/>
<path id="Vector_9" d="M128.782 25.6997C128.782 25.1012 128.582 24.6423 128.187 24.3151C127.792 23.992 127.082 23.6448 126.061 23.2817C123.922 22.6074 122.338 21.8852 121.309 21.1152C120.279 20.3451 119.765 19.2319 119.765 17.7755C119.765 16.3192 120.379 15.214 121.608 14.3361C122.837 13.4623 124.393 13.0234 126.284 13.0234C128.175 13.0234 129.696 13.5062 130.893 14.4678C132.09 15.4334 132.668 16.6743 132.628 18.1905L132.604 18.2623H128.794C128.794 17.588 128.566 17.0414 128.108 16.6184C127.649 16.1955 127.018 15.984 126.212 15.984C125.406 15.984 124.804 16.1596 124.353 16.5067C123.902 16.8538 123.679 17.2848 123.679 17.7955C123.679 18.3062 123.906 18.6892 124.357 18.9845C124.808 19.2798 125.662 19.6548 126.907 20.1057C128.826 20.6803 130.274 21.3825 131.248 22.2204C132.221 23.0583 132.704 24.2074 132.704 25.6717C132.704 27.1361 132.126 28.3211 130.968 29.163C129.811 30.0049 128.275 30.4238 126.364 30.4238C124.453 30.4238 122.781 29.9411 121.38 28.9795C119.98 28.0139 119.298 26.6254 119.338 24.8139L119.362 24.7461H123.184C123.184 25.7236 123.447 26.4179 123.974 26.8368C124.501 27.2558 125.299 27.4633 126.368 27.4633C127.182 27.4633 127.788 27.2997 128.187 26.9765C128.586 26.6533 128.786 26.2264 128.786 25.6997H128.782Z" fill="white"/>
<path id="Vector_10" d="M140.577 23.3972H138.765V30.1802H134.827V13.2666H138.765V19.89H140.102L143.821 13.2666H148.7L143.462 20.9234L149.155 30.1842H144.367L140.581 23.4012L140.577 23.3972Z" fill="white"/>
<path id="Vector_11" d="M156.456 20.6561H156.524L159.896 13.2666H164.161L158.411 24.2351V30.1842H154.497V24.0396L148.863 13.2706H153.105L156.464 20.6601L156.456 20.6561Z" fill="white"/>
<path id="Vector_12" d="M175.545 30.1802H171.631V13.2666H175.545V30.1842V30.1802Z" fill="white"/>
<path id="Vector_13" d="M189.928 16.287H185.468V30.1842H181.529V16.287H177.104V13.2666H189.932V16.287H189.928Z" fill="white"/>
</g>
<g id="Group_4">
<path id="Vector_14" d="M61.398 42.6495L61.39 39.0066L59.5826 42.0231H59.1277L57.3202 39.0545V42.6535H56.3467V37.1553H57.1886L59.3711 40.7981L61.5137 37.1553H62.3556L62.3636 42.6535H61.398V42.6495Z" fill="white"/>
<path id="Vector_15" d="M67.4154 41.3768H64.6663L64.1237 42.6496H63.0703L65.5441 37.1514H66.5496L69.0314 42.6496H67.9621L67.4114 41.3768H67.4154ZM67.0763 40.5748L66.0389 38.1728L65.0094 40.5748H67.0763Z" fill="white"/>
<path id="Vector_16" d="M70.2082 42.5496C69.8132 42.4299 69.5019 42.2703 69.2705 42.0708L69.6256 41.2768C69.8491 41.4563 70.1284 41.5999 70.4555 41.7117C70.7827 41.8234 71.1099 41.8792 71.4411 41.8792C71.8481 41.8792 72.1553 41.8154 72.3548 41.6837C72.5543 41.5521 72.658 41.3805 72.658 41.165C72.658 41.0094 72.6022 40.8777 72.4904 40.778C72.3787 40.6743 72.2351 40.5945 72.0635 40.5386C71.8919 40.4827 71.6565 40.4149 71.3573 40.3431C70.9383 40.2433 70.5992 40.1436 70.3398 40.0438C70.0805 39.9441 69.857 39.7885 69.6735 39.577C69.486 39.3655 69.3942 39.0783 69.3942 38.7152C69.3942 38.4119 69.478 38.1366 69.6416 37.8852C69.8052 37.6379 70.0565 37.4384 70.3877 37.2907C70.7189 37.1431 71.1259 37.0713 71.6087 37.0713C71.9438 37.0713 72.275 37.1152 72.5982 37.199C72.9214 37.2828 73.2047 37.4025 73.4401 37.5621L73.1169 38.3561C72.8775 38.2164 72.6261 38.1087 72.3628 38.0329C72.0994 37.9611 71.848 37.9212 71.6007 37.9212C71.1977 37.9212 70.8984 37.989 70.7029 38.1246C70.5074 38.2603 70.4077 38.4399 70.4077 38.6673C70.4077 38.8229 70.4635 38.9546 70.5752 39.0503C70.687 39.1501 70.8306 39.2299 71.0022 39.2857C71.1737 39.3416 71.4092 39.4094 71.7084 39.4812C72.1154 39.577 72.4505 39.6728 72.7139 39.7765C72.9772 39.8803 73.2007 40.0359 73.3842 40.2433C73.5717 40.4508 73.6635 40.7341 73.6635 41.0932C73.6635 41.3965 73.5797 41.6718 73.4161 41.9191C73.2525 42.1665 73.0012 42.362 72.666 42.5097C72.3308 42.6573 71.9239 42.7291 71.4411 42.7291C71.0181 42.7291 70.6072 42.6693 70.2121 42.5496H70.2082Z" fill="white"/>
<path id="Vector_17" d="M75.7062 38.0172H73.8828V37.1514H78.5471V38.0172H76.7237V42.6496H75.7023V38.0172H75.7062Z" fill="white"/>
<path id="Vector_18" d="M83.443 41.7956V42.6535H79.3213V37.1553H83.3352V38.0131H80.3427V39.4415H82.9961V40.2834H80.3427V41.7996H83.443V41.7956Z" fill="white"/>
<path id="Vector_19" d="M88.179 42.6496L87.0578 41.0376C87.0099 41.0416 86.9381 41.0456 86.8463 41.0456H85.6054V42.6496H84.584V37.1514H86.8463C87.3211 37.1514 87.7361 37.2312 88.0912 37.3868C88.4463 37.5424 88.7136 37.7698 88.9052 38.0611C89.0927 38.3563 89.1884 38.7035 89.1884 39.1065C89.1884 39.5095 89.0887 39.8765 88.8852 40.1758C88.6817 40.475 88.3944 40.6985 88.0154 40.8421L89.2802 42.6496H88.179ZM87.8079 38.3005C87.5765 38.113 87.2413 38.0172 86.7944 38.0172H85.6014V40.2077H86.7944C87.2413 40.2077 87.5765 40.112 87.8079 39.9204C88.0393 39.7289 88.155 39.4576 88.155 39.1065C88.155 38.7553 88.0393 38.484 87.8079 38.2965V38.3005Z" fill="white"/>
<path id="Vector_20" d="M92.4922 37.1514H93.5136V42.6496H92.4922V37.1514Z" fill="white"/>
<path id="Vector_21" d="M96.1115 38.0172H94.2881V37.1514H98.9524V38.0172H97.129V42.6496H96.1075V38.0172H96.1115Z" fill="white"/>
<path id="Vector_22" d="M100.157 41.5799C100.276 41.6996 100.336 41.8592 100.336 42.0508C100.336 42.1346 100.324 42.2223 100.3 42.3141C100.276 42.4059 100.228 42.5415 100.157 42.7251L99.7577 43.8343H99.1232L99.4385 42.6333C99.3227 42.5854 99.231 42.5096 99.1671 42.4099C99.1033 42.3061 99.0674 42.1904 99.0674 42.0508C99.0674 41.8553 99.1272 41.6996 99.2469 41.5799C99.3666 41.4602 99.5183 41.4004 99.7018 41.4004C99.8853 41.4004 100.037 41.4602 100.157 41.5799Z" fill="white"/>
<path id="Vector_23" d="M108.608 42.6495L108.6 39.0066L106.793 42.0231H106.338L104.53 39.0545V42.6535H103.557V37.1553H104.399L106.581 40.7981L108.724 37.1553H109.566L109.574 42.6535H108.608V42.6495Z" fill="white"/>
<path id="Vector_24" d="M114.62 41.3768H111.871L111.329 42.6496H110.275L112.749 37.1514H113.755L116.236 42.6496H115.167L114.617 41.3768H114.62ZM114.281 40.5748L113.244 38.1728L112.215 40.5748H114.281Z" fill="white"/>
<path id="Vector_25" d="M117.413 42.5496C117.018 42.4299 116.707 42.2703 116.476 42.0708L116.831 41.2768C117.054 41.4563 117.333 41.5999 117.661 41.7117C117.988 41.8234 118.315 41.8792 118.646 41.8792C119.053 41.8792 119.36 41.8154 119.56 41.6837C119.759 41.5521 119.863 41.3805 119.863 41.165C119.863 41.0094 119.807 40.8777 119.696 40.778C119.584 40.6743 119.44 40.5945 119.269 40.5386C119.097 40.4827 118.862 40.4149 118.562 40.3431C118.143 40.2433 117.804 40.1436 117.545 40.0438C117.286 39.9441 117.062 39.7885 116.879 39.577C116.691 39.3655 116.599 39.0783 116.599 38.7152C116.599 38.4119 116.683 38.1366 116.847 37.8852C117.01 37.6379 117.262 37.4384 117.593 37.2907C117.924 37.1431 118.331 37.0713 118.814 37.0713C119.149 37.0713 119.48 37.1152 119.803 37.199C120.126 37.2828 120.41 37.4025 120.645 37.5621L120.322 38.3561C120.083 38.2164 119.831 38.1087 119.568 38.0329C119.304 37.9611 119.053 37.9212 118.806 37.9212C118.403 37.9212 118.104 37.989 117.908 38.1246C117.712 38.2603 117.613 38.4399 117.613 38.6673C117.613 38.8229 117.669 38.9546 117.78 39.0503C117.892 39.1501 118.036 39.2299 118.207 39.2857C118.379 39.3416 118.614 39.4094 118.913 39.4812C119.32 39.577 119.656 39.6728 119.919 39.7765C120.182 39.8803 120.406 40.0359 120.589 40.2433C120.777 40.4508 120.869 40.7341 120.869 41.0932C120.869 41.3965 120.785 41.6718 120.621 41.9191C120.458 42.1665 120.206 42.362 119.871 42.5097C119.536 42.6573 119.129 42.7291 118.646 42.7291C118.223 42.7291 117.812 42.6693 117.417 42.5496H117.413Z" fill="white"/>
<path id="Vector_26" d="M122.916 38.0172H121.093V37.1514H125.757V38.0172H123.934V42.6496H122.912V38.0172H122.916Z" fill="white"/>
<path id="Vector_27" d="M130.653 41.7956V42.6535H126.531V37.1553H130.545V38.0131H127.553V39.4415H130.206V40.2834H127.553V41.7996H130.657L130.653 41.7956Z" fill="white"/>
<path id="Vector_28" d="M135.389 42.6496L134.268 41.0376C134.22 41.0416 134.148 41.0456 134.056 41.0456H132.815V42.6496H131.794V37.1514H134.056C134.531 37.1514 134.946 37.2312 135.301 37.3868C135.656 37.5424 135.924 37.7698 136.115 38.0611C136.303 38.3563 136.398 38.7035 136.398 39.1065C136.398 39.5095 136.299 39.8765 136.095 40.1758C135.892 40.475 135.604 40.6985 135.225 40.8421L136.49 42.6496H135.389ZM135.018 38.3005C134.786 38.113 134.451 38.0172 134.004 38.0172H132.811V40.2077H134.004C134.451 40.2077 134.786 40.112 135.018 39.9204C135.249 39.7289 135.365 39.4576 135.365 39.1065C135.365 38.7553 135.249 38.484 135.018 38.2965V38.3005Z" fill="white"/>
<path id="Vector_29" d="M140.815 38.0172H138.991V37.1514H143.656V38.0172H141.832V42.6496H140.811V38.0172H140.815Z" fill="white"/>
<path id="Vector_30" d="M149.31 37.1514V42.6496H148.288V40.2955H145.443V42.6496H144.422V37.1514H145.443V39.4217H148.288V37.1514H149.31Z" fill="white"/>
<path id="Vector_31" d="M154.912 41.7956V42.6535H150.79V37.1553H154.804V38.0131H151.811V39.4415H154.465V40.2834H151.811V41.7996H154.916L154.912 41.7956Z" fill="white"/>
<path id="Vector_32" d="M159.237 38.0091V39.6809H161.891V40.5468H159.237V42.6535H158.216V37.1553H162.23V38.0131H159.237V38.0091Z" fill="white"/>
<path id="Vector_33" d="M163.809 42.0871C163.386 41.6602 163.175 41.0497 163.175 40.2517V37.1475H164.196V40.2118C164.196 41.2891 164.663 41.8277 165.593 41.8277C166.522 41.8277 166.981 41.2891 166.981 40.2118V37.1475H167.987V40.2517C167.987 41.0457 167.775 41.6602 167.356 42.0871C166.933 42.514 166.343 42.7255 165.585 42.7255C164.827 42.7255 164.232 42.514 163.809 42.0871Z" fill="white"/>
<path id="Vector_34" d="M170.429 38.0172H168.605V37.1514H173.27V38.0172H171.446V42.6496H170.425V38.0172H170.429Z" fill="white"/>
<path id="Vector_35" d="M174.531 42.0871C174.108 41.6602 173.896 41.0497 173.896 40.2517V37.1475H174.918V40.2118C174.918 41.2891 175.385 41.8277 176.314 41.8277C177.244 41.8277 177.703 41.2891 177.703 40.2118V37.1475H178.708V40.2517C178.708 41.0457 178.497 41.6602 178.078 42.0871C177.655 42.514 177.065 42.7255 176.306 42.7255C175.548 42.7255 174.954 42.514 174.531 42.0871Z" fill="white"/>
<path id="Vector_36" d="M183.736 42.6496L182.614 41.0376C182.567 41.0416 182.495 41.0456 182.403 41.0456H181.162V42.6496H180.141V37.1514H182.403C182.878 37.1514 183.293 37.2312 183.648 37.3868C184.003 37.5424 184.27 37.7698 184.462 38.0611C184.649 38.3563 184.745 38.7035 184.745 39.1065C184.745 39.5095 184.645 39.8765 184.442 40.1758C184.238 40.475 183.951 40.6985 183.572 40.8421L184.837 42.6496H183.736ZM183.365 38.3005C183.133 38.113 182.798 38.0172 182.351 38.0172H181.158V40.2077H182.351C182.798 40.2077 183.133 40.112 183.365 39.9204C183.596 39.7289 183.712 39.4576 183.712 39.1065C183.712 38.7553 183.596 38.484 183.365 38.2965V38.3005Z" fill="white"/>
<path id="Vector_37" d="M190 41.7956V42.6535H185.878V37.1553H189.892V38.0131H186.899V39.4415H189.553V40.2834H186.899V41.7996H190.004L190 41.7956Z" fill="white"/>
</g>
</g>
</g>
</g>
<defs>
<clipPath id="clip0_5622_29913">
<rect width="190" height="54.5434" fill="white"/>
</clipPath>
</defs>
</svg>
