<svg width="170" height="49" viewBox="0 0 170 49" fill="none" xmlns="http://www.w3.org/2000/svg">
<g id="Asset 18 2" clip-path="url(#clip0_355_57694)">
<g id="Layer 1">
<g id="Group">
<g id="Group_2">
<path id="Vector" d="M23.355 39.0801C23.4049 38.9872 23.4299 38.8766 23.4299 38.7552L23.4406 36.8952C23.4406 36.8024 23.4264 36.7096 23.3978 36.6168C23.3978 36.6168 23.3978 36.6168 23.3978 36.6132C23.3871 36.5775 23.3728 36.5382 23.3585 36.5025C23.355 36.4918 23.3478 36.4775 23.3407 36.4668C23.3264 36.4383 23.3121 36.4097 23.2978 36.3811C23.2907 36.3704 23.2836 36.3597 23.2764 36.349C23.255 36.3133 23.23 36.2776 23.205 36.2455C23.205 36.2455 23.205 36.2419 23.2015 36.2383C23.1729 36.2026 23.1443 36.1669 23.1122 36.1348C23.1015 36.1241 23.0944 36.117 23.0836 36.1063C23.0587 36.0813 23.0372 36.0598 23.0122 36.0384C23.0015 36.0277 22.9908 36.0206 22.9801 36.0099C22.9444 35.9813 22.9087 35.9527 22.8694 35.9278L21.4843 35.1102L17.7072 32.8825L9.96388 28.3165L0 22.4438V32.8825H6.85441C7.35421 31.8829 8.38594 31.1939 9.57832 31.1939C11.2598 31.1939 12.6271 32.5577 12.6271 34.2427C12.6271 35.9278 11.2634 37.2915 9.57832 37.2915C8.4502 37.2915 7.46845 36.6775 6.94009 35.7635H0V39.4371H22.7231C23.0158 39.4371 23.2443 39.3014 23.355 39.0801Z" fill="#27C6FF"/>
<path id="Vector_2" d="M9.58177 35.7382C10.4079 35.7382 11.0776 35.0685 11.0776 34.2424C11.0776 33.4163 10.4079 32.7466 9.58177 32.7466C8.75564 32.7466 8.08594 33.4163 8.08594 34.2424C8.08594 35.0685 8.75564 35.7382 9.58177 35.7382Z" fill="#27C6FF"/>
<path id="Vector_3" d="M16.7302 16.0747C17.5563 16.0747 18.226 15.405 18.226 14.5788C18.226 13.7527 17.5563 13.083 16.7302 13.083C15.9041 13.083 15.2344 13.7527 15.2344 14.5788C15.2344 15.405 15.9041 16.0747 16.7302 16.0747Z" fill="#27C6FF"/>
<path id="Vector_4" d="M32.0515 23.3827C35.7143 21.1514 37.6028 17.3886 37.6028 12.8547C37.6028 5.46841 32.4513 0.0991211 21.4057 0.0991211H0V6.68221H26.8928L26.8786 9.53107L26.8714 11.7695C26.8714 11.7945 26.8714 11.8194 26.8678 11.8444L26.8429 16.1177H19.3601C18.8318 17.0209 17.8536 17.6278 16.7326 17.6278C15.0511 17.6278 13.6838 16.2641 13.6838 14.5791C13.6838 12.894 15.0476 11.5303 16.7326 11.5303C17.9321 11.5303 18.9674 12.2264 19.4637 13.2332H23.8726L23.894 9.55963H0.17493C0.11424 9.55963 0.0571201 9.56677 0 9.57748V12.7369C0 12.7369 0.02142 12.7548 0.03213 12.7619C0.0499801 12.7726 0.0678301 12.7869 0.0856801 12.7941L0.828241 13.2332L5.71201 16.1142L13.4589 20.6802L23.8369 26.7992C25.522 27.7916 26.6394 29.5695 26.6322 31.2403L26.6072 35.7599L26.593 38.1197V38.4481C26.593 38.4552 26.593 38.4624 26.593 38.4695L26.5858 39.437V39.6512V39.694C26.5787 41.2398 25.4577 42.3144 23.8512 42.3144H0V48.8975H22.5517C33.5973 48.8975 39.4949 43.9495 39.4949 35.4422C39.4949 29.6552 36.746 25.4711 32.0551 23.3827H32.0515Z" fill="#27C6FF"/>
</g>
<g id="Group_3">
<path id="Vector_5" d="M50.1016 27.1025V11.9692H55.2995C57.1773 11.9692 58.6446 12.3191 59.6977 13.0152C60.7509 13.7114 61.2792 14.7503 61.2792 16.1283C61.2792 16.8494 61.1079 17.4885 60.7687 18.0525C60.4296 18.613 59.9048 19.0378 59.1979 19.3199C60.0869 19.5198 60.7402 19.9232 61.1614 20.5301C61.5827 21.137 61.7969 21.8332 61.7969 22.6257C61.7969 24.1001 61.3007 25.2175 60.3118 25.9744C59.3193 26.7312 57.8985 27.1061 56.0492 27.1061H50.1016V27.1025ZM53.6252 18.2774H55.3709C56.167 18.2632 56.7632 18.1096 57.1595 17.8133C57.5557 17.5206 57.7521 17.0886 57.7521 16.521C57.7521 15.8784 57.5522 15.4072 57.1488 15.1108C56.7453 14.8145 56.1313 14.6682 55.2995 14.6682H53.6252V18.2774ZM53.6252 20.6051V24.4H56.0492C56.7989 24.4 57.3594 24.2536 57.7342 23.9573C58.1091 23.6646 58.2947 23.2112 58.2947 22.6007C58.2947 21.9438 58.1341 21.444 57.8128 21.1084C57.4915 20.7729 56.9702 20.6051 56.2491 20.6051H53.6287H53.6252Z" fill="#27C6FF"/>
<path id="Vector_6" d="M67.297 24.4H73.8159V27.1025H63.7734V11.9692H67.297V24.4036V24.4Z" fill="#27C6FF"/>
<path id="Vector_7" d="M87.4716 11.9692V21.8867C87.4716 23.611 86.8968 24.9498 85.7508 25.8994C84.6049 26.849 83.1019 27.3238 81.2455 27.3238C79.3891 27.3238 77.854 26.849 76.7009 25.8994C75.5478 24.9498 74.9766 23.611 74.9766 21.8867V11.9692H78.5002V21.8867C78.5002 22.8149 78.7393 23.5039 79.2177 23.9502C79.6961 24.3964 80.3708 24.6213 81.2455 24.6213C82.1201 24.6213 82.777 24.4 83.2483 23.9573C83.7159 23.5146 83.948 22.8256 83.948 21.8903V11.9728H87.4716V11.9692Z" fill="#27C6FF"/>
<path id="Vector_8" d="M99.2418 20.6265H93.3048V24.4H100.302V27.1025H89.7812V11.9692H100.323V14.6717H93.3048V17.9276H99.2418V20.6301V20.6265Z" fill="#27C6FF"/>
<path id="Vector_9" d="M115.233 23.0934C115.233 22.5579 115.054 22.1473 114.701 21.8546C114.348 21.5654 113.712 21.2548 112.798 20.9299C110.885 20.3266 109.467 19.6804 108.546 18.9914C107.625 18.3024 107.165 17.3064 107.165 16.0033C107.165 14.7003 107.715 13.7114 108.814 12.926C109.914 12.1442 111.306 11.7515 112.998 11.7515C114.69 11.7515 116.05 12.1834 117.121 13.0438C118.192 13.9077 118.71 15.018 118.674 16.3746L118.653 16.4389H115.244C115.244 15.8355 115.04 15.3465 114.63 14.968C114.219 14.5896 113.655 14.4004 112.934 14.4004C112.213 14.4004 111.674 14.5575 111.27 14.8681C110.867 15.1787 110.667 15.5642 110.667 16.0212C110.667 16.4781 110.87 16.8209 111.274 17.0851C111.677 17.3492 112.441 17.6848 113.555 18.0882C115.272 18.6023 116.568 19.2306 117.439 19.9803C118.31 20.73 118.742 21.7582 118.742 23.0684C118.742 24.3786 118.225 25.4389 117.189 26.1921C116.154 26.9454 114.78 27.3203 113.07 27.3203C111.359 27.3203 109.864 26.8883 108.611 26.0279C107.357 25.164 106.747 23.9216 106.783 22.3008L106.804 22.2401H110.224C110.224 23.1148 110.46 23.736 110.931 24.1108C111.402 24.4857 112.116 24.6713 113.073 24.6713C113.801 24.6713 114.344 24.5249 114.701 24.2358C115.058 23.9466 115.236 23.5646 115.236 23.0934H115.233Z" fill="#27C6FF"/>
<path id="Vector_10" d="M125.785 21.0335H124.164V27.1025H120.641V11.9692H124.164V17.8954H125.36L128.687 11.9692H133.054L128.366 18.8201L133.461 27.1061H129.177L125.789 21.037L125.785 21.0335Z" fill="#27C6FF"/>
<path id="Vector_11" d="M139.989 18.5809H140.05L143.066 11.9692H146.883L141.738 21.7832V27.1061H138.236V21.6082L133.195 11.9728H136.99L139.996 18.5845L139.989 18.5809Z" fill="#27C6FF"/>
<path id="Vector_12" d="M157.072 27.1025H153.57V11.9692H157.072V27.1061V27.1025Z" fill="#27C6FF"/>
<path id="Vector_13" d="M169.943 14.6717H165.951V27.1061H162.428V14.6717H158.469V11.9692H169.946V14.6717H169.943Z" fill="#27C6FF"/>
</g>
<g id="Group_4">
<path id="Vector_14" d="M54.9337 38.2592L54.9265 34.9997L53.3093 37.6987H52.9024L51.2851 35.0426V38.2627H50.4141V33.3433H51.1673L53.1201 36.6027L55.0372 33.3433H55.7905L55.7976 38.2627H54.9337V38.2592Z" fill="#08183B"/>
<path id="Vector_15" d="M60.3174 37.12H57.8577L57.3722 38.2588H56.4297L58.6431 33.3394H59.5427L61.7633 38.2588H60.8065L60.3138 37.12H60.3174ZM60.014 36.4024L59.0858 34.2533L58.1647 36.4024H60.014Z" fill="#08183B"/>
<path id="Vector_16" d="M62.8155 38.1697C62.4621 38.0626 62.1836 37.9198 61.9766 37.7413L62.2943 37.0308C62.4942 37.1915 62.7441 37.32 63.0369 37.42C63.3296 37.5199 63.6223 37.5699 63.9186 37.5699C64.2828 37.5699 64.5577 37.5128 64.7362 37.395C64.9147 37.2772 65.0075 37.1237 65.0075 36.9309C65.0075 36.7917 64.9575 36.6738 64.8576 36.5846C64.7576 36.4918 64.6291 36.4204 64.4756 36.3704C64.3221 36.3204 64.1114 36.2597 63.8437 36.1955C63.4688 36.1062 63.1654 36.017 62.9333 35.9277C62.7013 35.8385 62.5014 35.6992 62.3371 35.51C62.1693 35.3208 62.0872 35.0638 62.0872 34.7389C62.0872 34.4676 62.1622 34.2213 62.3086 33.9963C62.4549 33.775 62.6799 33.5965 62.9762 33.4644C63.2725 33.3323 63.6366 33.2681 64.0686 33.2681C64.3685 33.2681 64.6648 33.3073 64.9539 33.3823C65.2431 33.4573 65.4966 33.5644 65.7072 33.7072L65.418 34.4176C65.2038 34.2927 64.9789 34.1963 64.7433 34.1284C64.5077 34.0642 64.2828 34.0285 64.0614 34.0285C63.7009 34.0285 63.4331 34.0892 63.2582 34.2105C63.0833 34.3319 62.994 34.4926 62.994 34.6961C62.994 34.8353 63.044 34.9531 63.144 35.0388C63.2439 35.128 63.3724 35.1994 63.5259 35.2494C63.6795 35.2994 63.8901 35.3601 64.1578 35.4243C64.522 35.51 64.8219 35.5957 65.0575 35.6885C65.2931 35.7813 65.493 35.9206 65.6572 36.1062C65.825 36.2919 65.9071 36.5453 65.9071 36.8666C65.9071 37.1379 65.8322 37.3843 65.6858 37.6056C65.5394 37.827 65.3145 38.0019 65.0146 38.134C64.7148 38.2661 64.3506 38.3303 63.9186 38.3303C63.5402 38.3303 63.1725 38.2768 62.8191 38.1697H62.8155Z" fill="#08183B"/>
<path id="Vector_17" d="M67.7331 34.114H66.1016V33.3394H70.2749V34.114H68.6434V38.2588H67.7295V34.114H67.7331Z" fill="#08183B"/>
<path id="Vector_18" d="M74.6566 37.4952V38.2627H70.9688V33.3433H74.5602V34.1108H71.8827V35.3889H74.2567V36.1421H71.8827V37.4987H74.6566V37.4952Z" fill="#08183B"/>
<path id="Vector_19" d="M78.8963 38.2588L77.8931 36.8165C77.8502 36.8201 77.786 36.8237 77.7039 36.8237H76.5936V38.2588H75.6797V33.3394H77.7039C78.1287 33.3394 78.5 33.4108 78.8177 33.55C79.1354 33.6892 79.3746 33.8927 79.546 34.1533C79.7138 34.4175 79.7995 34.7281 79.7995 35.0887C79.7995 35.4492 79.7102 35.7777 79.5282 36.0454C79.3461 36.3132 79.089 36.5131 78.7499 36.6416L79.8816 38.2588H78.8963ZM78.5643 34.3675C78.3572 34.1997 78.0573 34.114 77.6575 34.114H76.59V36.074H77.6575C78.0573 36.074 78.3572 35.9883 78.5643 35.8169C78.7713 35.6456 78.8748 35.4028 78.8748 35.0887C78.8748 34.7745 78.7713 34.5317 78.5643 34.3639V34.3675Z" fill="#08183B"/>
<path id="Vector_20" d="M82.7578 33.3394H83.6717V38.2588H82.7578V33.3394Z" fill="#08183B"/>
<path id="Vector_21" d="M85.9909 34.114H84.3594V33.3394H88.5327V34.114H86.9012V38.2588H85.9873V34.114H85.9909Z" fill="#08183B"/>
<path id="Vector_22" d="M89.6152 37.3023C89.7223 37.4094 89.7759 37.5522 89.7759 37.7235C89.7759 37.7985 89.7652 37.877 89.7438 37.9591C89.7223 38.0412 89.6795 38.1626 89.6152 38.3268L89.2582 39.3193H88.6906L88.9726 38.2447C88.8691 38.2019 88.787 38.1341 88.7299 38.0448C88.6728 37.952 88.6406 37.8485 88.6406 37.7235C88.6406 37.5486 88.6942 37.4094 88.8013 37.3023C88.9084 37.1952 89.044 37.1416 89.2083 37.1416C89.3725 37.1416 89.5081 37.1952 89.6152 37.3023Z" fill="#08183B"/>
<path id="Vector_23" d="M97.1759 38.2592L97.1687 34.9997L95.5515 37.6987H95.1445L93.5273 35.0426V38.2627H92.6562V33.3433H93.4095L95.3623 36.6027L97.2794 33.3433H98.0327L98.0398 38.2627H97.1759V38.2592Z" fill="#08183B"/>
<path id="Vector_24" d="M102.552 37.12H100.092L99.6065 38.2588H98.6641L100.877 33.3394H101.777L103.998 38.2588H103.041L102.548 37.12H102.552ZM102.248 36.4024L101.32 34.2533L100.399 36.4024H102.248Z" fill="#08183B"/>
<path id="Vector_25" d="M105.05 38.1697C104.696 38.0626 104.418 37.9198 104.211 37.7413L104.529 37.0308C104.729 37.1915 104.978 37.32 105.271 37.42C105.564 37.5199 105.857 37.5699 106.153 37.5699C106.517 37.5699 106.792 37.5128 106.971 37.395C107.149 37.2772 107.242 37.1237 107.242 36.9309C107.242 36.7917 107.192 36.6738 107.092 36.5846C106.992 36.4918 106.863 36.4204 106.71 36.3704C106.556 36.3204 106.346 36.2597 106.078 36.1955C105.703 36.1062 105.4 36.017 105.168 35.9277C104.936 35.8385 104.736 35.6992 104.572 35.51C104.404 35.3208 104.322 35.0638 104.322 34.7389C104.322 34.4676 104.397 34.2213 104.543 33.9963C104.689 33.775 104.914 33.5965 105.211 33.4644C105.507 33.3323 105.871 33.2681 106.303 33.2681C106.603 33.2681 106.899 33.3073 107.188 33.3823C107.477 33.4573 107.731 33.5644 107.942 33.7072L107.652 34.4176C107.438 34.2927 107.213 34.1963 106.978 34.1284C106.742 34.0642 106.517 34.0285 106.296 34.0285C105.935 34.0285 105.667 34.0892 105.493 34.2105C105.318 34.3319 105.228 34.4926 105.228 34.6961C105.228 34.8353 105.278 34.9531 105.378 35.0388C105.478 35.128 105.607 35.1994 105.76 35.2494C105.914 35.2994 106.124 35.3601 106.392 35.4243C106.756 35.51 107.056 35.5957 107.292 35.6885C107.527 35.7813 107.727 35.9206 107.892 36.1062C108.059 36.2919 108.142 36.5453 108.142 36.8666C108.142 37.1379 108.067 37.3843 107.92 37.6056C107.774 37.827 107.549 38.0019 107.249 38.134C106.949 38.2661 106.585 38.3303 106.153 38.3303C105.775 38.3303 105.407 38.2768 105.053 38.1697H105.05Z" fill="#08183B"/>
<path id="Vector_26" d="M109.975 34.114H108.344V33.3394H112.517V34.114H110.886V38.2588H109.972V34.114H109.975Z" fill="#08183B"/>
<path id="Vector_27" d="M116.899 37.4952V38.2627H113.211V33.3433H116.802V34.1108H114.125V35.3889H116.499V36.1421H114.125V37.4987H116.902L116.899 37.4952Z" fill="#08183B"/>
<path id="Vector_28" d="M121.138 38.2588L120.135 36.8165C120.092 36.8201 120.028 36.8237 119.946 36.8237H118.836V38.2588H117.922V33.3394H119.946C120.371 33.3394 120.742 33.4108 121.06 33.55C121.378 33.6892 121.617 33.8927 121.788 34.1533C121.956 34.4175 122.042 34.7281 122.042 35.0887C122.042 35.4492 121.952 35.7777 121.77 36.0454C121.588 36.3132 121.331 36.5131 120.992 36.6416L122.124 38.2588H121.138ZM120.806 34.3675C120.599 34.1997 120.3 34.114 119.9 34.114H118.832V36.074H119.9C120.3 36.074 120.599 35.9883 120.806 35.8169C121.014 35.6456 121.117 35.4028 121.117 35.0887C121.117 34.7745 121.014 34.5317 120.806 34.3639V34.3675Z" fill="#08183B"/>
<path id="Vector_29" d="M125.991 34.114H124.359V33.3394H128.533V34.114H126.901V38.2588H125.987V34.114H125.991Z" fill="#08183B"/>
<path id="Vector_30" d="M133.592 33.3394V38.2588H132.678V36.1525H130.133V38.2588H129.219V33.3394H130.133V35.3707H132.678V33.3394H133.592Z" fill="#08183B"/>
<path id="Vector_31" d="M138.602 37.4952V38.2627H134.914V33.3433H138.505V34.1108H135.828V35.3889H138.202V36.1421H135.828V37.4987H138.605L138.602 37.4952Z" fill="#08183B"/>
<path id="Vector_32" d="M142.476 34.1072V35.6031H144.85V36.3778H142.476V38.2627H141.562V33.3433H145.154V34.1108H142.476V34.1072Z" fill="#08183B"/>
<path id="Vector_33" d="M146.568 37.7556C146.189 37.3736 146 36.8274 146 36.1134V33.3359H146.914V36.0777C146.914 37.0416 147.332 37.5236 148.163 37.5236C148.995 37.5236 149.406 37.0416 149.406 36.0777V33.3359H150.305V36.1134C150.305 36.8238 150.116 37.3736 149.741 37.7556C149.363 38.1376 148.835 38.3268 148.156 38.3268C147.478 38.3268 146.946 38.1376 146.568 37.7556Z" fill="#08183B"/>
<path id="Vector_34" d="M152.491 34.114H150.859V33.3394H155.033V34.114H153.401V38.2588H152.487V34.114H152.491Z" fill="#08183B"/>
<path id="Vector_35" d="M156.161 37.7556C155.783 37.3736 155.594 36.8274 155.594 36.1134V33.3359H156.508V36.0777C156.508 37.0416 156.925 37.5236 157.757 37.5236C158.589 37.5236 159 37.0416 159 36.0777V33.3359H159.899V36.1134C159.899 36.8238 159.71 37.3736 159.335 37.7556C158.957 38.1376 158.428 38.3268 157.75 38.3268C157.072 38.3268 156.54 38.1376 156.161 37.7556Z" fill="#08183B"/>
<path id="Vector_36" d="M164.396 38.2588L163.393 36.8165C163.35 36.8201 163.286 36.8237 163.204 36.8237H162.094V38.2588H161.18V33.3394H163.204C163.629 33.3394 164 33.4108 164.318 33.55C164.635 33.6892 164.875 33.8927 165.046 34.1533C165.214 34.4175 165.299 34.7281 165.299 35.0887C165.299 35.4492 165.21 35.7777 165.028 36.0454C164.846 36.3132 164.589 36.5131 164.25 36.6416L165.382 38.2588H164.396ZM164.064 34.3675C163.857 34.1997 163.557 34.114 163.157 34.114H162.09V36.074H163.157C163.557 36.074 163.857 35.9883 164.064 35.8169C164.271 35.6456 164.375 35.4028 164.375 35.0887C164.375 34.7745 164.271 34.5317 164.064 34.3639V34.3675Z" fill="#08183B"/>
<path id="Vector_37" d="M170 37.4952V38.2627H166.312V33.3433H169.904V34.1108H167.226V35.3889H169.6V36.1421H167.226V37.4987H170.004L170 37.4952Z" fill="#08183B"/>
</g>
</g>
</g>
</g>
<defs>
<clipPath id="clip0_355_57694">
<rect width="170" height="48.8019" fill="white" transform="translate(0 0.0991211)"/>
</clipPath>
</defs>
</svg>
