<svg width="24" height="17" viewBox="0 0 24 17" fill="none" xmlns="http://www.w3.org/2000/svg">
<g id="Logo">
<path id="Logo_2" fill-rule="evenodd" clip-rule="evenodd" d="M21.3504 0.791595C22.3825 1.06357 23.199 1.8644 23.4763 2.87676C23.9846 4.72017 24 8.54297 24 8.54297C24 8.54297 24 12.3809 23.4917 14.2092C23.2144 15.2215 22.3979 16.0224 21.3659 16.2943C19.5019 16.793 12 16.793 12 16.793C12 16.793 4.49807 16.793 2.63415 16.2943C1.60205 16.0224 0.785623 15.2215 0.508344 14.2092C0 12.3658 0 8.54297 0 8.54297C0 8.54297 0 4.72017 0.49294 2.89187C0.770218 1.87951 1.58665 1.07868 2.61874 0.806705C4.48267 0.308079 11.9846 0.292969 11.9846 0.292969C11.9846 0.292969 19.4865 0.292969 21.3504 0.791595ZM15.8203 8.54297L9.59692 12.0787V5.00725L15.8203 8.54297Z" fill="#0C5393"/>
</g>
</svg>
