<svg width="24" height="27" viewBox="0 0 24 27" fill="none" xmlns="http://www.w3.org/2000/svg">
<g id="&#240;&#159;&#166;&#134; icon &#34;tiktok&#34;">
<path id="Vector" d="M4.45291 17.5861C4.60919 16.2922 5.13986 15.5678 6.13986 14.8252C7.57076 13.8194 9.35806 14.3883 9.35806 14.3883V11.0132C9.79266 11.002 10.2274 11.0278 10.6571 11.0901V15.4336C10.6571 15.4336 8.87026 14.8647 7.43946 15.871C6.43996 16.6131 5.90819 17.3381 5.75246 18.632C5.74758 19.3346 5.87943 20.253 6.48666 21.0471C6.33646 20.9701 6.18346 20.8824 6.02756 20.784C4.69003 19.8858 4.4464 18.5384 4.45291 17.5861ZM18.0372 4.77243C17.0529 3.69384 16.6806 2.60484 16.5461 1.83984H17.7843C17.7843 1.83984 17.5374 3.84569 19.3367 5.81827L19.3617 5.84479C18.8767 5.53975 18.432 5.17969 18.0372 4.77243ZM24.002 7.83035V12.0865C24.002 12.0865 22.422 12.0247 21.2527 11.7272C19.6199 11.3111 18.5705 10.673 18.5705 10.673C18.5705 10.673 17.8456 10.218 17.787 10.1863V18.9752C17.787 19.4646 17.653 20.6867 17.2444 21.706C16.711 23.0395 15.8879 23.9147 15.7365 24.0936C15.7365 24.0936 14.7354 25.2767 12.9692 26.0735C11.3772 26.7922 9.97936 26.774 9.56156 26.7922C9.56156 26.7922 7.14536 26.8879 4.97111 25.4749C4.50094 25.1634 4.06207 24.8107 3.66016 24.4212L3.67102 24.429C5.84579 25.842 8.26146 25.7463 8.26146 25.7463C8.67986 25.7281 10.0776 25.7463 11.6691 25.0276C13.4337 24.2309 14.4364 23.0478 14.4364 23.0478C14.5862 22.8689 15.4131 21.9936 15.9443 20.6597C16.3518 19.6409 16.4869 18.4182 16.4869 17.9289V9.14095C16.5455 9.17315 17.2699 9.62815 17.2699 9.62815C17.2699 9.62815 18.3199 10.2669 19.9526 10.6824C21.1224 10.9799 22.702 11.0418 22.702 11.0418V7.70659C23.2424 7.82775 23.7031 7.86055 24.002 7.83035Z" fill="#0C5393"/>
<path id="Vector_2" d="M22.7009 7.70659V11.0407C22.7009 11.0407 21.1213 10.9788 19.9515 10.6814C18.3188 10.2653 17.2688 9.62715 17.2688 9.62715C17.2688 9.62715 16.5444 9.17215 16.4858 9.13985V17.9299C16.4858 18.4193 16.3518 19.6419 15.9432 20.6607C15.4098 21.9947 14.5867 22.8699 14.4353 23.0488C14.4353 23.0488 13.4337 24.2319 11.668 25.0287C10.0765 25.7474 8.6788 25.7292 8.2604 25.7474C8.2604 25.7474 5.84473 25.8431 3.66995 24.4301L3.6591 24.4223C3.42949 24.1999 3.21336 23.9652 3.01177 23.7192C2.31777 22.873 1.89237 21.8724 1.78547 21.5869C1.78529 21.5857 1.78529 21.5845 1.78547 21.5833C1.61347 21.0872 1.25209 19.8957 1.30147 18.7417C1.38883 16.7057 2.10507 15.456 2.29444 15.1429C2.79597 14.2892 3.44828 13.5253 4.22233 12.8854C4.90538 12.3331 5.6796 11.8937 6.5132 11.5852C7.4144 11.223 8.3794 11.0288 9.35649 11.0132V14.3883C9.35649 14.3883 7.5691 13.8215 6.1388 14.8252C5.13879 15.5678 4.60812 16.2922 4.45185 17.5861C4.44534 18.5384 4.68897 19.8858 6.0254 20.7845C6.1813 20.8833 6.3343 20.971 6.4845 21.0476C6.7179 21.3511 7.0021 21.6156 7.3255 21.8303C8.631 22.6567 9.7249 22.7144 11.1238 22.1777C12.0565 21.8189 12.7586 21.0102 13.0842 20.1141C13.2888 19.5546 13.2861 18.9913 13.2861 18.4089V1.83984H16.5417C16.6763 2.60484 17.0485 3.69384 18.0328 4.77243C18.4276 5.17969 18.8724 5.53975 19.3573 5.84479C19.5006 5.993 20.2331 6.72576 21.1734 7.17561C21.6596 7.40814 22.1722 7.5863 22.7009 7.70659Z" fill="#1375B7"/>
<g id="Group">
<path id="Vector_3" d="M0.492188 20.5498V20.5524L0.572968 20.7714C0.563688 20.7459 0.533668 20.6684 0.492188 20.5498Z" fill="#C7C7C7"/>
<path id="Vector_4" d="M6.5128 11.5846C5.67919 11.8932 4.90498 12.3326 4.22192 12.8848C3.44763 13.5262 2.79548 14.2917 2.29458 15.147C2.10521 15.4591 1.38897 16.7098 1.30161 18.7458C1.25223 19.8998 1.61361 21.0913 1.78561 21.5874C1.78543 21.5886 1.78543 21.5898 1.78561 21.591C1.89413 21.874 2.31791 22.8745 3.01191 23.7233C3.2135 23.9693 3.42963 24.2041 3.65924 24.4264C2.92357 23.9387 2.26746 23.3492 1.71236 22.6769C1.02433 21.8381 0.600012 20.8479 0.489322 20.5556C0.489192 20.5535 0.489192 20.5514 0.489322 20.5494V20.5457C0.316772 20.0501 -0.0456876 18.8581 0.0047724 17.7026C0.0921324 15.6666 0.808382 14.4169 0.997752 14.1038C1.4985 13.2483 2.15067 12.4828 2.92509 11.8416C3.608 11.2891 4.38225 10.8497 5.21598 10.5414C5.73602 10.3346 6.2778 10.1821 6.8319 10.0864C7.6669 9.94667 8.5198 9.93447 9.3588 10.0505V11.0126C8.3808 11.0279 7.4148 11.2221 6.5128 11.5846Z" fill="#C7C7C7"/>
<path id="Vector_5" d="M16.5438 1.83932H13.2881V18.4089C13.2881 18.9913 13.2881 19.553 13.0863 20.1141C12.7575 21.0097 12.058 21.8183 11.1258 22.1772C9.72648 22.716 8.63257 22.6562 7.32757 21.8298C7.00357 21.616 6.71867 21.3524 6.48438 21.0497C7.59617 21.6181 8.59127 21.6082 9.82407 21.134C10.7558 20.7751 11.4563 19.9664 11.784 19.0704C11.9891 18.5108 11.9864 17.9476 11.9864 17.3656V0.792969H16.4819C16.4819 0.792969 16.4315 1.20485 16.5438 1.83932ZM22.7002 6.78401V7.70607C22.1725 7.5856 21.6609 7.40744 21.1755 7.1751C20.2352 6.72525 19.5026 5.99249 19.3594 5.84427C19.5256 5.94887 19.6981 6.04403 19.8759 6.12926C21.0192 6.67636 22.1451 6.83966 22.7002 6.78401Z" fill="#C7C7C7"/>
</g>
</g>
</svg>
