<svg width="48" height="48" viewBox="0 0 48 48" fill="none" xmlns="http://www.w3.org/2000/svg">
<g id="mobile-programming-01">
<path id="Vector (Stroke)" fill-rule="evenodd" clip-rule="evenodd" d="M16.519 5.74291C14.7791 5.97683 13.8109 6.41094 13.1109 7.11092C12.411 7.81088 11.9768 8.77911 11.7429 10.519C11.5032 12.302 11.5 14.6578 11.5 18V30C11.5 33.3422 11.5032 35.698 11.7429 37.481C11.9768 39.2208 12.4109 40.1891 13.111 40.8892C13.8109 41.5891 14.7791 42.0232 16.519 42.2571C18.302 42.4968 20.6578 42.5 24 42.5C27.3422 42.5 29.698 42.4968 31.481 42.2571C33.2208 42.0232 34.189 41.5891 34.8891 40.8892C35.5891 40.1891 36.0232 39.2209 36.2571 37.481C36.4968 35.698 36.5 33.3422 36.5 30V18C36.5 14.6578 36.4968 12.302 36.2571 10.519C36.0232 8.77909 35.5891 7.81087 34.8891 7.11091C34.1891 6.41093 33.2208 5.97682 31.481 5.74291C29.698 5.50319 27.3422 5.5 24 5.5C20.6578 5.5 18.302 5.50319 16.519 5.74291ZM23.8885 2.5H24.1115C27.3167 2.49996 29.8745 2.49994 31.8807 2.76966C33.9533 3.04831 35.6601 3.63932 37.0104 4.98957C38.3607 6.33984 38.9517 8.04671 39.2304 10.1192C39.5001 12.1254 39.5 14.6833 39.5 17.8885V30.1115C39.5 33.3166 39.5001 35.8745 39.2304 37.8807C38.9517 39.9532 38.3607 41.6601 37.0105 43.0104C35.6602 44.3606 33.9532 44.9517 31.8807 45.2304C29.8745 45.5001 27.3166 45.5 24.1115 45.5H23.8885C20.6833 45.5 18.1254 45.5001 16.1192 45.2304C14.0467 44.9517 12.3399 44.3607 10.9896 43.0105C9.63936 41.6601 9.04831 39.9533 8.76966 37.8807C8.49994 35.8745 8.49996 33.3167 8.5 30.1115V17.8885C8.49996 14.6833 8.49994 12.1254 8.76966 10.1192C9.0483 8.0467 9.63932 6.33988 10.9896 4.98961M10.9896 4.98961C12.3399 3.63933 14.0467 3.0483 16.1192 2.76966C18.1254 2.49994 20.6833 2.49996 23.8885 2.5" fill="#27C6FF"/>
<path id="Vector (Stroke)_2" fill-rule="evenodd" clip-rule="evenodd" d="M20.5 36C20.5 35.1716 21.1716 34.5 22 34.5H26C26.8284 34.5 27.5 35.1716 27.5 36C27.5 36.8284 26.8284 37.5 26 37.5H22C21.1716 37.5 20.5 36.8284 20.5 36Z" fill="#27C6FF"/>
<path id="Vector (Stroke)_3" fill-rule="evenodd" clip-rule="evenodd" d="M28.7405 21.1857C29.1902 20.49 30.1188 20.2906 30.8145 20.7404L33.2674 22.3261C33.2673 22.326 33.2674 22.3261 33.2674 22.3261C33.2896 22.3404 33.312 22.3549 33.3342 22.3692C33.7908 22.6642 34.2494 22.9604 34.5831 23.2432C34.9094 23.5196 35.5002 24.0926 35.5002 25.0001C35.5002 25.9075 34.9094 26.4805 34.5831 26.7569C34.2494 27.0397 33.7908 27.3359 33.3342 27.6309C33.312 27.6452 33.2897 27.6596 33.2675 27.6739C33.2675 27.674 33.2676 27.6739 33.2675 27.6739L30.8145 29.2597C30.1188 29.7095 29.1902 29.5101 28.7405 28.8144C28.2907 28.1187 28.4901 27.1901 29.1858 26.7404L31.6388 25.1546C31.7236 25.0997 31.8031 25.0484 31.8775 25.0001C31.8031 24.9517 31.7238 24.9005 31.639 24.8456L29.1858 23.2597C28.4901 22.81 28.2907 21.8814 28.7405 21.1857Z" fill="#27C6FF"/>
<path id="Vector (Stroke)_4" fill-rule="evenodd" clip-rule="evenodd" d="M19.2597 21.1857C19.7095 21.8814 19.5101 22.81 18.8143 23.2598L16.3613 24.8456L16.3612 24.8456C16.2764 24.9004 16.197 24.9517 16.1226 25.0001C16.197 25.0484 16.2764 25.0997 16.3612 25.1545L16.3613 25.1546L18.8143 26.7404C19.5101 27.1901 19.7095 28.1187 19.2597 28.8144C18.81 29.5101 17.8814 29.7095 17.1857 29.2598L14.7326 27.674C14.7326 27.674 14.7326 27.674 14.7326 27.674C14.7103 27.6595 14.6879 27.6451 14.6656 27.6307C14.2091 27.3358 13.7507 27.0396 13.417 26.7569C13.0908 26.4805 12.5 25.9075 12.5 25.0001C12.5 24.0926 13.0908 23.5196 13.417 23.2432C13.7507 22.9605 14.2091 22.6643 14.6656 22.3695C14.6879 22.355 14.7103 22.3406 14.7326 22.3262C14.7326 22.3261 14.7326 22.3261 14.7326 22.3261L17.1857 20.7404C17.8814 20.2906 18.81 20.49 19.2597 21.1857Z" fill="#27C6FF"/>
<path id="Vector (Stroke)_5" fill-rule="evenodd" clip-rule="evenodd" d="M26.5575 18.6073C27.3267 18.915 27.7008 19.7879 27.3931 20.5571L23.3931 30.5571C23.0854 31.3263 22.2125 31.7004 21.4433 31.3927C20.6741 31.0851 20.3 30.2121 20.6077 29.4429L24.6077 19.4429C24.9154 18.6738 25.7883 18.2996 26.5575 18.6073Z" fill="#27C6FF"/>
</g>
</svg>
