<svg width="104" height="105" viewBox="0 0 104 105" fill="none" xmlns="http://www.w3.org/2000/svg">
<g id="ai-brain-01">
<g id="Vector (Stroke)">
<path fill-rule="evenodd" clip-rule="evenodd" d="M41.167 12.3536C36.9788 12.3536 33.5837 15.7488 33.5837 19.937C33.5837 22.4159 34.7696 24.6168 36.6189 26.0058C38.054 27.0838 38.3436 29.1211 37.2656 30.5563C36.1876 31.9915 34.1503 32.281 32.7151 31.203C30.2365 29.3412 28.3881 26.6733 27.5616 23.5867C23.5272 24.7809 20.5837 28.5152 20.5837 32.937C20.5837 34.7903 21.0976 36.5137 21.989 37.9834C22.541 38.8936 22.6123 40.0164 22.1799 40.989C21.7475 41.9617 20.8662 42.661 19.8207 42.8609C15.3188 43.722 11.917 47.6858 11.917 52.437C11.917 56.4939 14.3973 59.9768 17.9252 61.4441C19.7661 59.2689 22.1701 57.5832 24.9175 56.6124C26.6098 56.0143 28.4666 56.9014 29.0646 58.5938C29.6627 60.2862 28.7756 62.1429 27.0832 62.741C24.9497 63.4949 23.1499 64.9764 21.989 66.8905C21.0977 68.3601 20.5837 70.0834 20.5837 71.937C20.5837 77.3219 24.9489 81.687 30.3337 81.687C32.1286 81.687 33.5837 83.1421 33.5837 84.937C33.5837 89.1251 36.9788 92.5203 41.167 92.5203C45.3551 92.5203 48.7503 89.1251 48.7503 84.937V19.937C48.7503 15.7488 45.3551 12.3536 41.167 12.3536ZM14.7961 67.1661C9.25585 64.5774 5.41699 58.9579 5.41699 52.437C5.41699 45.9161 9.25579 40.2964 14.7962 37.7078C14.3329 36.1976 14.0837 34.5949 14.0837 32.937C14.0837 24.9637 19.8261 18.3316 27.4008 16.9509C28.7704 10.6072 34.4136 5.85364 41.167 5.85364C48.9449 5.85364 55.2503 12.159 55.2503 19.937V84.937C55.2503 92.7149 48.9449 99.0203 41.167 99.0203C34.4136 99.0203 28.7704 94.2667 27.4009 87.923C19.8262 86.5424 14.0837 79.9105 14.0837 71.937C14.0837 70.2789 14.3329 68.6763 14.7961 67.1661Z" fill="#7DEEFF"/>
<path d="M33.5837 19.937C33.5837 15.7488 36.9788 12.3536 41.167 12.3536C45.3551 12.3536 48.7503 15.7488 48.7503 19.937V84.937C48.7503 89.1251 45.3551 92.5203 41.167 92.5203C36.9788 92.5203 33.5837 89.1251 33.5837 84.937C33.5837 83.1421 32.1286 81.687 30.3337 81.687C24.9489 81.687 20.5837 77.3219 20.5837 71.937C20.5837 70.0834 21.0977 68.3601 21.989 66.8905C23.1499 64.9764 24.9497 63.4949 27.0832 62.741C28.7756 62.1429 29.6627 60.2862 29.0646 58.5938C28.4666 56.9014 26.6098 56.0143 24.9175 56.6124C22.1701 57.5832 19.7661 59.2689 17.9252 61.4441C14.3973 59.9768 11.917 56.4939 11.917 52.437C11.917 47.6858 15.3188 43.722 19.8207 42.8609C20.8662 42.661 21.7475 41.9617 22.1799 40.989C22.6123 40.0164 22.541 38.8936 21.989 37.9834C21.0976 36.5137 20.5837 34.7903 20.5837 32.937C20.5837 28.5152 23.5272 24.7809 27.5616 23.5867C28.3881 26.6733 30.2365 29.3412 32.7151 31.203C34.1503 32.281 36.1876 31.9915 37.2656 30.5563C38.3436 29.1211 38.054 27.0838 36.6189 26.0058C34.7696 24.6168 33.5837 22.4159 33.5837 19.937Z" fill="#7DEEFF"/>
</g>
<g id="Vector (Stroke)_2">
<path fill-rule="evenodd" clip-rule="evenodd" d="M62.8333 12.3536C58.6452 12.3536 55.25 15.7488 55.25 19.937V84.937C55.25 89.1251 58.6452 92.5203 62.8333 92.5203C67.0214 92.5203 70.4167 89.1251 70.4167 84.937C70.4167 82.4581 69.2306 80.257 67.3814 78.868C65.9463 77.79 65.6568 75.7527 66.7348 74.3175C67.8128 72.8824 69.8501 72.5929 71.2853 73.6709C73.7638 75.5327 75.6122 78.2006 76.4387 81.2873C80.4733 80.0931 83.4167 76.3589 83.4167 71.937C83.4167 70.0834 82.9027 68.3601 82.0115 66.8905C81.4595 65.9804 81.3882 64.8576 81.8205 63.885C82.2529 62.9123 83.1342 62.213 84.1796 62.013C88.6815 61.1518 92.0833 57.188 92.0833 52.437C92.0833 48.38 89.6028 44.897 86.0752 43.4298C84.2342 45.6049 81.8302 47.2903 79.0833 48.2614C77.3911 48.8597 75.5342 47.9729 74.9359 46.2806C74.3376 44.5883 75.2244 42.7314 76.9167 42.1331C79.0506 41.3787 80.8504 39.8974 82.0114 37.9835C82.9027 36.5138 83.4167 34.7904 83.4167 32.937C83.4167 27.5522 79.0516 23.187 73.6667 23.187C71.8717 23.187 70.4167 21.7319 70.4167 19.937C70.4167 15.7488 67.0215 12.3536 62.8333 12.3536ZM89.2042 37.7078C94.7444 40.2964 98.5833 45.9161 98.5833 52.437C98.5833 58.9579 94.7444 64.5774 89.2042 67.1661C89.6675 68.6763 89.9167 70.2789 89.9167 71.937C89.9167 79.9105 84.1743 86.5424 76.5995 87.923C75.2299 94.2667 69.5867 99.0203 62.8333 99.0203C55.0554 99.0203 48.75 92.7149 48.75 84.937V19.937C48.75 12.159 55.0554 5.85364 62.8333 5.85364C69.5867 5.85364 75.2299 10.6072 76.5995 16.9509C84.1744 18.3316 89.9167 24.9637 89.9167 32.937C89.9167 34.5949 89.6675 36.1976 89.2042 37.7078Z" fill="#27C6FF"/>
<path d="M55.25 19.937C55.25 15.7488 58.6452 12.3536 62.8333 12.3536C67.0215 12.3536 70.4167 15.7488 70.4167 19.937C70.4167 21.7319 71.8717 23.187 73.6667 23.187C79.0516 23.187 83.4167 27.5522 83.4167 32.937C83.4167 34.7904 82.9027 36.5138 82.0114 37.9835C80.8504 39.8974 79.0506 41.3787 76.9167 42.1331C75.2244 42.7314 74.3376 44.5883 74.9359 46.2806C75.5342 47.9729 77.3911 48.8597 79.0833 48.2614C81.8302 47.2903 84.2342 45.6049 86.0752 43.4298C89.6028 44.897 92.0833 48.38 92.0833 52.437C92.0833 57.188 88.6815 61.1518 84.1796 62.013C83.1342 62.213 82.2529 62.9123 81.8205 63.885C81.3882 64.8576 81.4595 65.9804 82.0115 66.8905C82.9027 68.3601 83.4167 70.0834 83.4167 71.937C83.4167 76.3589 80.4733 80.0931 76.4387 81.2873C75.6122 78.2006 73.7638 75.5327 71.2853 73.6709C69.8501 72.5929 67.8128 72.8824 66.7348 74.3175C65.6568 75.7527 65.9463 77.79 67.3814 78.868C69.2306 80.257 70.4167 82.4581 70.4167 84.937C70.4167 89.1251 67.0214 92.5203 62.8333 92.5203C58.6452 92.5203 55.25 89.1251 55.25 84.937V19.937Z" fill="#27C6FF"/>
</g>
</g>
</svg>
