<svg width="44" height="45" viewBox="0 0 44 45" fill="none" xmlns="http://www.w3.org/2000/svg">
<g id="vuesax/outline/24-support">
<g id="24-support">
<path id="Vector" d="M22 42.1453C20.7167 42.1453 19.415 41.6502 18.4433 40.6786L15.3083 37.5803C14.52 36.8103 13.4933 36.3886 12.3933 36.3886H11C7.205 36.3886 4.125 33.327 4.125 29.5687V9.56696C4.125 5.80862 7.205 2.74701 11 2.74701H33C36.795 2.74701 39.875 5.80862 39.875 9.56696V29.5687C39.875 33.327 36.795 36.3886 33 36.3886H31.6067C30.5067 36.3886 29.4617 36.8103 28.6917 37.5803L25.5567 40.6786C24.585 41.6502 23.2833 42.1453 22 42.1453ZM11 5.47866C8.72667 5.47866 6.875 7.31194 6.875 9.5486V29.5503C6.875 31.8053 8.72667 33.6203 11 33.6203H12.3933C14.2267 33.6203 15.95 34.3352 17.2517 35.6186L20.3867 38.717C21.285 39.597 22.7333 39.597 23.6317 38.717L26.7667 35.6186C28.0683 34.3352 29.7917 33.6203 31.625 33.6203H33C35.2733 33.6203 37.125 31.787 37.125 29.5503V9.5486C37.125 7.2936 35.2733 5.47866 33 5.47866H11Z" fill="white"/>
<path id="Vector_2" d="M19.0304 27.0387H14.1171C13.3104 27.0387 12.5587 26.6536 12.0821 25.9936C11.6237 25.3702 11.5137 24.6004 11.7337 23.867C12.3754 21.9054 13.9521 20.842 15.3454 19.8886C16.8121 18.8986 17.6371 18.2754 17.6371 17.212C17.6371 16.2587 16.8671 15.4886 15.9137 15.4886C14.9604 15.4886 14.1904 16.2587 14.1904 17.212C14.1904 17.9637 13.5671 18.587 12.8154 18.587C12.0638 18.587 11.4404 17.9637 11.4404 17.212C11.4404 14.7554 13.4387 12.7386 15.9137 12.7386C18.3887 12.7386 20.3871 14.737 20.3871 17.212C20.3871 19.797 18.4438 21.117 16.8854 22.1803C15.9138 22.8403 14.9971 23.4637 14.5387 24.2887H19.0121C19.7637 24.2887 20.3871 24.912 20.3871 25.6637C20.3871 26.4153 19.7821 27.0387 19.0304 27.0387Z" fill="white"/>
<path id="Vector_3" d="M29.4066 27.0388C28.6549 27.0388 28.0316 26.4154 28.0316 25.6638V24.3987H24.4383C24.4383 24.3987 24.4383 24.3987 24.42 24.3987C23.5216 24.3987 22.6966 23.9221 22.2383 23.1521C21.7799 22.3638 21.7799 21.3921 22.2383 20.6221C23.4849 18.4771 24.9333 16.0387 26.2533 13.9121C26.84 12.9771 27.9583 12.5555 29.0033 12.8488C30.0483 13.1605 30.7816 14.1139 30.7633 15.2139V21.667H31.1666C31.9183 21.667 32.5416 22.2904 32.5416 23.042C32.5416 23.7937 31.9183 24.417 31.1666 24.417H30.7816V25.6821C30.7816 26.4338 30.1766 27.0388 29.4066 27.0388ZM28.0316 16.2771C26.9499 18.0371 25.8316 19.9253 24.8233 21.6487H28.0316V16.2771Z" fill="white"/>
</g>
</g>
</svg>
