<svg width="24" height="25" viewBox="0 0 24 25" fill="none" xmlns="http://www.w3.org/2000/svg">
<g id="user-switch">
<path id="Vector (Stroke)" fill-rule="evenodd" clip-rule="evenodd" d="M9.56853 8.87741C7.68698 7.8589 5.3136 7.8589 3.43204 8.87741C3.38492 8.90291 3.32269 8.93472 3.24942 8.97216C2.89915 9.15117 2.29648 9.45917 1.88538 9.82499C1.63345 10.0492 1.31873 10.4064 1.25975 10.8969C1.19372 11.4461 1.47038 11.9048 1.86562 12.2471C2.49205 12.7896 3.27505 13.2499 4.29572 13.2499H8.70486C9.72553 13.2499 10.5086 12.7896 11.135 12.2471C11.5302 11.9048 11.8069 11.446 11.7408 10.8969C11.6818 10.4064 11.3671 10.0492 11.1152 9.82499C10.7041 9.45917 10.1014 9.15117 9.75115 8.97216C9.67788 8.93472 9.61565 8.90291 9.56853 8.87741ZM4.14611 10.1965C5.58216 9.41919 7.41842 9.41919 8.85447 10.1965C8.95383 10.2503 9.05678 10.3035 9.16036 10.3571C9.51031 10.538 9.86751 10.7226 10.118 10.9456C10.1673 10.9894 10.1995 11.024 10.2203 11.0493C10.2043 11.0664 10.1825 11.0877 10.153 11.1132C9.67572 11.5265 9.22951 11.7499 8.70486 11.7499H4.29572C3.77103 11.7499 3.32481 11.5265 2.84761 11.1133C2.81808 11.0877 2.79627 11.0664 2.78031 11.0492C2.80109 11.024 2.83329 10.9894 2.88253 10.9456C3.13306 10.7226 3.49026 10.538 3.8402 10.3571C3.94379 10.3035 4.04674 10.2503 4.14611 10.1965ZM2.73989 10.9956C2.73989 10.9956 2.74192 10.9983 2.74385 11.0037C2.7405 10.9982 2.73989 10.9956 2.73989 10.9956ZM10.2607 10.9956C10.2607 10.9956 10.2601 10.9983 10.2567 11.0038C10.2587 10.9983 10.2607 10.9956 10.2607 10.9956Z" fill="white"/>
<path id="Vector (Stroke)_2" fill-rule="evenodd" clip-rule="evenodd" d="M6.5 3.25C5.67866 3.25 5 3.92462 5 4.77273C5 5.62083 5.67866 6.29545 6.5 6.29545C7.32134 6.29545 8 5.62083 8 4.77273C8 3.92462 7.32134 3.25 6.5 3.25ZM3.5 4.77273C3.5 3.11044 4.83606 1.75 6.5 1.75C8.16394 1.75 9.5 3.11044 9.5 4.77273C9.5 6.43501 8.16394 7.79545 6.5 7.79545C4.83606 7.79545 3.5 6.43501 3.5 4.77273Z" fill="white"/>
<path id="Vector (Stroke)_3" fill-rule="evenodd" clip-rule="evenodd" d="M4 14.75C4.41421 14.75 4.75 15.0858 4.75 15.5C4.75 17.9564 6.43058 20.0148 8.70645 20.5899L8.47204 20.1211C8.2868 19.7506 8.43697 19.3001 8.80745 19.1149C9.17794 18.9296 9.62844 19.0798 9.81368 19.4503L10.6708 21.1646C10.7871 21.3971 10.7746 21.6732 10.638 21.8943C10.5013 22.1154 10.2599 22.25 10 22.25C6.26864 22.25 3.25 19.2313 3.25 15.5C3.25 15.0858 3.58579 14.75 4 14.75Z" fill="white"/>
<path id="Vector (Stroke)_4" fill-rule="evenodd" clip-rule="evenodd" d="M13.362 3.10569C13.4987 2.88459 13.7401 2.75 14 2.75C17.7313 2.75 20.75 5.76864 20.75 9.5C20.75 9.91421 20.4142 10.25 20 10.25C19.5858 10.25 19.25 9.91421 19.25 9.5C19.25 7.04358 17.5694 4.98516 15.2935 4.41006L15.5279 4.87889C15.7132 5.24938 15.563 5.69988 15.1925 5.88512C14.822 6.07035 14.3715 5.92017 14.1863 5.54969L13.3292 3.8354C13.2129 3.6029 13.2254 3.3268 13.362 3.10569Z" fill="white"/>
<g id="Vector (Stroke)_5">
<path fill-rule="evenodd" clip-rule="evenodd" d="M13.7399 20.9958C13.7399 20.9958 13.7419 20.9985 13.7439 21.004C13.7405 20.9985 13.7399 20.9958 13.7399 20.9958ZM21.2607 20.9958C21.2607 20.9958 21.2601 20.9985 21.2567 21.004C21.2587 20.9985 21.2607 20.9958 21.2607 20.9958Z" fill="white"/>
<path fill-rule="evenodd" clip-rule="evenodd" d="M20.5685 18.8776C18.687 17.8592 16.3136 17.8592 14.4321 18.8776C14.385 18.9031 14.3227 18.9349 14.2495 18.9724C13.8992 19.1514 13.2965 19.4594 12.8854 19.8252C12.6335 20.0494 12.3187 20.4066 12.2598 20.8971C12.1937 21.4462 12.4703 21.905 12.8656 22.2473C13.492 22.7898 14.275 23.2501 15.2957 23.2501H19.7049C20.7256 23.2501 21.5086 22.7898 22.135 22.2473C22.5303 21.905 22.8069 21.4462 22.7408 20.8971C22.6818 20.4066 22.3671 20.0494 22.1152 19.8252L20.7511 18.9724C20.6778 18.9349 20.6156 18.9031 20.5685 18.8776ZM15.1461 20.1968C16.5822 19.4194 18.4184 19.4194 19.8545 20.1968L20.1603 20.3573C20.5103 20.5382 20.8675 20.7228 21.118 20.9458C21.1673 20.9896 21.1995 21.0242 21.2203 21.0495C21.2043 21.0666 21.1825 21.0879 21.153 21.1134L21.152 21.1143C20.6751 21.527 20.2292 21.7501 19.7049 21.7501H16.502H15.2957C14.771 21.7501 14.3249 21.5267 13.8475 21.1134C13.818 21.0879 13.7963 21.0666 13.7803 21.0495C13.8011 21.0242 13.8333 20.9896 13.8825 20.9458C14.1331 20.7228 14.4903 20.5382 14.8403 20.3573C14.9438 20.3037 15.0468 20.2505 15.1461 20.1968ZM13.7399 20.9958C13.7399 20.9958 13.7419 20.9985 13.7439 21.004C13.7405 20.9985 13.7399 20.9958 13.7399 20.9958ZM21.2607 20.9958C21.2607 20.9958 21.2601 20.9985 21.2567 21.004C21.2587 20.9985 21.2607 20.9958 21.2607 20.9958Z" fill="white"/>
<path fill-rule="evenodd" clip-rule="evenodd" d="M19.8545 20.1968L20.1603 20.3573C20.0567 20.3037 19.9538 20.2505 19.8545 20.1968ZM20.1603 20.3573L21.118 20.9458L21.2203 21.0495L21.153 21.1134C21.1825 21.0879 21.2043 21.0666 21.2203 21.0495C21.1995 21.0242 21.1673 20.9896 21.118 20.9458C20.8675 20.7228 20.5103 20.5382 20.1603 20.3573ZM13.7399 20.9958C13.7399 20.9958 13.7419 20.9985 13.7439 21.004C13.7405 20.9985 13.7399 20.9958 13.7399 20.9958ZM21.2607 20.9958C21.2607 20.9958 21.2601 20.9985 21.2567 21.004C21.2587 20.9985 21.2607 20.9958 21.2607 20.9958Z" fill="white"/>
</g>
<path id="Vector (Stroke)_6" fill-rule="evenodd" clip-rule="evenodd" d="M17.5 13.25C16.6787 13.25 16 13.9246 16 14.7727C16 15.6208 16.6787 16.2955 17.5 16.2955C18.3213 16.2955 19 15.6208 19 14.7727C19 13.9246 18.3213 13.25 17.5 13.25ZM14.5 14.7727C14.5 13.1104 15.8361 11.75 17.5 11.75C19.1639 11.75 20.5 13.1104 20.5 14.7727C20.5 16.435 19.1639 17.7955 17.5 17.7955C15.8361 17.7955 14.5 16.435 14.5 14.7727Z" fill="white"/>
</g>
</svg>
