<svg width="45" height="45" viewBox="0 0 45 45" fill="none" xmlns="http://www.w3.org/2000/svg">
<g id="user-group">
<path id="Vector (Stroke)" fill-rule="evenodd" clip-rule="evenodd" d="M33 10.9787C33 10.2193 33.6156 9.6037 34.375 9.6037C37.6657 9.6037 40.3333 12.2713 40.3333 15.562C40.3333 18.8527 37.6657 21.5204 34.375 21.5204C33.6156 21.5204 33 20.9048 33 20.1454C33 19.386 33.6156 18.7704 34.375 18.7704C36.1469 18.7704 37.5833 17.3339 37.5833 15.562C37.5833 13.7901 36.1469 12.3537 34.375 12.3537C33.6156 12.3537 33 11.7381 33 10.9787ZM34.8389 23.6882C34.9073 22.9319 35.5759 22.3742 36.3322 22.4426C38.0528 22.5983 39.7258 23.2602 41.2004 24.3957L41.2005 24.3957C41.2855 24.4612 41.3975 24.5426 41.5291 24.6384C42.1536 25.0927 43.2198 25.8684 43.9385 26.7781C44.3977 27.3594 44.8272 28.1201 44.9045 29.0349C44.9855 29.9929 44.6644 30.9235 43.9759 31.7719L43.9759 31.7719C42.9218 33.0706 41.4757 34.3537 39.4607 34.3537C38.7013 34.3537 38.0857 33.7381 38.0857 32.9787C38.0857 32.2193 38.7013 31.6037 39.4607 31.6037C40.1931 31.6037 40.9323 31.158 41.8406 30.0389C42.1562 29.65 42.176 29.4056 42.1643 29.2666C42.1489 29.0844 42.0519 28.8263 41.7806 28.4828C41.3237 27.9044 40.6832 27.4337 40.0607 26.9761C39.8781 26.8419 39.697 26.7089 39.5226 26.5745L40.3583 25.4893L39.5227 26.5746C39.5227 26.5746 39.5226 26.5746 39.5226 26.5745C38.4401 25.741 37.2583 25.2876 36.0845 25.1814C35.3282 25.113 34.7705 24.4445 34.8389 23.6882Z" fill="white"/>
<g id="Vector (Stroke)_2">
<path d="M6.87475 16.0203C6.87475 14.2484 8.31117 12.812 10.0831 12.812C10.8425 12.812 11.4581 12.1964 11.4581 11.437C11.4581 10.6776 10.8425 10.062 10.0831 10.062C6.79239 10.062 4.12475 12.7297 4.12475 16.0203C4.12475 19.311 6.79239 21.9787 10.0831 21.9787C10.8425 21.9787 11.4581 21.3631 11.4581 20.6037C11.4581 19.8443 10.8425 19.2287 10.0831 19.2287C8.31117 19.2287 6.87475 17.7923 6.87475 16.0203Z" fill="white"/>
<path d="M9.29028 25.6398C10.0466 25.5714 10.6042 24.9028 10.5358 24.1465C10.4674 23.3902 9.79886 22.8325 9.04256 22.9009C7.32193 23.0566 5.64885 23.7185 4.17433 24.854C4.08935 24.9195 3.97742 25.0009 3.84589 25.0966C3.22129 25.5509 2.15498 26.3266 1.43625 27.2364C0.977028 27.8177 0.547587 28.5785 0.470271 29.4932C0.389303 30.4512 0.710442 31.3818 1.39893 32.2301C2.45288 33.5289 3.89901 34.812 5.91401 34.812C6.6734 34.812 7.28901 34.1964 7.28901 33.437C7.28901 32.6776 6.6734 32.062 5.91401 32.062C5.18158 32.062 4.44236 31.6163 3.5342 30.4972C3.21855 30.1083 3.19876 29.8638 3.2105 29.7249C3.2259 29.5426 3.32285 29.2846 3.59414 28.9411C4.05111 28.3627 4.69172 27.8919 5.31437 27.4343C5.49686 27.3001 5.67788 27.1671 5.85222 27.0329C6.93452 26.1994 8.11639 25.7459 9.29028 25.6398Z" fill="white"/>
</g>
<path id="Vector (Stroke)_3" fill-rule="evenodd" clip-rule="evenodd" d="M14.0971 26.9714C18.9331 23.9811 25.0668 23.9811 29.9028 26.9714C30.0453 27.0596 30.2259 27.1652 30.4334 27.2866C31.3725 27.8362 32.8634 28.7085 33.8808 29.7426C34.5197 30.3921 35.157 31.2775 35.2732 32.3813C35.3975 33.5623 34.8962 34.6554 33.94 35.6014C32.3604 37.1642 30.4037 38.4787 27.838 38.4787H16.1619C13.5962 38.4787 11.6395 37.1642 10.0598 35.6014C9.10364 34.6554 8.6024 33.5623 8.72671 32.3813C8.8429 31.2775 9.48016 30.3921 10.1191 29.7426C11.1365 28.7086 12.6273 27.8362 13.5665 27.2866C13.774 27.1652 13.9545 27.0596 14.0971 26.9714ZM28.4565 29.3104C24.5068 26.8681 19.4931 26.8681 15.5434 29.3104C15.3063 29.457 15.0521 29.6069 14.7898 29.7616C13.8513 30.3149 12.8095 30.9292 12.0795 31.6712C11.6303 32.1278 11.4835 32.461 11.4616 32.6692C11.4478 32.8003 11.4544 33.1127 11.9939 33.6465L11.9939 33.6465C13.3369 34.9752 14.6352 35.7287 16.1619 35.7287H27.838C29.3647 35.7287 30.6629 34.9752 32.0059 33.6465C32.5455 33.1127 32.5521 32.8003 32.5383 32.6692C32.5164 32.461 32.3696 32.1278 31.9204 31.6712C31.1903 30.9291 30.1485 30.3148 29.21 29.7615C28.9478 29.6069 28.6936 29.457 28.4565 29.3104L28.4565 29.3104Z" fill="white"/>
<path id="Vector (Stroke)_4" fill-rule="evenodd" clip-rule="evenodd" d="M21.9997 9.14532C19.2152 9.14532 16.958 11.4025 16.958 14.187C16.958 16.9714 19.2152 19.2287 21.9997 19.2287C24.7841 19.2287 27.0413 16.9714 27.0413 14.187C27.0413 11.4025 24.7841 9.14532 21.9997 9.14532ZM14.208 14.187C14.208 9.88377 17.6964 6.39532 21.9997 6.39532C26.3029 6.39532 29.7913 9.88377 29.7913 14.187C29.7913 18.4902 26.3029 21.9787 21.9997 21.9787C17.6964 21.9787 14.208 18.4902 14.208 14.187Z" fill="white"/>
</g>
</svg>
