<svg width="127" height="47" viewBox="0 0 127 47" fill="none" xmlns="http://www.w3.org/2000/svg">
<g id="Layer_1" clip-path="url(#clip0_5456_11833)">
<path id="Vector" d="M36.8823 14.9614C36.4215 15.8013 35.9643 16.6375 35.5035 17.4775L31.8166 6.95959L28.1781 17.4998L17.0358 17.7785L25.9407 24.4795C24.2497 28.2221 22.5587 31.9647 20.8676 35.7073C20.0388 37.3611 19.2138 39.015 18.385 40.6689C18.9647 38.9184 19.5445 37.1642 20.1243 35.4137C21.2207 32.1022 22.3134 28.7944 23.4098 25.483L10.6582 15.8979L26.5949 15.4928L31.7906 0.437012L36.8823 14.9614Z" fill="url(#paint0_linear_5456_11833)"/>
<path id="Vector_2" d="M115.235 14.9948C114.677 15.8162 114.112 16.6412 113.555 17.4626H48.4106L48.3994 17.4738H35.5029C35.9638 16.6338 36.4209 15.7976 36.8818 14.9576C63.0018 14.9688 89.1182 14.9799 115.238 14.9911L115.235 14.9948Z" fill="url(#paint1_linear_5456_11833)"/>
<g id="Group">
<path id="Vector_3" d="M30.8426 32.1023L29.2891 20.4546H32.1917L33.2361 29.4747L38.3835 20.4546H41.5909L34.7413 32.1023H30.8426Z" fill="#035AA6"/>
<path id="Vector_4" d="M40.2754 32.1021L42.9253 20.4543H45.8614L43.2115 32.1021H40.2754Z" fill="#035AA6"/>
<path id="Vector_5" d="M45.3709 32.1021L48.0208 20.4543H50.7191L54.0603 27.5195L55.6807 20.4543H58.5982L55.9483 32.1021H53.2315L49.8568 25.3045L48.3033 32.1021H45.3672H45.3709Z" fill="#035AA6"/>
<path id="Vector_6" d="M58.1111 32.1021L60.7611 20.4543H63.6971L62.6677 24.97H67.2576L68.2685 20.4543H71.2046L68.5547 32.1021H65.6186L66.715 27.3003H62.125L61.0435 32.1021H58.1074H58.1111Z" fill="#035AA6"/>
<path id="Vector_7" d="M74.5977 32.1021L77.2476 20.4543H82.0717C83.0603 20.4543 83.8742 20.6216 84.5098 20.9561C85.1453 21.2906 85.621 21.7328 85.9369 22.2792C86.2528 22.8255 86.4089 23.4016 86.4089 24.0111C86.4089 24.524 86.3011 25.0332 86.0819 25.5386C85.8626 26.0404 85.5392 26.5012 85.1118 26.9175C84.6844 27.3337 84.1567 27.6645 83.5249 27.9172C82.893 28.1699 82.1757 28.2963 81.3655 28.2963H78.396L77.5337 32.1058H74.5977V32.1021ZM81.7521 22.833H79.6448L78.9349 25.9326H81.4993C81.9156 25.9326 82.2687 25.8471 82.5623 25.6724C82.8559 25.4977 83.0789 25.2859 83.2387 25.0257C83.3948 24.7693 83.4765 24.5054 83.4765 24.2304C83.4765 23.8624 83.3353 23.5391 83.0566 23.2566C82.7741 22.9742 82.343 22.833 81.7558 22.833H81.7521Z" fill="#035AA6"/>
<path id="Vector_8" d="M86.3904 32.1021L89.0404 20.4543H91.9764L90.947 24.97H95.5369L96.5478 20.4543H99.4839L96.834 32.1021H93.8979L94.9943 27.3003H90.4043L89.3228 32.1021H86.3867H86.3904Z" fill="#035AA6"/>
<path id="Vector_9" d="M104.274 32.2582C103.631 32.2582 103.018 32.1653 102.435 31.9758C101.851 31.7862 101.346 31.4889 100.926 31.0801C100.506 30.6713 100.212 30.1435 100.048 29.4968C99.885 28.8501 99.911 28.0771 100.123 27.174L101.643 20.4544H104.579L103.044 27.2074C102.866 27.9842 102.921 28.5937 103.222 29.0322C103.523 29.4708 104.04 29.6938 104.783 29.6938C105.527 29.6938 106.062 29.4782 106.497 29.0471C106.932 28.616 107.236 28.0028 107.415 27.2037L108.95 20.4507H111.867L110.28 27.4527C110.009 28.6494 109.585 29.5972 109.005 30.2922C108.426 30.9909 107.731 31.4926 106.92 31.7937C106.11 32.0984 105.226 32.2508 104.271 32.2508L104.274 32.2582Z" fill="#035AA6"/>
</g>
<g id="Group_2">
<path id="Vector_10" d="M33.0538 34.5625L32.6673 36.9002H32.344L31.4408 35.1869H31.4185L31.1324 36.9002H30.7793L31.1658 34.5625H31.4929L32.396 36.2796H32.4183L32.7045 34.5625H33.0538Z" fill="#58595B"/>
<path id="Vector_11" d="M33.3773 36.8966H33.002L34.2321 34.5589H34.641L35.0944 36.8966H34.719L34.3771 34.9863H34.3585L33.3773 36.8966ZM33.5929 35.9823H34.8082L34.7599 36.2796H33.5446L33.5929 35.9823ZM34.7079 34.3507L34.5257 34.046L34.2396 34.3507H33.9311V34.3322L34.4105 33.849H34.693L35.0163 34.3322V34.3507H34.7041H34.7079Z" fill="#58595B"/>
<path id="Vector_12" d="M37.7033 34.5625L37.3167 36.9002H36.9934L36.0903 35.1869H36.068L35.7818 36.9002H35.4287L35.8152 34.5625H36.1423L37.0454 36.2796H37.0677L37.3539 34.5625H37.7033Z" fill="#58595B"/>
<path id="Vector_13" d="M39.673 35.2984C39.6619 35.2278 39.647 35.1683 39.621 35.1126C39.595 35.0568 39.5615 35.0122 39.5206 34.9713C39.4797 34.9342 39.4277 34.9044 39.372 34.8821C39.3125 34.8598 39.2456 34.8524 39.1676 34.8524C39.0375 34.8524 38.9111 34.8858 38.7885 34.9527C38.6658 35.0196 38.5655 35.12 38.4763 35.2501C38.3908 35.3801 38.3313 35.54 38.2979 35.7295C38.2681 35.919 38.2681 36.0789 38.3053 36.2089C38.3425 36.339 38.4057 36.4394 38.4986 36.5063C38.5915 36.5732 38.7067 36.6066 38.8442 36.6066C38.9706 36.6066 39.0895 36.5806 39.1936 36.5286C39.3014 36.4765 39.3906 36.4022 39.4612 36.3093C39.5318 36.2164 39.5764 36.1012 39.5987 35.9748L39.6879 35.9934H39.0189L39.0709 35.7035H39.9889L39.9406 35.9674C39.9109 36.1643 39.8403 36.3353 39.7325 36.4803C39.6247 36.6252 39.4909 36.7367 39.3311 36.8147C39.1713 36.8928 38.9966 36.93 38.807 36.93C38.5952 36.93 38.4168 36.8816 38.2756 36.785C38.1343 36.6884 38.0303 36.5509 37.9745 36.3688C37.9151 36.1904 37.9076 35.9785 37.9485 35.7295C37.9783 35.5437 38.0303 35.3764 38.1083 35.2278C38.1864 35.0791 38.2793 34.9527 38.3908 34.8487C38.5023 34.7446 38.6249 34.6666 38.7625 34.6108C38.9 34.5551 39.0412 34.5291 39.1936 34.5291C39.3199 34.5291 39.4351 34.5476 39.5355 34.5848C39.6358 34.622 39.7288 34.674 39.8031 34.7446C39.8774 34.8152 39.9332 34.8933 39.9741 34.9899C40.0149 35.0828 40.0335 35.1869 40.0335 35.3021H39.673V35.2984Z" fill="#58595B"/>
<path id="Vector_14" d="M41.3084 34.8636L41.3567 34.5588H43.163L43.1147 34.8636H42.3862L42.048 36.8966H41.6949L42.0331 34.8636H41.3047H41.3084Z" fill="#58595B"/>
<path id="Vector_15" d="M43.0961 36.8965H42.7207L43.9509 34.5588H44.3597L44.8131 36.8965H44.4378L44.0958 34.9862H44.0773L43.0961 36.8965ZM43.5978 33.6854L43.7651 34.1054H43.5198L43.2485 33.6854H43.5978ZM43.3116 35.9823H44.527L44.4786 36.2796H43.2633L43.3116 35.9823ZM44.382 33.9605L44.7834 34.3544H44.4452L44.2296 34.1277L43.936 34.3544H43.6015L44.1256 33.9605H44.3783H44.382Z" fill="#58595B"/>
<path id="Vector_16" d="M45.534 34.5625H45.9614L46.4074 36.3799H46.4334L47.4778 34.5625H47.9052L47.5186 36.9002H47.1841L47.4666 35.2092H47.4443L46.4743 36.8965H46.1955L45.7867 35.2092H45.7644L45.482 36.9002H45.1475L45.534 34.5625Z" fill="#58595B"/>
<path id="Vector_17" d="M49.1023 34.8636L49.1507 34.5588H50.9569L50.9086 34.8636H50.1802L49.8419 36.8966H49.4889L49.8271 34.8636H49.0986H49.1023Z" fill="#58595B"/>
<path id="Vector_18" d="M50.9715 36.8966L51.358 34.5588H51.7111L51.5401 35.5735H52.7034L52.8707 34.5588H53.2237L52.8372 36.8966H52.4841L52.6514 35.8782H51.4881L51.3208 36.8966H50.9678H50.9715Z" fill="#58595B"/>
<path id="Vector_19" d="M55.2459 34.5625H55.599L55.3463 36.0975C55.3203 36.261 55.2571 36.4059 55.1605 36.5323C55.0638 36.6587 54.9375 36.7553 54.7851 36.8296C54.6327 36.904 54.4655 36.9374 54.2759 36.9374C54.0864 36.9374 53.934 36.9002 53.8076 36.8296C53.6813 36.759 53.5883 36.6587 53.5326 36.5323C53.4769 36.4059 53.462 36.261 53.488 36.0975L53.7407 34.5625H54.0938L53.8411 36.0714C53.8262 36.1755 53.8336 36.2721 53.8671 36.3539C53.9005 36.4357 53.9563 36.4989 54.0343 36.5472C54.1124 36.5955 54.209 36.6178 54.3279 36.6178C54.4469 36.6178 54.5547 36.5955 54.6476 36.5472C54.7405 36.4989 54.8185 36.4357 54.878 36.3539C54.9375 36.2721 54.9746 36.1792 54.9932 36.0714L55.2459 34.5625ZM55.8703 34.4399H56.1528C56.1268 34.5923 56.0859 34.7186 56.0227 34.8227C55.9595 34.9267 55.8778 35.0048 55.7663 35.0605C55.6585 35.1163 55.521 35.1423 55.3537 35.1423L55.3946 34.9082C55.5024 34.9082 55.5916 34.8896 55.6548 34.8524C55.7179 34.8152 55.7663 34.7632 55.7997 34.6926C55.8332 34.622 55.8555 34.5365 55.874 34.4362L55.8703 34.4399Z" fill="#58595B"/>
<path id="Vector_20" d="M58.2597 35.7518C58.2188 35.9971 58.137 36.209 58.0218 36.3837C57.9029 36.5583 57.758 36.6958 57.587 36.7888C57.416 36.8817 57.2302 36.93 57.0332 36.93C56.8363 36.93 56.6504 36.8817 56.5055 36.7813C56.3605 36.6847 56.2565 36.5435 56.1933 36.3614C56.1301 36.1792 56.119 35.96 56.1598 35.711C56.2007 35.4657 56.2825 35.2538 56.3977 35.0791C56.5166 34.9045 56.6616 34.7669 56.8325 34.674C57.0035 34.5811 57.1893 34.5328 57.39 34.5328C57.5907 34.5328 57.7691 34.5811 57.9141 34.6815C58.059 34.7818 58.1631 34.9193 58.2262 35.1014C58.2894 35.2835 58.3006 35.5028 58.256 35.7556L58.2597 35.7518ZM57.9178 35.7072C57.9475 35.5214 57.9438 35.3616 57.9066 35.2352C57.8695 35.1089 57.8026 35.0122 57.7096 34.9453C57.6167 34.8784 57.5052 34.8487 57.3752 34.8487C57.2376 34.8487 57.1076 34.8822 56.9886 34.9528C56.8697 35.0234 56.7656 35.1237 56.6802 35.2575C56.5947 35.3913 56.5352 35.5549 56.5055 35.7481C56.4757 35.9339 56.4795 36.0938 56.5166 36.2201C56.5538 36.3465 56.6207 36.4431 56.7136 36.5063C56.8065 36.5695 56.918 36.6029 57.0481 36.6029C57.1782 36.6029 57.312 36.5695 57.4346 36.4989C57.5573 36.4283 57.6576 36.3279 57.7431 36.1941C57.8286 36.0603 57.8843 35.8968 57.9178 35.7035V35.7072ZM58.4009 34.4102H58.6834C58.6499 34.622 58.5719 34.7855 58.453 34.9007C58.334 35.016 58.1705 35.0754 57.9698 35.0754L58.007 34.8413C58.1222 34.8413 58.2114 34.8041 58.2746 34.7261C58.3377 34.648 58.3786 34.544 58.4046 34.4102H58.4009Z" fill="#58595B"/>
<path id="Vector_21" d="M60.8429 34.5625L60.4564 36.9002H60.133L59.2299 35.1869H59.2076L58.9214 36.9002H58.5684L58.9549 34.5625H59.2819L60.1851 36.2796H60.2074L60.4935 34.5625H60.8429Z" fill="#58595B"/>
<path id="Vector_22" d="M62.8127 35.2984C62.8015 35.2278 62.7866 35.1683 62.7606 35.1126C62.7346 35.0568 62.7012 35.0122 62.6603 34.9713C62.6194 34.9342 62.5674 34.9044 62.5116 34.8821C62.4522 34.8598 62.3853 34.8524 62.3072 34.8524C62.1771 34.8524 62.0508 34.8858 61.9281 34.9527C61.8055 35.0196 61.7051 35.12 61.6159 35.2501C61.5304 35.3801 61.471 35.54 61.4375 35.7295C61.4078 35.919 61.4078 36.0789 61.445 36.2089C61.4821 36.339 61.5453 36.4394 61.6382 36.5063C61.7311 36.5732 61.8464 36.6066 61.9839 36.6066C62.1102 36.6066 62.2292 36.5806 62.3332 36.5286C62.441 36.4765 62.5302 36.4022 62.6008 36.3093C62.6714 36.2164 62.716 36.1012 62.7383 35.9748L62.8275 35.9934H62.1585L62.2106 35.7035H63.1286L63.0803 35.9674C63.0505 36.1643 62.9799 36.3353 62.8721 36.4803C62.7643 36.6252 62.6305 36.7367 62.4707 36.8147C62.3109 36.8928 62.1362 36.93 61.9467 36.93C61.7349 36.93 61.5565 36.8816 61.4152 36.785C61.274 36.6884 61.1699 36.5509 61.1142 36.3688C61.0547 36.1904 61.0473 35.9785 61.0882 35.7295C61.1179 35.5437 61.1699 35.3764 61.248 35.2278C61.326 35.0791 61.4189 34.9527 61.5304 34.8487C61.6419 34.7446 61.7646 34.6666 61.9021 34.6108C62.0396 34.5551 62.1808 34.5291 62.3332 34.5291C62.4596 34.5291 62.5748 34.5476 62.6751 34.5848C62.7755 34.622 62.8684 34.674 62.9427 34.7446C63.0171 34.8152 63.0728 34.8933 63.1137 34.9899C63.1546 35.0828 63.1732 35.1869 63.1732 35.3021H62.8127V35.2984Z" fill="#58595B"/>
<path id="Vector_23" d="M64.6111 34.5625H65.0385L65.4845 36.3799H65.5105L66.5549 34.5625H66.9823L66.5958 36.9002H66.2613L66.5438 35.2092H66.5215L65.5514 36.8965H65.2727L64.8639 35.2092H64.8416L64.5591 36.9002H64.2246L64.6111 34.5625Z" fill="#58595B"/>
<path id="Vector_24" d="M67.306 36.8966H66.9307L68.1608 34.5588H68.5697L69.0231 36.8966H68.6477L68.3058 34.9862H68.2872L67.306 36.8966ZM67.5216 35.9823H68.7369L68.6886 36.2796H67.4733L67.5216 35.9823ZM67.9044 37.4986C67.8449 37.4986 67.7966 37.4801 67.7557 37.4392C67.7149 37.3983 67.6963 37.35 67.6963 37.2942C67.6963 37.2385 67.7223 37.1902 67.7669 37.1493C67.8115 37.1084 67.8635 37.0898 67.923 37.0898C67.9825 37.0898 68.0308 37.1084 68.0717 37.1493C68.1125 37.1902 68.1311 37.2385 68.1274 37.2942C68.1274 37.35 68.1014 37.3983 68.0568 37.4392C68.0122 37.4801 67.9602 37.4986 67.9007 37.4986H67.9044Z" fill="#58595B"/>
<path id="Vector_25" d="M70.097 34.5625L69.7105 36.9002H69.3574L69.7439 34.5625H70.097Z" fill="#58595B"/>
<path id="Vector_26" d="M70.6953 36.5769L70.6544 36.6996C70.6284 36.7925 70.5912 36.8854 70.5503 36.9857C70.5057 37.0861 70.4648 37.179 70.424 37.2608C70.3831 37.3462 70.3496 37.4131 70.3236 37.4652H70.082C70.0969 37.4206 70.1229 37.3537 70.1526 37.2756C70.1824 37.1939 70.2158 37.1047 70.2493 37.008C70.2827 36.9114 70.3125 36.8073 70.3348 36.7033L70.3682 36.5769H70.6953Z" fill="#58595B"/>
<path id="Vector_27" d="M71.8359 35.8002L71.8768 35.566H72.9249L72.884 35.8002H71.8359ZM72.6982 34.5588L72.3117 36.8966H71.9586L72.3451 34.5588H72.6982ZM72.7242 36.8966H72.137L72.189 36.5881H72.7391C72.9175 36.5881 73.0698 36.5546 73.1999 36.484C73.33 36.4134 73.4378 36.3131 73.5158 36.183C73.5976 36.0529 73.6533 35.8931 73.6868 35.7035C73.7165 35.5251 73.7128 35.3728 73.6794 35.2464C73.6422 35.1238 73.5753 35.0271 73.4712 34.9639C73.3672 34.9008 73.2334 34.8673 73.0624 34.8673H72.4603L72.5124 34.5588H73.1144C73.3449 34.5588 73.5344 34.6072 73.6831 34.7038C73.8317 34.8004 73.9395 34.9342 73.999 35.1126C74.0584 35.291 74.0696 35.4991 74.0287 35.7481C73.9878 35.9897 73.9135 36.1941 73.7983 36.3651C73.6831 36.5361 73.5344 36.6699 73.3523 36.7591C73.1702 36.852 72.9621 36.8966 72.7242 36.8966Z" fill="#58595B"/>
<path id="Vector_28" d="M74.3859 37.4986C74.3264 37.4986 74.2781 37.48 74.2372 37.4391C74.1963 37.3982 74.1777 37.3499 74.1777 37.2942C74.1777 37.2384 74.2038 37.1901 74.2484 37.1492C74.2929 37.1084 74.345 37.0898 74.4044 37.0898C74.4639 37.0898 74.5122 37.1084 74.5531 37.1492C74.594 37.1901 74.6126 37.2384 74.6089 37.2942C74.6089 37.3499 74.5828 37.3982 74.5382 37.4391C74.4936 37.48 74.4416 37.4986 74.3821 37.4986H74.3859ZM75.0214 34.5625L74.6349 36.9002H74.2818L74.6683 34.5625H75.0214Z" fill="#58595B"/>
<path id="Vector_29" d="M77.4181 34.5625L77.0316 36.9002H76.7082L75.8051 35.1869H75.7828L75.4966 36.9002H75.1436L75.5301 34.5625H75.8571L76.7603 36.2796H76.7826L77.0687 34.5625H77.4181Z" fill="#58595B"/>
<path id="Vector_30" d="M77.5447 36.8966L77.9313 34.5588H78.2843L78.1134 35.5735H79.2767L79.4439 34.5588H79.797L79.4105 36.8966H79.0574L79.2246 35.8782H78.0613L77.8941 36.8966H77.541H77.5447Z" fill="#58595B"/>
<path id="Vector_31" d="M80.7781 36.8966L81.1647 34.5588H81.5177L81.3468 35.5735H82.5101L82.6773 34.5588H83.0304L82.6438 36.8966H82.2908L82.458 35.8782H81.2947L81.1275 36.8966H80.7744H80.7781Z" fill="#58595B"/>
<path id="Vector_32" d="M83.9037 34.5625L83.5171 36.9002H83.1641L83.5506 34.5625H83.9037ZM83.6323 34.3284L83.3685 33.8043H83.729L83.9074 34.3284H83.6361H83.6323Z" fill="#58595B"/>
<path id="Vector_33" d="M86.3009 34.5625L85.9144 36.9002H85.591L84.6879 35.1869H84.6656L84.3794 36.9002H84.0264L84.4129 34.5625H84.7399L85.6431 36.2796H85.6654L85.9516 34.5625H86.3009Z" fill="#58595B"/>
<path id="Vector_34" d="M86.4275 36.8966L86.8141 34.5588H87.1671L86.9962 35.5735H88.1595L88.3267 34.5588H88.6798L88.2933 36.8966H87.9402L88.1074 35.8782H86.9442L86.7769 36.8966H86.4238H86.4275Z" fill="#58595B"/>
<path id="Vector_35" d="M89.8836 34.8636L89.9319 34.5588H91.7382L91.6899 34.8636H90.9614L90.6232 36.8966H90.2701L90.6083 34.8636H89.8799H89.8836Z" fill="#58595B"/>
<path id="Vector_36" d="M93.6415 34.5625H93.9945L93.7418 36.0975C93.7158 36.261 93.6526 36.4059 93.556 36.5323C93.4593 36.6587 93.333 36.7553 93.1806 36.8296C93.0282 36.904 92.861 36.9374 92.6714 36.9374C92.4819 36.9374 92.3295 36.9002 92.2031 36.8296C92.0768 36.759 91.9839 36.6587 91.9281 36.5323C91.8724 36.4059 91.8575 36.261 91.8835 36.0975L92.1362 34.5625H92.4893L92.2366 36.0714C92.2217 36.1755 92.2292 36.2721 92.2626 36.3539C92.2961 36.4357 92.3518 36.4989 92.4298 36.5472C92.5079 36.5955 92.6045 36.6178 92.7235 36.6178C92.8424 36.6178 92.9502 36.5955 93.0431 36.5472C93.136 36.4989 93.214 36.4357 93.2735 36.3539C93.333 36.2721 93.3701 36.1792 93.3887 36.0714L93.6415 34.5625ZM94.2658 34.4399H94.5483C94.5223 34.5923 94.4814 34.7186 94.4182 34.8227C94.355 34.9267 94.2733 35.0048 94.1618 35.0605C94.054 35.1163 93.9165 35.1423 93.7492 35.1423L93.7901 34.9082C93.8979 34.9082 93.9871 34.8896 94.0503 34.8524C94.1135 34.8152 94.1618 34.7632 94.1952 34.6926C94.2287 34.622 94.251 34.5365 94.2695 34.4362L94.2658 34.4399Z" fill="#58595B"/>
<path id="Vector_37" d="M96.6591 35.7518C96.6182 35.9971 96.5365 36.209 96.4213 36.3837C96.3023 36.5583 96.1574 36.6958 95.9864 36.7888C95.8154 36.8817 95.6296 36.93 95.4326 36.93C95.2357 36.93 95.0498 36.8817 94.9049 36.7813C94.7599 36.6847 94.6559 36.5435 94.5927 36.3614C94.5295 36.1792 94.5184 35.96 94.5592 35.711C94.6001 35.4657 94.6819 35.2538 94.7971 35.0791C94.916 34.9045 95.061 34.7669 95.232 34.674C95.4029 34.5811 95.5887 34.5328 95.7894 34.5328C95.9901 34.5328 96.1685 34.5811 96.3135 34.6815C96.4584 34.7818 96.5625 34.9193 96.6257 35.1014C96.6888 35.2835 96.7 35.5028 96.6554 35.7556L96.6591 35.7518ZM96.3172 35.7072C96.3469 35.5214 96.3432 35.3616 96.306 35.2352C96.2689 35.1089 96.202 35.0122 96.1091 34.9453C96.0161 34.8784 95.9046 34.8487 95.7746 34.8487C95.6371 34.8487 95.507 34.8822 95.388 34.9528C95.2691 35.0234 95.1651 35.1237 95.0796 35.2575C94.9941 35.3913 94.9346 35.5549 94.9049 35.7481C94.8752 35.9339 94.8789 36.0938 94.916 36.2201C94.9532 36.3465 95.0201 36.4431 95.113 36.5063C95.2059 36.5695 95.3174 36.6029 95.4475 36.6029C95.5776 36.6029 95.7114 36.5695 95.834 36.4989C95.9567 36.4283 96.057 36.3279 96.1425 36.1941C96.228 36.0603 96.2837 35.8968 96.3172 35.7035V35.7072ZM96.8003 34.4102H97.0828C97.0494 34.622 96.9713 34.7855 96.8524 34.9007C96.7334 35.016 96.5699 35.0754 96.3692 35.0754L96.4064 34.8413C96.5216 34.8413 96.6108 34.8041 96.674 34.7261C96.7372 34.648 96.778 34.544 96.8041 34.4102H96.8003Z" fill="#58595B"/>
<path id="Vector_38" d="M99.2423 34.5625L98.8558 36.9002H98.5324L97.6293 35.1869H97.607L97.3208 36.9002H96.9678L97.3543 34.5625H97.6813L98.5845 36.2796H98.6068L98.893 34.5625H99.2423Z" fill="#58595B"/>
<path id="Vector_39" d="M101.212 35.2984C101.201 35.2278 101.186 35.1683 101.16 35.1126C101.134 35.0568 101.101 35.0122 101.06 34.9713C101.019 34.9342 100.967 34.9044 100.911 34.8821C100.852 34.8598 100.785 34.8524 100.707 34.8524C100.577 34.8524 100.45 34.8858 100.328 34.9527C100.205 35.0196 100.105 35.12 100.015 35.2501C99.9298 35.3801 99.8704 35.54 99.8369 35.7295C99.8072 35.919 99.8072 36.0789 99.8444 36.2089C99.8815 36.339 99.9447 36.4394 100.038 36.5063C100.131 36.5732 100.246 36.6066 100.383 36.6066C100.51 36.6066 100.629 36.5806 100.733 36.5286C100.84 36.4765 100.93 36.4022 101 36.3093C101.071 36.2164 101.115 36.1012 101.138 35.9748L101.227 35.9934H100.558L100.61 35.7035H101.528L101.48 35.9674C101.45 36.1643 101.379 36.3353 101.272 36.4803C101.164 36.6252 101.03 36.7367 100.87 36.8147C100.71 36.8928 100.536 36.93 100.346 36.93C100.134 36.93 99.9559 36.8816 99.8146 36.785C99.6734 36.6884 99.5694 36.5509 99.5136 36.3688C99.4541 36.1904 99.4467 35.9785 99.4876 35.7295C99.5173 35.5437 99.5693 35.3764 99.6474 35.2278C99.7254 35.0791 99.8184 34.9527 99.9299 34.8487C100.041 34.7446 100.164 34.6666 100.302 34.6108C100.439 34.5551 100.58 34.5291 100.733 34.5291C100.859 34.5291 100.974 34.5476 101.075 34.5848C101.175 34.622 101.268 34.674 101.342 34.7446C101.416 34.8152 101.472 34.8933 101.513 34.9899C101.554 35.0828 101.573 35.1869 101.573 35.3021H101.212V35.2984Z" fill="#58595B"/>
<path id="Vector_40" d="M102.624 36.8966L103.011 34.5588H103.364L103.025 36.5918H104.085L104.036 36.8966H102.624Z" fill="#58595B"/>
<path id="Vector_41" d="M104.75 36.8966H104.375L105.605 34.5588H106.014L106.467 36.8966H106.092L105.75 34.9862H105.732L104.75 36.8966ZM104.966 35.9823H106.181L106.133 36.2796H104.918L104.966 35.9823Z" fill="#58595B"/>
<path id="Vector_42" d="M107.541 34.5625L107.155 36.9002H106.802L107.188 34.5625H107.541Z" fill="#58595B"/>
</g>
<path id="Vector_43" d="M19.8192 35.4137C19.4067 36.6476 19.0016 37.8852 18.5927 39.1229C7.58425 35.0309 0.834961 29.5081 0.834961 23.4352C0.834961 19.3507 3.88627 15.5189 9.23441 12.2037C6.22399 14.8314 4.5664 17.7043 4.5664 20.7147C4.5664 26.3118 10.3011 31.4407 19.8192 35.4137Z" fill="#06B382"/>
<path id="Vector_44" d="M126.879 32.1022C117.271 40.5091 93.8533 46.437 66.4956 46.437C47.9574 46.437 31.2291 43.7165 19.377 39.3421C19.927 38.1639 20.4771 36.9932 21.0234 35.815C32.9536 40.654 50.5701 43.7127 70.2234 43.7127C94.5223 43.7127 115.71 39.0336 126.879 32.1022Z" fill="#06B382"/>
</g>
<defs>
<linearGradient id="paint0_linear_5456_11833" x1="37.4584" y1="18.5739" x2="11.7472" y2="22.6881" gradientUnits="userSpaceOnUse">
<stop stop-color="#F4C937"/>
<stop offset="0.14" stop-color="#F8CE39"/>
<stop offset="0.23" stop-color="#FFD63C"/>
<stop offset="0.49" stop-color="#FFF5BB"/>
<stop offset="0.79" stop-color="#FFD53C"/>
<stop offset="1" stop-color="#E0AC2C"/>
</linearGradient>
<linearGradient id="paint1_linear_5456_11833" x1="121.218" y1="8.85132" x2="47.4108" y2="20.6626" gradientUnits="userSpaceOnUse">
<stop stop-color="#F4C937"/>
<stop offset="0.14" stop-color="#F8CE39"/>
<stop offset="0.23" stop-color="#FFD63C"/>
<stop offset="0.49" stop-color="#FFF5BB"/>
<stop offset="0.79" stop-color="#FFD53C"/>
<stop offset="1" stop-color="#E0AC2C"/>
</linearGradient>
<clipPath id="clip0_5456_11833">
<rect width="126.044" height="46" fill="white" transform="translate(0.834961 0.437012)"/>
</clipPath>
</defs>
</svg>
